P2
100 50
65535
53512 54102 54608 55029 55367 55535 55703 55788 55703 55619 55367 55113 54692 54270 53765 53175 52500 51741 50982 50139 49297 48284 47357 46345 45249 44153 43057 41961 40780 39601 38420 37239 36059 34879 33699 32518 31422 30242 29062 27965 26869 25774 24762 23750 22738 21810 20883 20040 19197 18439 17764 17089 16499 15909 15403 14982 14644 14391 14138 13970 13970 13970 14054 14223 14475 14813 15235 15740 16330 17006 17764 18607 19450 20461 21474 22654 23834 25098 26364 27629 29062 30495 31844 33277 34794 36228 37661 39094 40528 41876 43226 44575 45839 47020 48200 49297 50308 51235 52079 52837 
53596 54186 54692 55029 55367 55619 55703 55788 55703 55619 55367 55029 54692 54186 53680 53090 52416 51741 50898 50054 49212 48284 47272 46261 45165 44069 42973 41876 40697 39516 38336 37155 35975 34794 33615 32434 31253 30073 28978 27881 26785 25689 24678 23665 22654 21726 20799 19956 19112 18354 17679 17006 16415 15824 15403 14982 14560 14307 14138 13970 13970 13970 14054 14223 14475 14813 15319 15740 16415 17089 17848 18691 19534 20546 21643 22738 23919 25183 26447 27797 29230 30579 32012 33446 34879 36312 37830 39263 40697 42045 43394 44744 45924 47188 48284 49381 50392 51320 52163 52921 
53680 54270 54692 55113 55451 55619 55788 55788 55788 55619 55367 55029 54692 54186 53680 53090 52416 51657 50898 50054 49127 48200 47188 46177 45165 44069 42973 41792 40612 39431 38252 37071 35890 34710 33530 32350 31169 29989 28893 27797 26701 25605 24593 23581 22570 21643 20715 19872 19112 18354 17595 16921 16330 15824 15319 14897 14560 14307 14138 13970 13970 13970 14054 14307 14560 14897 15319 15824 16499 17173 17933 18775 19703 20715 21726 22907 24087 25352 26616 27965 29315 30748 32181 33615 35048 36481 37998 39431 40780 42214 43563 44828 46093 47272 48453 49465 50476 51404 52247 53006 
53765 54270 54776 55198 55451 55703 55788 55788 55788 55619 55367 55029 54692 54186 53680 53006 52331 51657 50814 49971 49127 48116 47104 46093 45080 43984 42889 41708 40528 39347 38167 36987 35806 34626 33446 32266 31084 29905 28808 27713 26616 25520 24509 23497 22485 21558 20715 19872 19028 18270 17595 16921 16330 15824 15319 14897 14560 14307 14138 13970 13970 13970 14138 14307 14560 14982 15403 15909 16499 17257 18017 18860 19788 20799 21894 22992 24171 25436 26785 28049 29483 30917 32266 33783 35216 36649 38083 39516 40949 42298 43647 44996 46177 47441 48538 49633 50561 51488 52331 53090 
53765 54354 54861 55198 55535 55703 55872 55872 55788 55619 55367 55029 54692 54186 53680 53006 52331 51572 50814 49971 49043 48116 47104 46093 44996 43900 42804 41624 40528 39347 38167 36987 35806 34542 33361 32181 31084 29905 28724 27629 26532 25520 24425 23412 22485 21558 20630 19788 19028 18270 17511 16921 16330 15740 15319 14897 14560 14307 14138 14054 13970 14054 14138 14391 14644 14982 15488 15993 16584 17342 18101 18944 19872 20883 21979 23076 24340 25605 26869 28218 29651 31001 32434 33867 35385 36818 38252 39685 41118 42467 43816 45080 46345 47526 48621 49717 50730 51572 52416 53175 
53849 54439 54945 55282 55619 55788 55872 55872 55788 55619 55451 55113 54692 54186 53680 53006 52331 51572 50814 49886 49043 48031 47104 46008 44996 43900 42804 41624 40443 39263 38083 36903 35722 34542 33361 32181 31001 29820 28724 27629 26532 25436 24425 23412 22401 21474 20630 19788 18944 18185 17511 16921 16330 15740 15319 14897 14560 14307 14138 14054 14054 14054 14223 14391 14729 15066 15572 16078 16668 17426 18185 19028 20040 21052 22064 23244 24425 25689 27038 28387 29735 31169 32602 34036 35470 36903 38420 39853 41202 42635 43900 45249 46513 47694 48790 49802 50814 51657 52500 53259 
53934 54523 54945 55367 55619 55788 55872 55957 55872 55703 55451 55113 54692 54186 53680 53006 52331 51572 50730 49886 49043 48031 47020 46008 44912 43816 42720 41624 40443 39263 38083 36903 35722 34542 33361 32181 31001 29820 28640 27544 26447 25436 24340 23412 22401 21474 20630 19788 18944 18185 17511 16921 16330 15740 15319 14897 14644 14391 14223 14054 14054 14138 14223 14475 14729 15151 15656 16162 16752 17511 18270 19197 20125 21137 22232 23328 24593 25858 27122 28471 29905 31338 32771 34204 35638 37071 38504 39938 41371 42720 44069 45334 46598 47779 48875 49886 50898 51825 52584 53343 
54018 54608 55029 55451 55703 55872 55957 55957 55872 55703 55451 55113 54692 54186 53680 53006 52331 51572 50730 49886 48959 48031 47020 46008 44912 43816 42720 41540 40443 39263 38083 36903 35722 34457 33277 32181 31001 29820 28640 27544 26447 25436 24425 23412 22401 21474 20630 19788 18944 18270 17511 16921 16330 15824 15319 14982 14644 14391 14223 14138 14138 14138 14307 14560 14813 15235 15740 16246 16921 17595 18354 19282 20209 21221 22316 23497 24678 25942 27291 28640 29989 31422 32855 34288 35722 37239 38673 40107 41456 42889 44153 45502 46683 47863 48959 50054 50982 51910 52668 53427 
54102 54692 55113 55451 55703 55957 55957 55957 55872 55703 55451 55113 54692 54186 53680 53006 52331 51572 50730 49886 48959 48031 47020 46008 44912 43816 42720 41540 40443 39263 38083 36903 35722 34542 33361 32181 31001 29820 28724 27544 26532 25436 24425 23412 22485 21558 20630 19788 19028 18270 17595 16921 16330 15824 15403 14982 14729 14475 14307 14223 14138 14223 14391 14644 14897 15319 15740 16330 16921 17679 18439 19366 20293 21305 22401 23581 24762 26111 27375 28724 30157 31506 32939 34457 35890 37324 38757 40191 41624 42973 44322 45586 46767 47947 49043 50139 51066 51994 52753 53512 
54186 54692 55198 55535 55788 55957 56041 56041 55957 55788 55535 55113 54692 54270 53680 53006 52331 51572 50814 49886 49043 48031 47020 46008 44996 43816 42720 41624 40443 39263 38083 36903 35722 34542 33361 32181 31001 29905 28724 27629 26532 25520 24425 23412 22485 21558 20715 19872 19028 18354 17595 17006 16415 15909 15403 15066 14729 14475 14391 14223 14223 14307 14475 14644 14982 15403 15824 16415 17006 17764 18523 19450 20377 21474 22485 23665 24930 26195 27460 28808 30242 31675 33108 34542 35975 37408 38842 40275 41708 43057 44406 45671 46935 48031 49127 50224 51151 52079 52837 53512 
54186 54776 55198 55535 55788 55957 56041 56041 55957 55788 55535 55198 54776 54270 53680 53090 52331 51572 50814 49971 49043 48031 47104 46008 44996 43900 42804 41624 40443 39347 38083 36987 35806 34542 33446 32266 31084 29905 28808 27713 26616 25520 24509 23497 22570 21643 20715 19872 19112 18354 17679 17089 16499 15993 15488 15151 14813 14560 14391 14307 14307 14391 14560 14729 15066 15488 15909 16499 17089 17848 18607 19534 20461 21558 22570 23750 25014 26280 27544 28893 30326 31760 33193 34626 36059 37492 39010 40359 41792 43142 44490 45755 47020 48116 49212 50308 51235 52079 52921 53596 
54270 54776 55282 55619 55872 56041 56125 56125 56041 55788 55535 55198 54776 54270 53765 53090 52416 51657 50814 49971 49043 48116 47104 46093 44996 43900 42804 41708 40528 39347 38167 36987 35806 34626 33446 32350 31169 29989 28893 27797 26701 25605 24593 23581 22654 21726 20799 19956 19197 18439 17764 17173 16584 16078 15572 15235 14897 14644 14475 14391 14391 14475 14560 14813 15151 15488 15993 16584 17173 17933 18691 19619 20546 21558 22654 23834 25098 26364 27629 28978 30411 31844 33277 34710 36143 37576 39010 40443 41876 43226 44575 45839 47020 48200 49297 50308 51320 52163 52921 53680 
54354 54861 55282 55619 55872 56041 56125 56125 56041 55872 55619 55198 54776 54354 53765 53090 52416 51657 50898 49971 49127 48116 47188 46093 45080 43984 42889 41708 40612 39431 38252 37071 35890 34710 33530 32434 31253 30073 28978 27881 26785 25689 24678 23665 22738 21810 20883 20125 19282 18523 17848 17257 16668 16162 15656 15319 14982 14729 14560 14475 14475 14475 14644 14897 15235 15572 16078 16584 17257 18017 18775 19703 20630 21643 22738 23919 25098 26447 27713 29062 30495 31928 33361 34794 36228 37661 39094 40528 41961 43310 44575 45924 47104 48284 49381 50392 51320 52247 53006 53680 
54354 54861 55367 55703 55957 56125 56209 56125 56041 55872 55619 55282 54861 54354 53765 53175 52500 51741 50898 50054 49127 48200 47188 46177 45165 44069 42973 41792 40697 39516 38336 37155 35975 34794 33615 32518 31338 30157 29062 27965 26869 25858 24762 23750 22823 21894 21052 20209 19366 18691 17933 17342 16752 16246 15740 15403 15066 14813 14644 14560 14560 14560 14729 14982 15235 15656 16162 16668 17342 18017 18860 19703 20715 21726 22823 23919 25183 26447 27797 29146 30495 31928 33361 34794 36228 37661 39179 40528 41961 43310 44659 45924 47104 48284 49381 50392 51404 52247 53006 53765 
54354 54945 55367 55703 55957 56125 56209 56209 56125 55957 55619 55282 54861 54354 53849 53175 52500 51741 50982 50139 49212 48284 47272 46261 45249 44153 43057 41876 40780 39601 38420 37239 36143 34963 33783 32602 31422 30326 29146 28049 26953 25942 24930 23919 22992 22064 21137 20293 19534 18775 18101 17426 16837 16330 15824 15488 15151 14897 14729 14644 14644 14644 14813 14982 15319 15740 16162 16752 17342 18101 18860 19788 20715 21726 22823 24003 25183 26447 27797 29146 30579 31928 33361 34794 36312 37745 39179 40612 41961 43310 44659 45924 47188 48369 49381 50476 51404 52247 53090 53765 
54354 54945 55367 55703 55957 56125 56209 56209 56125 55957 55703 55367 54945 54439 53849 53259 52584 51825 50982 50139 49297 48369 47357 46345 45334 44238 43142 41961 40865 39685 38504 37408 36228 35048 33867 32687 31590 30411 29315 28218 27122 26111 25014 24003 23076 22148 21305 20461 19619 18860 18185 17511 16921 16415 15993 15572 15235 14982 14813 14729 14644 14729 14897 15066 15403 15740 16246 16752 17426 18101 18944 19788 20715 21810 22823 24003 25267 26532 27797 29146 30579 32012 33361 34879 36312 37745 39179 40612 41961 43394 44659 45924 47188 48369 49465 50476 51404 52247 53090 53765 
54439 54945 55367 55703 55957 56209 56209 56209 56125 55957 55703 55367 54945 54439 53934 53259 52584 51910 51066 50224 49381 48453 47441 46429 45417 44322 43226 42130 40949 39853 38673 37492 36312 35132 34036 32855 31675 30579 29399 28302 27291 26195 25183 24171 23244 22316 21389 20546 19788 19028 18270 17679 17089 16499 16078 15656 15319 15066 14897 14813 14729 14813 14897 15151 15403 15824 16246 16837 17426 18185 18944 19788 20799 21810 22823 24003 25267 26532 27797 29146 30579 31928 33361 34794 36312 37745 39179 40612 41961 43310 44659 45924 47188 48369 49465 50476 51404 52247 53090 53765 
54354 54945 55367 55703 56041 56209 56294 56209 56209 56041 55703 55367 55029 54523 53934 53343 52668 51910 51151 50308 49465 48538 47526 46513 45502 44406 43310 42214 41118 39938 38757 37661 36481 35301 34120 33024 31844 30748 29567 28471 27375 26364 25352 24340 23328 22401 21558 20715 19872 19112 18439 17764 17173 16668 16162 15740 15403 15151 14982 14897 14813 14897 14982 15151 15488 15824 16330 16837 17426 18185 18944 19788 20799 21810 22823 24003 25183 26447 27797 29146 30495 31928 33361 34794 36228 37661 39179 40528 41961 43310 44659 45924 47104 48284 49381 50392 51404 52247 53090 53765 
54354 54945 55367 55703 56041 56209 56294 56294 56209 56041 55788 55451 55029 54523 54018 53427 52753 51994 51235 50392 49549 48621 47610 46598 45586 44490 43479 42298 41202 40107 38926 37745 36649 35470 34288 33108 32012 30833 29735 28640 27544 26532 25436 24509 23497 22570 21726 20799 20040 19282 18607 17933 17342 16752 16246 15824 15488 15235 15066 14897 14897 14897 15066 15235 15488 15909 16330 16837 17511 18185 18944 19788 20715 21726 22823 24003 25183 26447 27713 29062 30495 31928 33277 34794 36228 37661 39094 40528 41876 43310 44575 45924 47104 48284 49381 50392 51404 52247 53006 53765 
54354 54861 55367 55703 55957 56209 56294 56294 56209 56041 55788 55451 55029 54608 54102 53427 52753 52079 51320 50476 49549 48706 47694 46683 45671 44659 43563 42467 41371 40191 39010 37914 36734 35554 34457 33277 32181 31001 29905 28808 27713 26701 25605 24593 23665 22738 21810 20967 20209 19366 18691 18017 17426 16837 16415 15993 15572 15319 15151 14982 14982 14982 15066 15235 15572 15909 16330 16837 17511 18185 18944 19788 20715 21726 22823 23919 25183 26364 27713 29062 30411 31844 33277 34710 36143 37576 39010 40443 41876 43226 44575 45839 47020 48200 49297 50392 51320 52247 53006 53765 
54354 54861 55367 55703 55957 56209 56294 56294 56209 56041 55788 55535 55113 54608 54102 53512 52837 52163 51320 50561 49717 48790 47779 46767 45839 44744 43647 42551 41456 40359 39179 38083 36903 35722 34542 33446 32266 31169 30073 28978 27881 26785 25774 24762 23834 22907 21979 21137 20293 19534 18775 18185 17511 17006 16499 16078 15656 15403 15235 15066 14982 14982 15151 15319 15572 15909 16330 16837 17426 18185 18860 19788 20715 21643 22738 23834 25098 26364 27629 28978 30326 31760 33193 34626 36059 37492 38926 40359 41792 43142 44490 45755 47020 48116 49297 50308 51235 52163 52921 53680 
54270 54861 55282 55703 55957 56125 56294 56294 56209 56041 55872 55535 55113 54692 54186 53596 52921 52163 51404 50645 49717 48875 47863 46935 45924 44828 43816 42720 41540 40443 39347 38167 37071 35890 34710 33615 32434 31338 30157 29062 28049 26953 25942 24930 23919 22992 22148 21221 20461 19703 18944 18270 17679 17089 16584 16162 15740 15488 15235 15151 15066 15066 15151 15319 15572 15909 16330 16837 17426 18101 18860 19703 20630 21643 22654 23834 25014 26280 27544 28893 30242 31675 33108 34542 35975 37408 38842 40275 41708 43057 44406 45671 46935 48116 49212 50224 51235 52079 52921 53596 
54270 54776 55282 55619 55957 56125 56294 56294 56209 56125 55872 55535 55198 54692 54186 53596 53006 52247 51488 50730 49802 48959 48031 47020 46008 44996 43900 42804 41708 40612 39431 38336 37155 35975 34879 33699 32602 31422 30326 29230 28134 27122 26111 25098 24087 23160 22232 21389 20546 19788 19028 18354 17764 17173 16668 16246 15824 15572 15319 15151 15066 15066 15151 15319 15572 15909 16330 16837 17426 18101 18775 19619 20546 21558 22570 23750 24930 26195 27460 28808 30157 31590 33024 34457 35890 37324 38757 40191 41624 42973 44322 45586 46851 48031 49127 50139 51151 52079 52837 53596 
54186 54776 55198 55619 55872 56125 56209 56294 56209 56125 55872 55535 55198 54776 54270 53680 53006 52331 51572 50730 49886 49043 48116 47104 46093 45080 43984 42889 41792 40697 39601 38420 37324 36143 34963 33867 32771 31590 30495 29399 28302 27291 26195 25183 24256 23244 22401 21474 20715 19872 19197 18439 17848 17257 16752 16330 15909 15572 15403 15235 15151 15066 15151 15319 15572 15909 16330 16752 17342 18017 18775 19619 20461 21474 22485 23665 24846 26026 27375 28640 30073 31422 32855 34288 35722 37155 38589 40022 41456 42804 44153 45502 46683 47863 49043 50054 51066 51910 52753 53512 
54102 54692 55198 55535 55872 56125 56209 56294 56209 56125 55872 55619 55198 54776 54270 53680 53090 52416 51657 50814 49971 49127 48200 47188 46177 45165 44153 43057 41961 40780 39685 38589 37408 36228 35132 34036 32855 31760 30579 29483 28471 27375 26364 25352 24340 23412 22485 21643 20799 19956 19282 18523 17933 17342 16837 16330 15993 15656 15403 15235 15151 15066 15151 15319 15572 15824 16246 16752 17342 17933 18691 19534 20377 21389 22401 23497 24678 25942 27207 28556 29905 31338 32771 34204 35638 37071 38504 39938 41371 42720 44069 45334 46598 47779 48875 49971 50982 51825 52668 53427 
54018 54608 55113 55535 55872 56041 56209 56209 56209 56125 55872 55619 55198 54776 54354 53765 53090 52416 51657 50898 50054 49212 48284 47272 46261 45249 44238 43142 42045 40949 39769 38673 37492 36397 35216 34120 32939 31844 30748 29651 28556 27460 26447 25436 24425 23497 22570 21726 20883 20125 19366 18607 18017 17426 16837 16415 15993 15656 15403 15235 15151 15066 15151 15319 15488 15824 16246 16668 17257 17933 18607 19450 20293 21305 22316 23412 24593 25858 27122 28387 29820 31169 32602 34036 35470 36903 38336 39769 41202 42551 43900 45249 46513 47694 48790 49886 50898 51741 52584 53343 
53934 54523 55029 55451 55788 56041 56125 56209 56209 56125 55872 55619 55282 54861 54354 53765 53175 52500 51741 50982 50139 49212 48284 47357 46345 45334 44322 43226 42130 41034 39853 38757 37661 36481 35385 34204 33108 31928 30833 29735 28640 27629 26532 25520 24593 23581 22654 21810 20967 20125 19450 18691 18017 17426 16921 16415 16078 15740 15488 15235 15151 15066 15151 15235 15488 15740 16162 16584 17173 17848 18523 19366 20209 21137 22232 23328 24425 25689 26953 28302 29651 31001 32434 33867 35301 36734 38252 39685 41034 42467 43816 45080 46345 47526 48706 49717 50730 51657 52500 53259 
53849 54439 55029 55451 55703 55957 56125 56209 56209 56041 55872 55619 55282 54861 54354 53849 53175 52500 51741 50982 50139 49297 48369 47441 46429 45417 44406 43310 42214 41118 39938 38842 37745 36565 35470 34288 33193 32012 30917 29820 28724 27713 26616 25605 24678 23665 22738 21894 21052 20209 19450 18775 18101 17511 16921 16499 16078 15740 15488 15235 15151 15066 15151 15235 15403 15740 16078 16584 17089 17764 18439 19197 20125 21052 22064 23160 24340 25520 26785 28134 29483 30917 32266 33699 35216 36649 38083 39516 40949 42298 43647 44996 46261 47441 48538 49633 50645 51572 52416 53175 
53765 54439 54945 55367 55703 55957 56125 56125 56125 56041 55872 55619 55282 54861 54354 53849 53259 52584 51825 51066 50224 49381 48453 47441 46513 45502 44406 43394 42298 41202 40022 38926 37830 36649 35554 34373 33277 32097 31001 29905 28808 27797 26701 25689 24678 23750 22823 21894 21052 20293 19534 18775 18101 17511 17006 16499 16078 15740 15488 15235 15151 15066 15066 15235 15403 15656 16078 16499 17006 17679 18354 19112 19956 20967 21979 23076 24171 25436 26701 27965 29399 30748 32181 33615 35048 36481 37914 39347 40780 42130 43479 44828 46093 47272 48453 49549 50561 51488 52331 53090 
53680 54354 54861 55282 55619 55872 56041 56125 56125 56041 55872 55619 55282 54861 54354 53849 53259 52584 51825 51066 50224 49381 48453 47526 46513 45502 44490 43394 42298 41202 40107 39010 37830 36734 35554 34457 33277 32181 31084 29989 28893 27797 26785 25774 24762 23750 22823 21979 21137 20293 19534 18860 18185 17511 17006 16499 16078 15740 15403 15235 15066 14982 15066 15151 15319 15572 15993 16415 16921 17511 18270 19028 19872 20799 21810 22907 24087 25267 26532 27881 29230 30579 32012 33446 34879 36312 37830 39179 40612 42045 43394 44659 46008 47188 48369 49381 50476 51404 52247 53006 
53680 54270 54776 55198 55619 55872 56041 56125 56125 56041 55872 55619 55282 54861 54439 53849 53259 52584 51910 51066 50308 49381 48538 47526 46598 45586 44575 43479 42383 41286 40107 39010 37914 36734 35638 34457 33361 32181 31084 29989 28893 27881 26785 25774 24762 23834 22907 21979 21137 20293 19534 18860 18185 17511 17006 16499 16078 15656 15403 15151 15066 14982 14982 15066 15235 15572 15909 16330 16837 17426 18101 18944 19788 20715 21726 22823 23919 25183 26447 27713 29062 30495 31844 33277 34710 36143 37661 39094 40528 41876 43226 44575 45839 47020 48200 49297 50308 51320 52163 52921 
53596 54186 54692 55198 55535 55788 55957 56041 56041 55957 55788 55535 55282 54861 54354 53849 53259 52584 51910 51151 50308 49465 48538 47526 46598 45586 44575 43479 42383 41286 40191 39010 37914 36734 35638 34457 33361 32266 31084 29989 28893 27881 26785 25774 24762 23834 22907 21979 21137 20293 19534 18775 18101 17511 16921 16415 15993 15656 15403 15151 14982 14897 14897 15066 15235 15488 15824 16246 16752 17342 18017 18775 19703 20630 21558 22654 23834 25014 26280 27544 28978 30326 31760 33193 34626 36059 37492 38926 40359 41792 43142 44406 45755 46935 48116 49212 50224 51151 52079 52837 
53512 54102 54692 55113 55451 55788 55957 56041 56041 55957 55788 55535 55198 54861 54354 53849 53259 52584 51910 51151 50308 49465 48538 47610 46598 45586 44575 43479 42383 41286 40191 39094 37914 36818 35638 34542 33361 32266 31084 29989 28893 27881 26785 25774 24762 23834 22907 21979 21137 20293 19534 18775 18101 17511 16921 16415 15993 15656 15319 15066 14982 14897 14897 14982 15151 15403 15740 16162 16668 17257 17933 18691 19534 20461 21474 22570 23665 24930 26195 27460 28808 30157 31590 33024 34457 35890 37408 38842 40275 41624 42973 44322 45586 46851 48031 49127 50139 51066 51994 52753 
53427 54018 54608 55029 55451 55703 55872 55957 56041 55957 55788 55535 55198 54861 54354 53849 53259 52584 51910 51151 50308 49465 48538 47610 46598 45586 44575 43479 42383 41286 40191 39010 37914 36734 35638 34457 33361 32181 31084 29989 28893 27797 26785 25774 24762 23750 22823 21979 21052 20293 19534 18775 18101 17426 16921 16415 15909 15572 15319 15066 14897 14813 14813 14897 15066 15319 15656 16078 16584 17173 17848 18607 19450 20377 21389 22485 23581 24762 26026 27375 28724 30073 31506 32939 34373 35806 37239 38673 40107 41540 42889 44238 45502 46767 47863 49043 50054 50982 51910 52668 
53343 54018 54523 55029 55367 55703 55872 55957 55957 55872 55788 55535 55198 54861 54354 53849 53259 52584 51910 51066 50308 49465 48538 47526 46598 45586 44575 43479 42383 41286 40107 39010 37914 36734 35638 34457 33361 32181 31084 29989 28893 27797 26701 25689 24678 23750 22823 21894 21052 20209 19450 18691 18017 17426 16837 16330 15909 15488 15235 14982 14813 14729 14729 14813 14982 15235 15572 15993 16499 17089 17764 18523 19366 20293 21305 22316 23497 24678 25942 27207 28556 29989 31338 32771 34288 35722 37155 38589 40022 41456 42804 44153 45417 46683 47779 48959 49971 50898 51825 52668 
53259 53934 54523 54945 55367 55619 55788 55872 55957 55872 55703 55451 55198 54776 54354 53765 53175 52584 51825 51066 50308 49381 48453 47526 46598 45502 44490 43394 42298 41202 40107 39010 37830 36649 35554 34373 33277 32097 31001 29905 28808 27713 26701 25605 24678 23665 22738 21810 20967 20125 19366 18607 17933 17342 16752 16246 15824 15403 15151 14897 14729 14644 14644 14729 14897 15151 15488 15909 16415 17006 17679 18439 19282 20209 21221 22232 23412 24593 25858 27122 28471 29905 31253 32687 34120 35638 37071 38504 39938 41371 42720 44069 45334 46598 47694 48875 49886 50898 51741 52584 
53259 53849 54439 54945 55282 55619 55788 55872 55872 55872 55703 55451 55113 54776 54270 53765 53175 52500 51825 51066 50224 49381 48453 47526 46513 45502 44490 43394 42298 41202 40022 38926 37745 36649 35470 34373 33193 32012 30917 29820 28724 27629 26616 25605 24593 23581 22654 21726 20883 20040 19282 18607 17848 17257 16668 16162 15740 15403 15066 14813 14644 14560 14560 14644 14813 15066 15403 15824 16330 16921 17595 18354 19197 20125 21137 22148 23328 24509 25774 27038 28387 29820 31169 32602 34120 35554 36987 38420 39853 41286 42635 43984 45249 46513 47694 48790 49802 50814 51657 52500 
53175 53849 54439 54861 55282 55535 55703 55872 55872 55788 55619 55451 55113 54692 54270 53765 53175 52500 51741 50982 50224 49297 48369 47441 46429 45417 44406 43310 42214 41118 39938 38842 37661 36565 35385 34288 33108 31928 30833 29735 28640 27544 26532 25436 24509 23497 22570 21643 20799 19956 19197 18439 17764 17173 16584 16078 15656 15319 14982 14729 14644 14475 14560 14644 14729 14982 15319 15740 16246 16837 17511 18270 19112 20040 21052 22148 23244 24425 25689 26953 28387 29735 31169 32602 34036 35470 36903 38336 39769 41202 42551 43900 45165 46429 47610 48706 49802 50730 51657 52500 
53175 53849 54354 54861 55198 55535 55703 55788 55872 55788 55619 55367 55113 54692 54270 53680 53090 52416 51741 50982 50139 49297 48369 47357 46429 45417 44322 43226 42130 41034 39853 38757 37576 36481 35301 34204 33024 31844 30748 29651 28556 27460 26364 25352 24340 23412 22485 21558 20715 19872 19112 18354 17679 17089 16499 15993 15572 15235 14897 14644 14560 14475 14475 14560 14729 14982 15319 15740 16246 16837 17511 18270 19112 20040 20967 22064 23244 24425 25689 26953 28302 29651 31084 32518 33952 35385 36903 38336 39769 41118 42551 43900 45165 46429 47610 48706 49717 50730 51657 52416 
53175 53765 54354 54861 55198 55535 55703 55788 55788 55788 55619 55367 55029 54692 54186 53680 53090 52416 51657 50898 50054 49212 48284 47357 46345 45334 44238 43142 42045 40949 39769 38673 37492 36312 35216 34036 32939 31760 30579 29483 28387 27375 26280 25267 24256 23328 22316 21474 20630 19788 19028 18270 17595 17006 16415 15909 15488 15151 14813 14560 14475 14391 14391 14475 14644 14897 15235 15656 16162 16752 17426 18185 19028 19956 20967 22064 23160 24340 25605 26953 28302 29651 31084 32518 33952 35385 36818 38336 39769 41118 42467 43816 45165 46345 47526 48706 49717 50730 51572 52416 
53090 53765 54354 54776 55198 55451 55619 55788 55788 55703 55535 55282 55029 54608 54186 53596 53006 52331 51657 50814 50054 49127 48200 47272 46261 45249 44153 43057 41961 40865 39685 38589 37408 36228 35048 33952 32771 31590 30495 29399 28302 27207 26111 25098 24087 23160 22232 21305 20461 19619 18860 18185 17511 16837 16330 15824 15403 15066 14729 14560 14391 14307 14307 14391 14560 14813 15235 15572 16162 16752 17426 18185 19028 19956 20967 21979 23160 24340 25605 26869 28302 29651 31084 32518 33952 35385 36818 38252 39685 41118 42467 43816 45165 46345 47526 48621 49717 50645 51572 52416 
53090 53765 54354 54776 55198 55451 55619 55703 55788 55703 55535 55282 54945 54608 54102 53596 52921 52331 51572 50814 49971 49043 48116 47188 46177 45080 44069 42973 41876 40697 39601 38420 37239 36143 34963 33783 32602 31506 30326 29230 28134 27038 26026 25014 24003 22992 22064 21221 20377 19534 18775 18017 17342 16752 16246 15740 15319 14897 14644 14475 14307 14223 14223 14391 14560 14813 15151 15572 16078 16668 17342 18185 19028 19956 20967 21979 23160 24340 25605 26869 28302 29651 31084 32518 33952 35385 36818 38336 39769 41118 42467 43816 45165 46345 47526 48621 49717 50645 51572 52416 
53090 53765 54354 54776 55198 55451 55619 55703 55788 55703 55535 55282 54945 54523 54102 53512 52921 52247 51488 50730 49886 48959 48031 47104 46093 44996 43984 42889 41708 40612 39431 38336 37155 35975 34794 33699 32518 31338 30242 29062 27965 26953 25858 24846 23834 22907 21979 21052 20209 19366 18607 17933 17257 16668 16078 15656 15235 14897 14560 14391 14223 14138 14223 14307 14475 14729 15151 15572 16078 16668 17342 18185 19028 19956 20967 22064 23160 24425 25605 26953 28302 29651 31084 32518 33952 35385 36903 38336 39769 41202 42551 43900 45165 46429 47610 48706 49717 50730 51572 52416 
53175 53765 54354 54776 55198 55451 55619 55703 55703 55619 55451 55198 54861 54523 54018 53512 52837 52163 51404 50645 49802 48875 47947 46935 46008 44912 43816 42720 41624 40528 39347 38167 36987 35806 34710 33530 32350 31169 30073 28978 27881 26785 25689 24678 23665 22738 21810 20883 20040 19282 18523 17848 17173 16584 15993 15572 15151 14813 14475 14307 14223 14138 14138 14307 14475 14729 15066 15572 16078 16668 17342 18185 19028 19956 20967 22064 23244 24425 25689 26953 28387 29735 31169 32602 34036 35470 36903 38336 39769 41202 42551 43900 45165 46429 47610 48706 49717 50730 51572 52416 
53175 53765 54354 54776 55198 55451 55619 55703 55703 55619 55451 55198 54861 54439 53934 53427 52753 52079 51320 50561 49717 48790 47863 46851 45839 44828 43731 42635 41456 40359 39179 37998 36903 35722 34542 33361 32181 31084 29905 28808 27713 26616 25520 24509 23581 22570 21643 20799 19956 19112 18354 17679 17006 16415 15909 15403 14982 14644 14475 14223 14138 14054 14138 14223 14391 14729 15066 15572 16078 16668 17426 18185 19028 20040 21052 22064 23244 24509 25689 27038 28387 29820 31169 32602 34120 35554 36987 38420 39853 41286 42635 43984 45249 46513 47610 48790 49802 50730 51657 52416 
53175 53849 54354 54861 55198 55451 55619 55703 55703 55619 55451 55198 54861 54439 53934 53343 52753 52079 51320 50476 49633 48706 47779 46767 45755 44744 43647 42467 41371 40191 39094 37914 36734 35554 34373 33193 32097 30917 29735 28640 27544 26447 25436 24425 23412 22485 21558 20630 19788 19028 18270 17595 16921 16330 15824 15319 14982 14644 14391 14223 14054 14054 14054 14223 14391 14729 15066 15572 16078 16752 17426 18185 19112 20040 21052 22148 23328 24509 25774 27122 28471 29905 31253 32687 34204 35638 37071 38504 39938 41371 42720 44069 45334 46513 47694 48790 49886 50814 51657 52500 
53259 53849 54439 54861 55198 55451 55619 55703 55703 55619 55451 55113 54776 54354 53849 53343 52668 51994 51235 50392 49549 48621 47694 46683 45671 44575 43479 42383 41286 40107 38926 37745 36565 35385 34204 33108 31928 30748 29567 28471 27375 26364 25267 24256 23244 22316 21389 20546 19703 18860 18185 17426 16837 16246 15740 15235 14897 14560 14307 14138 14054 13970 14054 14223 14391 14729 15066 15572 16078 16752 17426 18270 19197 20125 21137 22232 23412 24593 25858 27207 28556 29989 31422 32855 34288 35722 37155 38589 40022 41456 42804 44153 45417 46598 47779 48875 49886 50898 51741 52584 
53259 53934 54439 54861 55198 55451 55619 55703 55703 55619 55367 55113 54776 54354 53849 53259 52584 51910 51151 50308 49465 48538 47610 46598 45586 44490 43394 42298 41118 39938 38757 37661 36481 35301 34120 32939 31760 30579 29483 28302 27291 26195 25098 24087 23076 22148 21221 20377 19534 18775 18017 17342 16752 16162 15656 15151 14813 14475 14223 14054 13970 13970 14054 14138 14391 14729 15151 15572 16162 16837 17511 18354 19197 20209 21221 22316 23497 24678 25942 27291 28640 30073 31506 32939 34373 35806 37324 38757 40107 41540 42889 44238 45502 46683 47863 48959 49971 50898 51825 52584 
53343 53934 54523 54945 55282 55535 55619 55703 55703 55619 55367 55113 54776 54270 53765 53175 52584 51825 51066 50224 49381 48453 47526 46513 45417 44406 43310 42130 41034 39853 38673 37492 36312 35132 33952 32771 31675 30495 29315 28218 27122 26026 25014 24003 22992 22064 21137 20293 19450 18691 17933 17257 16668 16078 15572 15151 14729 14475 14223 14054 13970 13970 14054 14223 14391 14729 15151 15656 16162 16837 17595 18439 19282 20293 21305 22401 23581 24846 26111 27375 28808 30157 31590 33024 34457 35975 37408 38842 40275 41624 42973 44322 45586 46851 47947 49043 50054 50982 51910 52668 
53427 54018 54523 54945 55282 55535 55703 55703 55703 55619 55367 55113 54692 54270 53765 53175 52500 51825 50982 50224 49297 48369 47441 46429 45334 44238 43226 42045 40865 39769 38589 37408 36228 35048 33867 32687 31506 30326 29230 28049 26953 25942 24846 23834 22823 21894 20967 20125 19366 18523 17848 17173 16499 15993 15488 15066 14644 14391 14138 13970 13970 13970 14054 14223 14391 14729 15151 15656 16246 16921 17679 18439 19366 20377 21389 22485 23665 24930 26195 27544 28893 30326 31760 33193 34626 36059 37576 38926 40359 41792 43142 44490 45755 46935 48031 49127 50139 51066 51994 52753 
