P2
50 100
65535
14436 14776 15004 15345 15686 16027 16369 16823 17164 17504 17960 18300 18641 18982 19210 19437 19665 19892 20006 20006 20119 20006 20006 19892 19779 19551 19324 18982 18755 18300 17960 17618 17278 16823 16482 16141 15686 15345 15118 14776 14549 14323 14095 13981 13981 13981 13981 13981 14095 14323 
14663 14890 15232 15572 15913 16254 16709 17051 17504 17846 18300 18641 18982 19324 19665 19892 20119 20233 20346 20460 20460 20460 20346 20233 20006 19779 19551 19210 18869 18528 18187 17732 17391 16937 16595 16141 15800 15459 15118 14776 14549 14323 14208 14095 13981 13981 13981 14095 14208 14436 
14890 15118 15459 15800 16141 16595 17051 17391 17846 18300 18755 19097 19437 19779 20119 20346 20574 20688 20802 20915 20915 20802 20802 20574 20460 20119 19892 19551 19210 18869 18414 17960 17618 17164 16709 16369 15913 15572 15232 14890 14663 14436 14323 14208 14095 14095 14208 14208 14436 14549 
15118 15459 15800 16141 16482 16937 17391 17846 18300 18755 19210 19551 19892 20233 20574 20802 21029 21256 21369 21369 21369 21369 21256 21029 20802 20574 20233 19892 19551 19210 18755 18300 17846 17391 16937 16482 16141 15800 15459 15118 14890 14663 14436 14323 14323 14323 14323 14436 14663 14890 
15459 15800 16141 16482 16937 17391 17846 18300 18755 19210 19665 20119 20460 20802 21143 21369 21597 21825 21938 21938 21938 21825 21711 21597 21369 21029 20688 20346 20006 19551 19097 18641 18187 17732 17278 16823 16369 16027 15686 15345 15118 14890 14663 14549 14549 14549 14663 14776 14890 15118 
15800 16141 16482 16937 17391 17846 18300 18755 19324 19779 20233 20688 21029 21369 21711 21938 22165 22393 22507 22507 22507 22393 22279 22165 21938 21597 21256 20915 20460 20006 19551 19097 18641 18073 17618 17164 16709 16369 16027 15686 15345 15118 15004 14890 14890 14890 14890 15004 15232 15459 
16141 16595 16937 17391 17846 18300 18869 19324 19779 20346 20802 21256 21597 22052 22393 22621 22847 23075 23075 23189 23189 23075 22961 22734 22507 22165 21825 21369 21029 20574 20006 19551 19097 18528 18073 17618 17164 16709 16369 16027 15686 15459 15345 15232 15232 15232 15232 15459 15572 15913 
16595 17051 17391 17846 18300 18869 19324 19892 20346 20915 21369 21825 22279 22621 22961 23302 23530 23643 23757 23871 23871 23757 23530 23416 23075 22734 22393 22052 21597 21029 20574 20119 19551 18982 18528 18073 17618 17164 16709 16369 16141 15913 15686 15572 15572 15572 15686 15800 16027 16254 
17051 17504 17846 18300 18869 19324 19892 20460 20915 21483 21938 22507 22847 23302 23643 23984 24211 24325 24439 24553 24553 24439 24211 23984 23757 23416 23075 22621 22165 21711 21143 20574 20119 19551 18982 18528 18073 17618 17164 16823 16595 16254 16141 16027 16027 16027 16141 16254 16482 16709 
17504 17960 18414 18869 19324 19892 20460 21029 21597 22165 22621 23075 23530 23984 24325 24667 24893 25121 25235 25235 25235 25121 25007 24667 24439 24098 23757 23302 22847 22279 21711 21256 20688 20119 19551 19097 18528 18073 17732 17391 17051 16823 16595 16482 16482 16482 16595 16709 16937 17164 
18073 18528 18982 19437 19892 20460 21029 21597 22165 22734 23302 23757 24211 24667 25007 25349 25576 25803 25917 25917 25917 25803 25689 25462 25121 24780 24439 23984 23530 22961 22393 21825 21256 20688 20119 19665 19097 18641 18300 17846 17504 17278 17164 16937 16937 16937 17051 17164 17391 17732 
18641 18982 19437 20006 20460 21029 21597 22165 22847 23416 23871 24439 24893 25349 25689 26030 26371 26486 26599 26712 26712 26599 26486 26144 25917 25576 25121 24667 24211 23643 23075 22507 21938 21369 20802 20233 19665 19210 18755 18414 18073 17846 17618 17504 17391 17504 17504 17732 17960 18187 
19097 19551 20006 20460 21029 21597 22165 22847 23416 23984 24553 25121 25576 26030 26371 26712 27053 27281 27395 27395 27395 27281 27167 26939 26599 26258 25803 25349 24893 24325 23757 23189 22621 21938 21369 20802 20346 19779 19437 18982 18641 18300 18187 17960 17960 17960 18073 18187 18414 18755 
19665 20119 20574 21029 21597 22165 22734 23416 23984 24667 25235 25689 26258 26712 27053 27395 27735 27963 28077 28190 28190 28077 27963 27622 27395 27053 26599 26144 25576 25007 24439 23871 23302 22621 22052 21483 20915 20460 20006 19551 19210 18869 18755 18528 18528 18528 18641 18755 18982 19324 
20119 20574 21029 21597 22165 22734 23416 23984 24553 25235 25803 26371 26826 27395 27735 28190 28418 28645 28872 28872 28872 28872 28645 28418 28190 27735 27395 26826 26371 25803 25235 24553 23984 23302 22734 22165 21597 21029 20574 20119 19779 19551 19324 19097 19097 19097 19097 19324 19551 19779 
20688 21143 21597 22165 22734 23302 23984 24553 25235 25803 26486 27053 27508 28077 28418 28872 29100 29441 29554 29668 29668 29554 29441 29214 28872 28532 28077 27622 27167 26599 25917 25349 24667 24098 23416 22847 22279 21711 21256 20802 20460 20119 19892 19665 19665 19665 19665 19892 20119 20346 
21256 21711 22165 22734 23302 23871 24553 25121 25803 26486 27053 27622 28190 28645 29100 29554 29895 30123 30236 30350 30350 30350 30123 29895 29668 29327 28872 28418 27849 27281 26712 26030 25462 24780 24211 23530 22961 22393 21938 21483 21029 20688 20460 20346 20233 20233 20233 20346 20574 20915 
21825 22279 22734 23302 23871 24439 25121 25689 26371 27053 27622 28304 28758 29327 29782 30236 30577 30805 31032 31032 31146 31032 30919 30691 30464 30009 29668 29214 28645 28077 27395 26826 26144 25576 24893 24211 23643 23075 22621 22165 21711 21369 21143 20915 20802 20802 20802 20915 21143 21483 
22393 22847 23302 23871 24325 25007 25689 26258 26939 27622 28190 28872 29441 30009 30464 30805 31146 31487 31714 31828 31828 31828 31714 31487 31146 30805 30350 29895 29441 28872 28190 27622 26939 26258 25576 25007 24325 23757 23302 22734 22393 22052 21711 21483 21369 21369 21369 21483 21711 22052 
22961 23302 23871 24325 24893 25576 26144 26826 27508 28190 28872 29441 30009 30577 31032 31487 31828 32169 32396 32510 32510 32510 32396 32169 31942 31600 31146 30691 30123 29554 28986 28304 27735 27053 26371 25689 25121 24553 23984 23530 23075 22621 22393 22165 22052 21938 22052 22165 22279 22621 
23416 23871 24325 24893 25462 26030 26712 27395 28077 28758 29327 30009 30577 31146 31714 32055 32510 32738 33078 33192 33192 33192 33078 32965 32624 32282 31942 31487 30919 30350 29782 29100 28418 27735 27053 26486 25803 25235 24667 24098 23757 23302 22961 22734 22621 22621 22621 22734 22847 23189 
23984 24439 24893 25462 26030 26599 27281 27963 28645 29327 29895 30577 31146 31714 32282 32738 33078 33419 33647 33875 33988 33875 33875 33647 33419 33078 32738 32169 31714 31146 30464 29895 29214 28532 27849 27167 26599 25917 25349 24893 24439 23984 23643 23416 23302 23189 23189 23302 23416 23757 
24553 25007 25462 25917 26486 27167 27735 28418 29100 29782 30464 31146 31714 32282 32851 33306 33760 34101 34328 34442 34556 34556 34556 34328 34101 33760 33419 32965 32510 31942 31260 30577 30009 29327 28645 27963 27281 26712 26144 25576 25121 24667 24325 24098 23871 23757 23757 23871 23984 24211 
25121 25462 25917 26486 27053 27622 28304 28986 29668 30350 31032 31600 32282 32851 33419 33875 34328 34670 35010 35125 35238 35238 35238 35125 34897 34556 34215 33760 33192 32624 32055 31373 30805 30009 29327 28645 28077 27395 26826 26258 25803 25349 25007 24667 24553 24439 24325 24439 24553 24780 
25689 26030 26486 26939 27508 28190 28758 29441 30123 30805 31487 32169 32851 33419 33988 34442 34897 35238 35579 35807 35920 35920 35920 35807 35579 35238 34897 34442 33988 33419 32851 32169 31600 30805 30123 29441 28758 28190 27622 27053 26486 26030 25689 25349 25235 25007 25007 25007 25121 25349 
26258 26599 27053 27508 28077 28645 29327 30009 30691 31373 32055 32738 33306 33988 34556 35010 35466 35920 36147 36375 36603 36603 36603 36489 36261 36034 35693 35238 34784 34215 33647 32965 32282 31600 30919 30236 29554 28986 28304 27735 27281 26826 26371 26030 25803 25689 25689 25689 25803 26030 
26826 27167 27508 28077 28532 29214 29782 30464 31146 31828 32510 33192 33875 34442 35010 35579 36034 36489 36830 37056 37171 37284 37284 37171 37056 36716 36375 36034 35579 35010 34442 33760 33078 32396 31714 31032 30350 29668 29100 28532 27963 27508 27053 26712 26486 26371 26258 26258 26371 26599 
27395 27735 28077 28532 29100 29668 30350 30919 31600 32396 33078 33760 34328 35010 35579 36147 36603 37056 37398 37625 37853 37966 37966 37853 37739 37512 37171 36716 36261 35807 35238 34556 33875 33192 32510 31828 31146 30464 29895 29327 28758 28190 27849 27508 27167 27053 26939 26939 26939 27167 
27963 28304 28645 29100 29668 30236 30805 31487 32169 32851 33533 34215 34897 35579 36147 36716 37171 37625 37966 38308 38421 38649 38649 38535 38421 38194 37853 37512 37056 36603 36034 35352 34784 34101 33419 32624 31942 31373 30691 30123 29554 28986 28532 28190 27963 27735 27622 27622 27622 27735 
28532 28872 29214 29668 30123 30691 31373 31942 32624 33306 33988 34670 35352 36034 36603 37171 37739 38194 38535 38875 39103 39217 39331 39217 39103 38875 38649 38308 37853 37398 36830 36147 35579 34897 34215 33533 32851 32169 31487 30919 30350 29782 29327 28986 28645 28418 28304 28190 28304 28418 
29214 29441 29782 30236 30691 31260 31828 32510 33192 33875 34556 35238 35920 36603 37171 37739 38308 38762 39103 39444 39671 39899 39899 39899 39785 39671 39331 38989 38649 38080 37625 37056 36375 35693 35010 34328 33647 32965 32282 31714 31146 30577 30123 29668 29441 29100 28986 28872 28872 28986 
29895 30123 30464 30805 31260 31828 32396 32965 33647 34328 35010 35693 36375 37056 37739 38308 38875 39331 39785 40126 40353 40467 40581 40581 40581 40353 40126 39785 39444 38989 38421 37853 37284 36603 35920 35238 34556 33875 33192 32510 31942 31373 30919 30464 30123 29895 29668 29668 29554 29668 
30464 30691 31032 31373 31828 32396 32965 33533 34215 34897 35579 36261 36943 37625 38194 38875 39444 39899 40353 40695 40922 41149 41263 41263 41263 41149 40922 40581 40240 39785 39217 38649 38080 37398 36716 36034 35352 34670 33988 33419 32851 32282 31714 31260 30919 30691 30464 30350 30350 30350 
31146 31373 31714 32055 32510 32965 33533 34101 34784 35466 36147 36830 37512 38194 38762 39444 40012 40467 40922 41263 41604 41831 41945 42059 41945 41831 41717 41377 41036 40581 40126 39558 38989 38308 37625 36943 36261 35579 34897 34328 33647 33078 32624 32169 31828 31487 31260 31146 31032 31032 
31942 32055 32396 32624 33078 33533 34101 34670 35352 36034 36603 37284 37966 38649 39331 40012 40581 41036 41490 41945 42286 42514 42627 42740 42740 42627 42399 42173 41831 41490 40922 40467 39899 39217 38535 37853 37171 36489 35807 35238 34556 33988 33533 32965 32624 32282 32055 31828 31828 31828 
32624 32851 33078 33306 33760 34215 34670 35238 35920 36603 37171 37853 38535 39217 39899 40581 41149 41604 42173 42514 42854 43196 43309 43423 43423 43423 43196 42968 42740 42286 41831 41377 40808 40126 39558 38875 38194 37512 36830 36147 35466 34897 34442 33875 33533 33192 32851 32738 32624 32624 
33419 33533 33760 33988 34328 34784 35352 35920 36489 37171 37739 38421 39103 39785 40467 41149 41717 42286 42740 43196 43536 43878 43992 44105 44218 44105 43992 43764 43536 43196 42740 42173 41717 41036 40467 39785 39103 38421 37739 37056 36489 35807 35352 34784 34328 33988 33760 33533 33419 33306 
34215 34328 34442 34784 35010 35466 35920 36489 37056 37739 38421 38989 39671 40353 41036 41717 42286 42854 43423 43764 44218 44560 44787 44901 44901 44901 44787 44673 44332 43992 43650 43082 42627 42059 41377 40695 40126 39444 38762 38080 37398 36830 36261 35693 35238 34897 34556 34328 34215 34101 
34897 35010 35238 35466 35693 36147 36603 37171 37739 38308 38989 39558 40240 40922 41604 42286 42854 43423 43992 44445 44787 45128 45469 45582 45696 45696 45582 45469 45242 44901 44445 43992 43536 42968 42399 41717 41036 40353 39671 38989 38421 37739 37171 36716 36147 35807 35466 35238 35010 34897 
35807 35807 35920 36147 36489 36830 37284 37739 38308 38875 39558 40240 40922 41490 42173 42854 43536 44105 44560 45128 45469 45810 46151 46378 46378 46492 46378 46264 46038 45810 45355 45014 44445 43878 43309 42740 42059 41377 40695 40012 39444 38762 38194 37625 37171 36716 36375 36147 35920 35807 
36603 36603 36716 36943 37171 37512 37966 38421 38989 39558 40126 40808 41490 42173 42740 43423 44105 44673 45242 45696 46151 46492 46833 47060 47173 47288 47173 47060 46947 46606 46264 45924 45469 44901 44332 43650 42968 42399 41717 41036 40353 39785 39103 38649 38080 37625 37284 36943 36716 36603 
37398 37398 37512 37625 37853 38194 38649 39103 39558 40126 40808 41377 42059 42740 43423 43992 44673 45242 45810 46378 46833 47173 47515 47742 47856 47970 47970 47970 47742 47515 47173 46833 46378 45810 45242 44673 43992 43423 42740 42059 41377 40808 40126 39558 39103 38649 38194 37853 37625 37512 
38194 38194 38308 38421 38649 38875 39331 39671 40240 40808 41377 41945 42627 43309 43992 44560 45242 45810 46378 46947 47401 47856 48197 48424 48652 48766 48766 48766 48538 48310 48083 47742 47288 46833 46264 45696 45014 44332 43764 43082 42399 41717 41149 40581 40012 39558 39103 38762 38535 38308 
39103 38989 38989 39103 39331 39671 40012 40353 40808 41377 41945 42514 43196 43878 44560 45128 45810 46378 47060 47515 48083 48538 48879 49106 49334 49448 49561 49561 49448 49220 48993 48652 48197 47742 47173 46606 46038 45355 44673 44105 43423 42740 42173 41490 41036 40467 40126 39671 39444 39217 
39899 39785 39785 39899 40012 40353 40581 41036 41490 41945 42514 43082 43764 44445 45014 45696 46378 46947 47629 48083 48652 49106 49448 49788 50016 50243 50243 50243 50243 50016 49788 49448 49106 48652 48083 47515 46947 46378 45696 45014 44332 43764 43082 42514 41945 41490 41036 40581 40240 40012 
40695 40581 40581 40581 40808 41036 41263 41604 42059 42627 43082 43650 44332 44901 45582 46264 46947 47515 48197 48652 49220 49675 50129 50471 50698 50925 51038 51038 50925 50812 50585 50357 50016 49561 48993 48538 47856 47288 46720 46038 45355 44673 44105 43423 42854 42399 41945 41490 41149 40922 
41490 41377 41263 41377 41490 41604 41945 42286 42627 43196 43650 44218 44787 45469 46151 46833 47401 48083 48652 49220 49788 50243 50698 51038 51380 51607 51721 51721 51721 51607 51380 51152 50812 50357 49903 49448 48879 48197 47629 46947 46264 45696 45014 44332 43764 43309 42740 42399 41945 41717 
42286 42173 42059 42059 42173 42286 42514 42854 43196 43764 44218 44787 45355 45924 46606 47288 47970 48538 49220 49788 50357 50812 51266 51607 51948 52176 52403 52403 52403 52403 52176 51948 51607 51266 50812 50243 49675 49106 48538 47856 47288 46606 45924 45355 44673 44218 43650 43196 42854 42514 
42968 42854 42740 42740 42740 42854 43082 43423 43764 44218 44673 45242 45810 46378 47060 47742 48424 48993 49675 50243 50812 51266 51834 52176 52516 52744 52971 53085 53085 53085 52858 52631 52403 52062 51607 51152 50585 50016 49334 48766 48083 47401 46833 46151 45582 45014 44445 43992 43650 43309 
43764 43536 43423 43309 43309 43423 43650 43992 44218 44673 45128 45696 46264 46833 47515 48083 48766 49448 50016 50698 51266 51721 52290 52631 52971 53313 53540 53653 53653 53653 53540 53313 53085 52744 52403 51834 51380 50812 50243 49561 48879 48310 47629 46947 46378 45810 45242 44787 44332 43992 
44332 44105 43992 43878 43878 43992 44105 44445 44673 45128 45582 46038 46606 47173 47856 48424 49106 49788 50471 51038 51607 52176 52631 53085 53426 53767 53994 54222 54222 54222 54222 53994 53767 53426 53085 52631 52062 51607 50925 50357 49675 48993 48424 47742 47173 46492 46038 45469 45014 44673 
45014 44673 44560 44445 44445 44445 44560 44787 45128 45469 45924 46378 46947 47515 48083 48766 49448 50016 50698 51380 51948 52516 52971 53426 53880 54222 54449 54677 54790 54790 54677 54562 54336 53994 53653 53199 52744 52176 51607 51038 50357 49788 49106 48424 47856 47173 46606 46151 45696 45242 
45469 45242 45014 44901 44787 44901 45014 45242 45469 45810 46264 46720 47173 47742 48424 48993 49675 50357 50925 51607 52176 52744 53313 53767 54222 54562 54790 55018 55131 55245 55131 55018 54904 54562 54222 53880 53313 52858 52290 51721 51038 50357 49788 49106 48424 47856 47288 46720 46264 45810 
45924 45696 45469 45242 45242 45242 45355 45469 45810 46038 46492 46947 47401 47970 48538 49220 49903 50471 51152 51834 52403 52971 53540 53994 54449 54790 55131 55359 55472 55586 55586 55472 55359 55018 54677 54336 53880 53426 52858 52176 51607 50925 50357 49675 48993 48424 47856 47288 46720 46378 
46378 46038 45810 45582 45469 45469 45582 45696 45924 46264 46606 47060 47629 48083 48652 49334 50016 50585 51266 51948 52516 53085 53653 54222 54677 55018 55359 55586 55813 55813 55927 55813 55699 55472 55131 54790 54336 53880 53313 52744 52062 51380 50812 50129 49448 48879 48310 47742 47173 46720 
46720 46378 46038 45810 45696 45696 45810 45924 46151 46378 46720 47173 47629 48197 48766 49334 50016 50585 51266 51948 52516 53199 53767 54222 54677 55131 55472 55813 55927 56041 56155 56041 55927 55699 55472 55131 54677 54222 53653 53085 52516 51834 51152 50471 49903 49220 48652 48083 47515 47060 
46947 46492 46264 46038 45924 45810 45924 46038 46151 46492 46833 47173 47629 48197 48766 49334 50016 50585 51266 51948 52516 53199 53767 54222 54790 55131 55586 55813 56041 56155 56268 56268 56155 55927 55699 55359 54904 54449 53880 53313 52744 52176 51494 50812 50129 49561 48879 48310 47856 47288 
47060 46720 46378 46151 45924 45924 45924 46038 46151 46378 46720 47060 47515 48083 48652 49220 49903 50471 51152 51721 52403 53085 53653 54222 54677 55131 55472 55813 56041 56155 56268 56268 56155 56041 55813 55472 55018 54562 54108 53540 52971 52290 51721 51038 50357 49788 49106 48538 47970 47515 
47060 46720 46378 46151 45924 45810 45810 45924 46038 46264 46606 46947 47401 47856 48424 48993 49675 50243 50925 51607 52176 52858 53426 53994 54449 55018 55359 55699 55927 56155 56268 56268 56155 56041 55813 55472 55131 54677 54222 53653 53085 52403 51834 51152 50471 49788 49220 48652 48083 47515 
47060 46606 46264 46038 45810 45696 45696 45696 45924 46038 46378 46720 47173 47629 48197 48766 49334 50016 50585 51266 51948 52516 53199 53767 54222 54677 55131 55472 55699 55927 56041 56041 56041 55927 55699 55359 55018 54562 54108 53653 52971 52403 51721 51152 50471 49788 49220 48538 47970 47515 
46833 46492 46151 45810 45582 45469 45469 45469 45582 45810 46038 46378 46833 47288 47742 48310 48993 49561 50243 50925 51494 52176 52744 53313 53880 54336 54790 55131 55472 55586 55813 55813 55813 55699 55472 55245 54790 54449 53994 53426 52858 52290 51607 51038 50357 49675 49106 48424 47856 47401 
46606 46151 45810 45582 45355 45128 45128 45128 45242 45355 45696 45924 46378 46833 47288 47856 48538 49106 49788 50357 51038 51721 52290 52858 53426 53880 54336 54677 55018 55245 55359 55472 55472 55359 55131 54904 54562 54108 53653 53199 52631 52062 51380 50812 50129 49448 48879 48197 47629 47060 
46264 45810 45469 45128 44901 44787 44673 44673 44787 44901 45128 45469 45924 46264 46833 47401 47970 48538 49220 49788 50471 51152 51721 52290 52858 53313 53767 54222 54449 54677 54904 54904 54904 54904 54677 54449 54108 53767 53313 52858 52290 51721 51038 50471 49788 49106 48538 47856 47288 46720 
45810 45355 45014 44673 44445 44218 44218 44218 44218 44445 44560 44901 45242 45696 46151 46720 47288 47970 48538 49220 49788 50471 51038 51721 52176 52744 53199 53540 53880 54108 54336 54336 54449 54336 54222 53994 53653 53313 52858 52403 51834 51266 50585 50016 49334 48766 48083 47515 46833 46378 
45242 44787 44445 44105 43878 43650 43536 43536 43650 43764 43992 44218 44560 45014 45469 46038 46606 47173 47856 48424 49106 49675 50357 50925 51494 51948 52403 52858 53199 53426 53540 53653 53767 53653 53540 53313 52971 52631 52290 51721 51266 50698 50016 49448 48766 48197 47515 46947 46264 45810 
44560 44105 43764 43423 43196 42968 42854 42854 42854 42968 43196 43423 43878 44218 44673 45242 45810 46378 46947 47629 48197 48879 49448 50016 50585 51152 51607 51948 52290 52631 52744 52858 52971 52858 52744 52516 52290 51948 51494 51038 50585 50016 49334 48766 48083 47515 46833 46264 45696 45128 
43878 43423 42968 42627 42399 42173 42059 42059 42059 42173 42399 42627 42968 43423 43878 44332 44901 45469 46038 46720 47288 47970 48538 49106 49675 50243 50698 51038 51380 51607 51834 51948 52062 51948 51834 51721 51380 51038 50698 50243 49675 49106 48538 47970 47401 46720 46151 45469 44901 44332 
42968 42514 42173 41831 41490 41377 41263 41149 41149 41263 41490 41717 42059 42399 42854 43423 43878 44445 45128 45696 46378 46947 47515 48083 48652 49220 49675 50016 50357 50698 50812 50925 51038 51038 50925 50698 50471 50129 49788 49334 48766 48310 47742 47060 46492 45810 45242 44673 44105 43536 
42059 41604 41263 40922 40581 40353 40240 40240 40240 40353 40467 40808 41036 41490 41831 42399 42854 43423 43992 44673 45242 45810 46492 47060 47515 48083 48538 48993 49334 49561 49788 49903 50016 49903 49788 49675 49448 49106 48766 48310 47856 47288 46720 46151 45469 44901 44332 43650 43082 42627 
41036 40581 40240 39899 39671 39444 39331 39217 39217 39331 39558 39785 40012 40353 40808 41263 41831 42399 42968 43536 44105 44787 45355 45924 46378 46947 47401 47742 48083 48424 48652 48766 48766 48766 48652 48538 48310 47970 47629 47173 46720 46151 45696 45014 44445 43878 43309 42740 42173 41604 
40012 39558 39217 38875 38535 38308 38194 38194 38194 38308 38421 38649 38989 39331 39671 40126 40695 41149 41717 42286 42968 43536 44105 44673 45242 45696 46151 46492 46833 47173 47401 47515 47515 47515 47401 47288 47060 46720 46378 46038 45582 45014 44445 43878 43309 42740 42173 41604 41036 40467 
38875 38421 38080 37739 37398 37284 37056 37056 37056 37171 37284 37512 37853 38194 38535 38989 39558 40012 40581 41149 41717 42286 42854 43423 43878 44445 44901 45242 45582 45810 46038 46151 46264 46264 46151 46038 45810 45469 45128 44787 44332 43764 43309 42740 42173 41604 41036 40467 39899 39331 
37625 37284 36830 36489 36261 36034 35920 35920 35920 35920 36147 36375 36603 36943 37398 37739 38308 38762 39331 39899 40467 41036 41604 42059 42627 43082 43536 43878 44218 44445 44673 44787 44901 44901 44787 44673 44445 44105 43764 43423 42968 42514 41945 41377 40922 40353 39785 39217 38649 38194 
36489 36034 35693 35352 35125 34897 34784 34670 34670 34784 34897 35125 35466 35807 36147 36603 37056 37512 38080 38535 39103 39671 40240 40695 41263 41717 42173 42514 42854 43082 43309 43423 43423 43423 43423 43196 42968 42740 42399 42059 41604 41149 40581 40126 39558 38989 38421 37966 37398 36943 
35125 34784 34442 34101 33875 33647 33533 33533 33533 33533 33760 33875 34215 34556 34897 35238 35807 36261 36716 37284 37853 38308 38875 39331 39899 40353 40695 41036 41377 41604 41831 41945 41945 41945 41945 41717 41604 41263 40922 40581 40126 39671 39217 38649 38194 37625 37056 36603 36034 35579 
33875 33419 33078 32851 32624 32396 32282 32282 32282 32282 32510 32624 32965 33306 33647 33988 34442 34897 35466 35920 36489 36943 37512 37966 38421 38875 39217 39558 39899 40126 40353 40467 40467 40467 40353 40240 40012 39785 39444 39103 38762 38194 37739 37284 36716 36261 35693 35238 34784 34328 
32510 32169 31828 31600 31373 31146 31032 31032 31032 31146 31260 31487 31714 32055 32396 32738 33192 33647 34101 34556 35125 35579 36147 36603 37056 37398 37853 38194 38421 38649 38875 38875 38989 38989 38875 38762 38535 38308 37966 37625 37171 36830 36375 35807 35352 34897 34328 33875 33419 32965 
31146 30805 30577 30236 30009 29895 29782 29782 29782 29895 30009 30236 30464 30805 31146 31487 31942 32396 32851 33306 33760 34215 34784 35125 35579 36034 36375 36716 36943 37171 37284 37398 37512 37398 37284 37171 36943 36716 36489 36147 35693 35238 34897 34328 33875 33419 32965 32510 32055 31600 
29895 29554 29214 28986 28758 28645 28532 28532 28532 28645 28758 28986 29214 29554 29895 30236 30691 31146 31487 31942 32510 32965 33419 33760 34215 34556 34897 35238 35466 35693 35807 35920 35920 35920 35807 35693 35466 35238 34897 34556 34215 33760 33306 32851 32396 31942 31487 31032 30691 30236 
28532 28190 27963 27735 27508 27395 27395 27395 27395 27508 27622 27849 28077 28304 28645 29100 29441 29895 30236 30691 31146 31600 32055 32396 32851 33192 33533 33760 33988 34215 34328 34328 34442 34328 34215 34101 33875 33647 33419 33078 32738 32282 31828 31487 31032 30577 30123 29668 29327 28872 
27281 26939 26712 26486 26371 26258 26144 26144 26258 26371 26486 26712 26939 27167 27508 27849 28304 28645 29100 29441 29895 30350 30691 31146 31487 31828 32055 32396 32624 32738 32851 32851 32965 32851 32738 32624 32396 32169 31828 31600 31146 30805 30464 30009 29554 29100 28758 28304 27963 27622 
26030 25689 25462 25349 25121 25121 25007 25007 25121 25235 25349 25576 25803 26144 26371 26712 27167 27508 27849 28304 28645 29100 29441 29782 30123 30464 30691 30919 31146 31260 31373 31487 31487 31373 31260 31146 30919 30691 30350 30123 29782 29327 28986 28532 28190 27735 27395 26939 26599 26258 
24780 24553 24325 24098 23984 23984 23984 23984 23984 24098 24325 24553 24780 25007 25349 25689 26030 26371 26712 27167 27508 27849 28304 28532 28872 29214 29441 29668 29782 29895 30009 30009 30009 29895 29782 29668 29441 29214 28986 28645 28304 27963 27508 27167 26826 26371 26030 25689 25349 25007 
23530 23416 23189 23075 22961 22847 22847 22961 22961 23075 23302 23530 23757 23984 24325 24667 25007 25349 25689 26030 26371 26712 27053 27395 27735 27963 28190 28304 28532 28532 28645 28645 28645 28532 28418 28190 28077 27735 27508 27167 26939 26486 26144 25803 25462 25121 24780 24439 24098 23871 
22393 22279 22052 21938 21938 21825 21938 21938 22052 22165 22393 22507 22847 23075 23302 23643 23984 24325 24667 25007 25349 25689 26030 26258 26486 26712 26939 27167 27281 27281 27395 27281 27281 27167 27053 26826 26712 26371 26144 25803 25576 25235 24893 24553 24211 23871 23530 23189 22961 22621 
21369 21143 21029 20915 20915 20915 20915 21029 21143 21256 21483 21711 21938 22165 22507 22734 23075 23416 23757 24098 24439 24667 25007 25235 25462 25689 25803 25917 26030 26144 26144 26030 26030 25917 25689 25576 25349 25121 24780 24553 24211 23871 23643 23302 22961 22621 22279 22052 21825 21597 
20346 20233 20119 20006 20006 20006 20119 20119 20233 20460 20574 20802 21143 21369 21597 21938 22279 22507 22847 23189 23416 23757 23984 24211 24439 24553 24780 24893 24893 24893 24893 24893 24780 24667 24439 24325 24098 23871 23530 23302 22961 22621 22393 22052 21711 21483 21143 20915 20688 20460 
19437 19324 19210 19210 19210 19210 19324 19437 19551 19665 19892 20119 20346 20688 20915 21256 21483 21825 22052 22393 22621 22847 23189 23302 23530 23643 23757 23871 23871 23871 23871 23757 23643 23530 23302 23189 22961 22621 22393 22165 21825 21483 21256 20915 20688 20460 20119 19892 19665 19551 
18528 18414 18414 18414 18414 18528 18528 18755 18869 19097 19210 19437 19779 20006 20233 20574 20802 21143 21369 21597 21938 22165 22393 22507 22621 22734 22847 22961 22961 22847 22847 22734 22621 22507 22279 22052 21825 21597 21369 21029 20802 20460 20233 19892 19665 19437 19210 18982 18755 18641 
17732 17732 17732 17732 17732 17846 17960 18073 18300 18528 18641 18982 19210 19437 19779 20006 20233 20574 20802 21029 21256 21483 21597 21825 21938 22052 22052 22052 22052 22052 21938 21825 21711 21483 21256 21029 20802 20574 20346 20006 19779 19437 19210 18982 18755 18528 18300 18073 17960 17846 
17051 17051 17051 17051 17164 17278 17391 17618 17732 17960 18187 18414 18755 18982 19210 19551 19779 20006 20233 20460 20688 20915 21029 21143 21256 21256 21369 21369 21256 21256 21143 20915 20802 20574 20346 20119 19892 19665 19324 19097 18869 18528 18300 18073 17846 17618 17504 17278 17164 17051 
16369 16369 16482 16482 16595 16823 16937 17164 17391 17618 17846 18073 18300 18641 18869 19097 19437 19665 19892 20006 20233 20346 20574 20574 20688 20688 20688 20688 20574 20460 20346 20233 20006 19779 19551 19324 19097 18755 18528 18300 17960 17732 17504 17278 17051 16937 16709 16595 16482 16482 
15913 15913 16027 16027 16141 16369 16595 16709 16937 17278 17504 17732 18073 18300 18528 18869 19097 19324 19551 19665 19892 20006 20119 20119 20233 20233 20119 20119 20006 19892 19779 19551 19324 19097 18869 18641 18300 18073 17732 17504 17278 16937 16823 16595 16369 16254 16027 16027 15913 15913 
15459 15459 15572 15686 15913 16027 16254 16482 16709 17051 17278 17504 17846 18073 18414 18641 18869 19097 19324 19437 19551 19665 19779 19779 19892 19779 19779 19665 19551 19324 19210 18982 18755 18528 18187 17960 17732 17391 17164 16823 16595 16369 16141 15913 15800 15686 15572 15459 15345 15345 
15004 15118 15232 15459 15572 15800 16027 16254 16595 16823 17164 17391 17732 17960 18300 18528 18755 18982 19097 19324 19437 19551 19551 19551 19551 19551 19437 19324 19097 18982 18755 18528 18300 17960 17732 17391 17164 16823 16595 16254 16027 15800 15572 15459 15232 15118 15004 15004 15004 15004 
14776 14890 15004 15232 15459 15686 15913 16141 16482 16823 17051 17391 17618 17960 18187 18414 18755 18869 19097 19210 19324 19324 19437 19437 19324 19324 19210 18982 18869 18641 18414 18187 17846 17618 17278 16937 16709 16369 16141 15800 15572 15345 15118 15004 14776 14776 14663 14663 14663 14663 
14549 14663 14890 15118 15345 15572 15913 16141 16482 16823 17051 17391 17732 17960 18300 18528 18755 18982 19097 19210 19324 19324 19324 19324 19324 19210 18982 18869 18641 18414 18187 17846 17618 17278 16937 16595 16254 16027 15686 15459 15232 15004 14776 14663 14436 14436 14323 14323 14323 14436 
14436 14549 14776 15004 15232 15572 15913 16254 16482 16823 17164 17504 17846 18073 18414 18641 18869 19097 19210 19324 19437 19437 19437 19324 19210 19097 18982 18755 18528 18300 17960 17618 17391 17051 16709 16369 16027 15686 15459 15118 14890 14663 14436 14323 14208 14208 14095 14095 14208 14323 
14323 14549 14776 15004 15345 15686 16027 16369 16709 17051 17391 17732 18073 18300 18641 18869 19097 19210 19324 19437 19551 19551 19551 19437 19324 19210 18982 18755 18528 18187 17846 17504 17278 16823 16482 16141 15800 15459 15232 14890 14663 14436 14323 14095 14095 13981 13981 13981 14095 14208 
14436 14549 14890 15118 15459 15800 16141 16482 16937 17278 17618 17960 18300 18641 18869 19097 19324 19551 19665 19665 19779 19779 19665 19551 19437 19324 19097 18869 18528 18187 17960 17504 17164 16823 16482 16141 15686 15459 15118 14776 14549 14323 14208 14095 13981 13981 13981 13981 14095 14208 
