P2
25 25
65535
49087 35312 32639 32639 32639 32639 32639 32639 32639 32639 32639 32639 49087 37801 32639 32639 32639 32639 32639 32639 32639 32639 32639 32639 32639 
35312 49087 37300 32639 32639 32639 32639 32639 32639 32639 32639 32639 36845 49087 38864 32639 32639 32639 32639 32639 32639 32639 32639 32639 32639 
29555 35312 49087 37300 32639 32639 32639 32639 32639 32639 32639 32639 32639 35994 49087 40042 32640 32639 32639 32639 32639 32639 32639 32639 32639 
29555 29555 37300 49087 37300 32639 32639 32639 32639 32639 32639 32639 32639 32639 35240 49087 41342 32704 32639 32639 32639 32639 32639 32639 32639 
29555 29555 32639 37300 49087 37300 32639 32639 32639 32639 32639 32639 32639 32639 32639 34579 49087 42772 32874 32639 32639 32639 32639 32639 32639 
29555 29555 32639 32639 37300 49087 37300 32639 32639 32639 32639 32639 32639 32639 32639 32639 34009 47930 44340 33149 32639 32639 32639 32639 32639 
29555 29555 32639 32639 32639 37300 49087 37300 32639 32639 32639 32639 32639 32639 32639 32639 32639 33529 46056 46056 33529 32639 32639 32639 32639 
29555 29555 32639 32639 32639 32639 37300 49087 37300 32639 32639 32639 32639 32639 32639 32639 32639 32639 33149 44340 47930 34009 32639 32639 32639 
29555 29555 32639 32639 32639 32639 32639 37300 49087 37300 32639 32639 32639 32639 32639 32639 32639 32639 32639 32874 42772 49087 34579 32639 32639 
29555 29555 32639 32639 32639 32639 32639 32639 37300 49087 39948 42729 36212 32639 32639 32639 32639 32639 32639 32639 32704 41342 49087 35240 32639 
29555 29555 32639 32639 32639 32639 32639 32639 32639 39948 49087 52863 49087 36212 32639 32639 32639 32639 32639 32639 32639 32640 40042 49087 35994 
29555 29555 32639 32639 32639 32639 32639 32639 32639 42729 52863 62194 52863 42729 32639 32639 32639 32639 32639 32639 32639 32639 32639 38864 49087 
49087 34739 32639 32639 32639 32639 32639 32639 32639 36212 49087 52863 49087 39948 32639 32639 32639 32639 32639 32639 32639 32639 32639 32639 37801 
35939 49087 35994 32639 32639 32639 32639 32639 32639 32639 36212 42729 39948 49087 37300 32639 32639 32639 32639 32639 32639 32639 32639 32639 32639 
29555 37264 49087 35240 32639 32639 32639 32639 32639 32639 32639 32639 32639 37300 49087 37300 32639 32639 32639 32639 32639 32639 32639 32639 32639 
29555 29555 40042 49087 34579 32639 32639 32639 32639 32639 32639 32639 32639 32639 37300 49087 37300 32639 32639 32639 32639 32639 32639 32639 32639 
29555 29555 32640 41342 49087 34009 32639 32639 32639 32639 32639 32639 32639 32639 32639 37300 49087 37300 32639 32639 32639 32639 32639 32639 32639 
29555 29555 32639 32704 42772 47930 33529 32639 32639 32639 32639 32639 32639 32639 32639 32639 37300 49087 37300 32639 32639 32639 32639 32639 32639 
29555 29555 32639 32639 32874 44340 46056 33149 32639 32639 32639 32639 32639 32639 32639 32639 32639 37300 49087 37300 32639 32639 32639 32639 32639 
29555 29555 32639 32639 32639 33149 46056 44340 32874 32639 32639 32639 32639 32639 32639 32639 32639 32639 37300 49087 37300 32639 32639 32639 32639 
29555 29555 32639 32639 32639 32639 33529 47930 42772 32704 32639 32639 32639 32639 32639 32639 32639 32639 32639 37300 49087 37300 32639 32639 32639 
29555 29555 32639 32639 32639 32639 32639 34009 49087 41342 32640 32639 32639 32639 32639 32639 32639 32639 32639 32639 37300 49087 37300 32639 32639 
29555 29555 32639 32639 32639 32639 32639 32639 34579 49087 40042 32639 32639 32639 32639 32639 32639 32639 32639 32639 32639 37300 49087 37300 32639 
29555 29555 32639 32639 32639 32639 32639 32639 32639 35240 49087 38864 32639 32639 32639 32639 32639 32639 32639 32639 32639 32639 37300 49087 37300 
29555 29555 32639 32639 32639 32639 32639 32639 32639 32639 35994 49087 37801 32639 32639 32639 32639 32639 32639 32639 32639 32639 32639 37300 49087 
