P2
50 50
65535
49087 35312 29555 32639 32639 32639 32639 32639 32639 32639 32639 32639 32639 32639 32639 32639 32639 32639 32639 32639 32639 32639 32639 32639 32639 49087 37300 32639 32639 32639 32639 32639 32639 32639 32639 32639 32639 32639 32639 32639 32639 32639 32639 32639 32639 32639 32639 32639 32639 32639 
35312 49087 35312 32639 32639 32639 32639 32639 32639 32639 32639 32639 32639 32639 32639 32639 32639 32639 32639 32639 32639 32639 32639 32639 32639 37300 49087 37300 32639 32639 32639 32639 32639 32639 32639 32639 32639 32639 32639 32639 32639 32639 32639 32639 32639 32639 32639 32639 32639 32639 
29555 35312 49087 37300 32639 32639 32639 32639 32639 32639 32639 32639 32639 32639 32639 32639 32639 32639 32639 32639 32639 32639 32639 32639 32639 32639 37300 49087 37300 32639 32639 32639 32639 32639 32639 32639 32639 32639 32639 32639 32639 32639 32639 32639 32639 32639 32639 32639 32639 32639 
29555 29555 35312 49087 37300 32639 32639 32639 32639 32639 32639 32639 32639 32639 32639 32639 32639 32639 32639 32639 32639 32639 32639 32639 32639 32639 32639 37300 49087 37300 32639 32639 32639 32639 32639 32639 32639 32639 32639 32639 32639 32639 32639 32639 32639 32639 32639 32639 32639 32639 
29555 29555 29555 37300 49087 37300 32639 32639 32639 32639 32639 32639 32639 32639 32639 32639 32639 32639 32639 32639 32639 32639 32639 32639 32639 32639 32639 32639 37300 49087 37300 32639 32639 32639 32639 32639 32639 32639 32639 32639 32639 32639 32639 32639 32639 32639 32639 32639 32639 32639 
29555 29555 29555 32639 37300 49087 37300 32639 32639 32639 32639 32639 32639 32639 32639 32639 32639 32639 32639 32639 32639 32639 32639 32639 32639 32639 32639 32639 32639 37300 49087 37300 32639 32639 32639 32639 32639 32639 32639 32639 32639 32639 32639 32639 32639 32639 32639 32639 32639 32639 
29555 29555 29555 32639 32639 37300 49087 37300 32639 32639 32639 32639 32639 32639 32639 32639 32639 32639 32639 32639 32639 32639 32639 32639 32639 32639 32639 32639 32639 32639 37300 49087 37300 32639 32639 32639 32639 32639 32639 32639 32639 32639 32639 32639 32639 32639 32639 32639 32639 32639 
29555 29555 29555 32639 32639 32639 37300 49087 37300 32639 32639 32639 32639 32639 32639 32639 32639 32639 32639 32639 32639 32639 32639 32639 32639 32639 32639 32639 32639 32639 32639 37300 49087 37300 32639 32639 32639 32639 32639 32639 32639 32639 32639 32639 32639 32639 32639 32639 32639 32639 
29555 29555 29555 32639 32639 32639 32639 37300 49087 37300 32639 32639 32639 32639 32639 32639 32639 32639 32639 32639 32639 32639 32639 32639 32639 32639 32639 32639 32639 32639 32639 32639 37300 49087 37300 32639 32639 32639 32639 32639 32639 32639 32639 32639 32639 32639 32639 32639 32639 32639 
29555 29555 29555 32639 32639 32639 32639 32639 37300 49087 37300 32639 32639 32639 32639 32639 32639 32639 32639 32639 32639 32639 32639 32639 32639 32639 32639 32639 32639 32639 32639 32639 32639 37300 49087 37300 32639 32639 32639 32639 32639 32639 32639 32639 32639 32639 32639 32639 32639 32639 
29555 29555 29555 32639 32639 32639 32639 32639 32639 37300 49087 37300 32639 32639 32639 32639 32639 32639 32639 32639 32639 32639 32639 32639 32639 32639 32639 32639 32639 32639 32639 32639 32639 32639 37300 49087 37300 32639 32639 32639 32639 32639 32639 32639 32639 32639 32639 32639 32639 32639 
29555 29555 29555 32639 32639 32639 32639 32639 32639 32639 37300 49087 37300 32639 32639 32639 32639 32639 32639 32639 32639 32639 32639 32639 32639 32639 32639 32639 32639 32639 32639 32639 32639 32639 32639 37300 49087 37300 32639 32639 32639 32639 32639 32639 32639 32639 32639 32639 32639 32639 
29555 29555 29555 32639 32639 32639 32639 32639 32639 32639 32639 37300 49087 37300 32639 32639 32639 32639 32639 32639 32639 32639 32639 32639 32639 32639 32639 32639 32639 32639 32639 32639 32639 32639 32639 32639 37300 49087 37300 32639 32639 32639 32639 32639 32639 32639 32639 32639 32639 32639 
29555 29555 29555 32639 32639 32639 32639 32639 32639 32639 32639 32639 37300 49087 37300 32639 32639 32639 32639 32639 32639 32639 32639 32639 32639 32639 32639 32639 32639 32639 32639 32639 32639 32639 32639 32639 32639 37300 49087 37300 32639 32639 32639 32639 32639 32639 32639 32639 32639 32639 
29555 29555 29555 32639 32639 32639 32639 32639 32639 32639 32639 32639 32639 37300 49087 37300 32639 32639 32639 32639 32639 32639 32639 32639 32639 32639 32639 32639 32639 32639 32639 32639 32639 32639 32639 32639 32639 32639 37300 49087 37300 32639 32639 32639 32639 32639 32639 32639 32639 32639 
29555 29555 29555 32639 32639 32639 32639 32639 32639 32639 32639 32639 32639 32639 37300 49087 37300 32639 32639 32639 32639 32639 32639 32639 32639 32639 32639 32639 32639 32639 32639 32639 32639 32639 32639 32639 32639 32639 32639 37300 49087 37300 32639 32639 32639 32639 32639 32639 32639 32639 
29555 29555 29555 32639 32639 32639 32639 32639 32639 32639 32639 32639 32639 32639 32639 37300 49087 37300 32639 32639 32639 32639 32639 32639 32639 32639 32639 32639 32639 32639 32639 32639 32639 32639 32639 32639 32639 32639 32639 32639 37300 49087 37300 32639 32639 32639 32639 32639 32639 32639 
29555 29555 29555 32639 32639 32639 32639 32639 32639 32639 32639 32639 32639 32639 32639 32639 37300 49087 37300 32639 32639 32639 32639 32639 32639 32639 32639 32639 32639 32639 32639 32639 32639 32639 32639 32639 32639 32639 32639 32639 32639 37300 49087 37300 32639 32639 32639 32639 32639 32639 
29555 29555 29555 32639 32639 32639 32639 32639 32639 32639 32639 32639 32639 32639 32639 32639 32639 37300 49087 37300 32639 32639 32639 32639 32639 32639 32639 32639 32639 32639 32639 32639 32639 32639 32639 32639 32639 32639 32639 32639 32639 32639 37300 49087 37300 32639 32639 32639 32639 32639 
29555 29555 29555 32639 32639 32639 32639 32639 32639 32639 32639 32639 32639 32639 32639 32639 32639 32639 37300 49087 37300 32639 32639 32639 32639 32639 32639 32639 32639 32639 32639 32639 32639 32639 32639 32639 32639 32639 32639 32639 32639 32639 32639 37300 49087 37300 32639 32639 32639 32639 
29555 29555 29555 32639 32639 32639 32639 32639 32639 32639 32639 32639 32639 32639 32639 32639 32639 32639 32639 37300 49087 39948 48131 49087 48131 36212 32639 32639 32639 32639 32639 32639 32639 32639 32639 32639 32639 32639 32639 32639 32639 32639 32639 32639 37300 49087 37300 32639 32639 32639 
29555 29555 29555 32639 32639 32639 32639 32639 32639 32639 32639 32639 32639 32639 32639 32639 32639 32639 32639 32639 39948 49087 55873 59685 55873 49087 36212 32639 32639 32639 32639 32639 32639 32639 32639 32639 32639 32639 32639 32639 32639 32639 32639 32639 32639 37300 49087 37300 32639 32639 
29555 29555 29555 32639 32639 32639 32639 32639 32639 32639 32639 32639 32639 32639 32639 32639 32639 32639 32639 32639 48131 55873 62194 62194 62194 55873 48131 32639 32639 32639 32639 32639 32639 32639 32639 32639 32639 32639 32639 32639 32639 32639 32639 32639 32639 32639 37300 49087 37300 32639 
29555 29555 29555 32639 32639 32639 32639 32639 32639 32639 32639 32639 32639 32639 32639 32639 32639 32639 32639 32639 49087 59685 62194 62194 62194 59685 49087 32639 32639 32639 32639 32639 32639 32639 32639 32639 32639 32639 32639 32639 32639 32639 32639 32639 32639 32639 32639 37300 49087 37300 
29555 29555 29555 32639 32639 32639 32639 32639 32639 32639 32639 32639 32639 32639 32639 32639 32639 32639 32639 32639 48131 55873 62194 62194 62194 55873 48131 32639 32639 32639 32639 32639 32639 32639 32639 32639 32639 32639 32639 32639 32639 32639 32639 32639 32639 32639 32639 32639 37300 49087 
49087 35312 29555 32639 32639 32639 32639 32639 32639 32639 32639 32639 32639 32639 32639 32639 32639 32639 32639 32639 36212 49087 55873 59685 55873 49087 39948 32639 32639 32639 32639 32639 32639 32639 32639 32639 32639 32639 32639 32639 32639 32639 32639 32639 32639 32639 32639 32639 32639 37300 
35312 49087 35312 32639 32639 32639 32639 32639 32639 32639 32639 32639 32639 32639 32639 32639 32639 32639 32639 32639 32639 36212 48131 49087 48131 39948 49087 37300 32639 32639 32639 32639 32639 32639 32639 32639 32639 32639 32639 32639 32639 32639 32639 32639 32639 32639 32639 32639 32639 32639 
29555 35312 49087 37300 32639 32639 32639 32639 32639 32639 32639 32639 32639 32639 32639 32639 32639 32639 32639 32639 32639 32639 32639 32639 32639 32639 37300 49087 37300 32639 32639 32639 32639 32639 32639 32639 32639 32639 32639 32639 32639 32639 32639 32639 32639 32639 32639 32639 32639 32639 
29555 29555 35312 49087 37300 32639 32639 32639 32639 32639 32639 32639 32639 32639 32639 32639 32639 32639 32639 32639 32639 32639 32639 32639 32639 32639 32639 37300 49087 37300 32639 32639 32639 32639 32639 32639 32639 32639 32639 32639 32639 32639 32639 32639 32639 32639 32639 32639 32639 32639 
29555 29555 29555 37300 49087 37300 32639 32639 32639 32639 32639 32639 32639 32639 32639 32639 32639 32639 32639 32639 32639 32639 32639 32639 32639 32639 32639 32639 37300 49087 37300 32639 32639 32639 32639 32639 32639 32639 32639 32639 32639 32639 32639 32639 32639 32639 32639 32639 32639 32639 
29555 29555 29555 32639 37300 49087 37300 32639 32639 32639 32639 32639 32639 32639 32639 32639 32639 32639 32639 32639 32639 32639 32639 32639 32639 32639 32639 32639 32639 37300 49087 37300 32639 32639 32639 32639 32639 32639 32639 32639 32639 32639 32639 32639 32639 32639 32639 32639 32639 32639 
29555 29555 29555 32639 32639 37300 49087 37300 32639 32639 32639 32639 32639 32639 32639 32639 32639 32639 32639 32639 32639 32639 32639 32639 32639 32639 32639 32639 32639 32639 37300 49087 37300 32639 32639 32639 32639 32639 32639 32639 32639 32639 32639 32639 32639 32639 32639 32639 32639 32639 
29555 29555 29555 32639 32639 32639 37300 49087 37300 32639 32639 32639 32639 32639 32639 32639 32639 32639 32639 32639 32639 32639 32639 32639 32639 32639 32639 32639 32639 32639 32639 37300 49087 37300 32639 32639 32639 32639 32639 32639 32639 32639 32639 32639 32639 32639 32639 32639 32639 32639 
29555 29555 29555 32639 32639 32639 32639 37300 49087 37300 32639 32639 32639 32639 32639 32639 32639 32639 32639 32639 32639 32639 32639 32639 32639 32639 32639 32639 32639 32639 32639 32639 37300 49087 37300 32639 32639 32639 32639 32639 32639 32639 32639 32639 32639 32639 32639 32639 32639 32639 
29555 29555 29555 32639 32639 32639 32639 32639 37300 49087 37300 32639 32639 32639 32639 32639 32639 32639 32639 32639 32639 32639 32639 32639 32639 32639 32639 32639 32639 32639 32639 32639 32639 37300 49087 37300 32639 32639 32639 32639 32639 32639 32639 32639 32639 32639 32639 32639 32639 32639 
29555 29555 29555 32639 32639 32639 32639 32639 32639 37300 49087 37300 32639 32639 32639 32639 32639 32639 32639 32639 32639 32639 32639 32639 32639 32639 32639 32639 32639 32639 32639 32639 32639 32639 37300 49087 37300 32639 32639 32639 32639 32639 32639 32639 32639 32639 32639 32639 32639 32639 
29555 29555 29555 32639 32639 32639 32639 32639 32639 32639 37300 49087 37300 32639 32639 32639 32639 32639 32639 32639 32639 32639 32639 32639 32639 32639 32639 32639 32639 32639 32639 32639 32639 32639 32639 37300 49087 37300 32639 32639 32639 32639 32639 32639 32639 32639 32639 32639 32639 32639 
29555 29555 29555 32639 32639 32639 32639 32639 32639 32639 32639 37300 49087 37300 32639 32639 32639 32639 32639 32639 32639 32639 32639 32639 32639 32639 32639 32639 32639 32639 32639 32639 32639 32639 32639 32639 37300 49087 37300 32639 32639 32639 32639 32639 32639 32639 32639 32639 32639 32639 
29555 29555 29555 32639 32639 32639 32639 32639 32639 32639 32639 32639 37300 49087 37300 32639 32639 32639 32639 32639 32639 32639 32639 32639 32639 32639 32639 32639 32639 32639 32639 32639 32639 32639 32639 32639 32639 37300 49087 37300 32639 32639 32639 32639 32639 32639 32639 32639 32639 32639 
29555 29555 29555 32639 32639 32639 32639 32639 32639 32639 32639 32639 32639 37300 49087 37300 32639 32639 32639 32639 32639 32639 32639 32639 32639 32639 32639 32639 32639 32639 32639 32639 32639 32639 32639 32639 32639 32639 37300 49087 37300 32639 32639 32639 32639 32639 32639 32639 32639 32639 
29555 29555 29555 32639 32639 32639 32639 32639 32639 32639 32639 32639 32639 32639 37300 49087 37300 32639 32639 32639 32639 32639 32639 32639 32639 32639 32639 32639 32639 32639 32639 32639 32639 32639 32639 32639 32639 32639 32639 37300 49087 37300 32639 32639 32639 32639 32639 32639 32639 32639 
29555 29555 29555 32639 32639 32639 32639 32639 32639 32639 32639 32639 32639 32639 32639 37300 49087 37300 32639 32639 32639 32639 32639 32639 32639 32639 32639 32639 32639 32639 32639 32639 32639 32639 32639 32639 32639 32639 32639 32639 37300 49087 37300 32639 32639 32639 32639 32639 32639 32639 
29555 29555 29555 32639 32639 32639 32639 32639 32639 32639 32639 32639 32639 32639 32639 32639 37300 49087 37300 32639 32639 32639 32639 32639 32639 32639 32639 32639 32639 32639 32639 32639 32639 32639 32639 32639 32639 32639 32639 32639 32639 37300 49087 37300 32639 32639 32639 32639 32639 32639 
29555 29555 29555 32639 32639 32639 32639 32639 32639 32639 32639 32639 32639 32639 32639 32639 32639 37300 49087 37300 32639 32639 32639 32639 32639 32639 32639 32639 32639 32639 32639 32639 32639 32639 32639 32639 32639 32639 32639 32639 32639 32639 37300 49087 37300 32639 32639 32639 32639 32639 
29555 29555 29555 32639 32639 32639 32639 32639 32639 32639 32639 32639 32639 32639 32639 32639 32639 32639 37300 49087 37300 32639 32639 32639 32639 32639 32639 32639 32639 32639 32639 32639 32639 32639 32639 32639 32639 32639 32639 32639 32639 32639 32639 37300 49087 37300 32639 32639 32639 32639 
29555 29555 29555 32639 32639 32639 32639 32639 32639 32639 32639 32639 32639 32639 32639 32639 32639 32639 32639 37300 49087 37300 32639 32639 32639 32639 32639 32639 32639 32639 32639 32639 32639 32639 32639 32639 32639 32639 32639 32639 32639 32639 32639 32639 37300 49087 37300 32639 32639 32639 
29555 29555 29555 32639 32639 32639 32639 32639 32639 32639 32639 32639 32639 32639 32639 32639 32639 32639 32639 32639 37300 49087 37300 32639 32639 32639 32639 32639 32639 32639 32639 32639 32639 32639 32639 32639 32639 32639 32639 32639 32639 32639 32639 32639 32639 37300 49087 37300 32639 32639 
29555 29555 29555 32639 32639 32639 32639 32639 32639 32639 32639 32639 32639 32639 32639 32639 32639 32639 32639 32639 32639 37300 49087 37300 32639 32639 32639 32639 32639 32639 32639 32639 32639 32639 32639 32639 32639 32639 32639 32639 32639 32639 32639 32639 32639 32639 37300 49087 37300 32639 
29555 29555 29555 32639 32639 32639 32639 32639 32639 32639 32639 32639 32639 32639 32639 32639 32639 32639 32639 32639 32639 32639 37300 49087 37300 32639 32639 32639 32639 32639 32639 32639 32639 32639 32639 32639 32639 32639 32639 32639 32639 32639 32639 32639 32639 32639 32639 37300 49087 37300 
29555 29555 29555 32639 32639 32639 32639 32639 32639 32639 32639 32639 32639 32639 32639 32639 32639 32639 32639 32639 32639 32639 32639 37300 49087 37300 32639 32639 32639 32639 32639 32639 32639 32639 32639 32639 32639 32639 32639 32639 32639 32639 32639 32639 32639 32639 32639 32639 37300 49087 
