P2
100 50
65535
49087 42143 32024 29555 29555 29555 32639 32639 32639 32639 32639 32639 32639 32639 32639 32639 32639 32639 32639 32639 32639 32639 32639 32639 32639 32639 32639 32639 32639 32639 32639 32639 32639 32639 32639 32639 32639 32639 32639 32639 32639 32639 32639 32639 32639 32639 32639 32639 32639 32639 49087 42904 34689 32639 32639 32639 32639 32639 32639 32639 32639 32639 32639 32639 32639 32639 32639 32639 32639 32639 32639 32639 32639 32639 32639 32639 32639 32639 32639 32639 32639 32639 32639 32639 32639 32639 32639 32639 32639 32639 32639 32639 32639 32639 32639 32639 32639 32639 32639 32639 
32024 42143 49087 42143 32024 29555 32639 32639 32639 32639 32639 32639 32639 32639 32639 32639 32639 32639 32639 32639 32639 32639 32639 32639 32639 32639 32639 32639 32639 32639 32639 32639 32639 32639 32639 32639 32639 32639 32639 32639 32639 32639 32639 32639 32639 32639 32639 32639 32639 32639 34689 42904 49087 42904 34689 32639 32639 32639 32639 32639 32639 32639 32639 32639 32639 32639 32639 32639 32639 32639 32639 32639 32639 32639 32639 32639 32639 32639 32639 32639 32639 32639 32639 32639 32639 32639 32639 32639 32639 32639 32639 32639 32639 32639 32639 32639 32639 32639 32639 32639 
29555 29555 32024 42143 49087 42143 34689 32639 32639 32639 32639 32639 32639 32639 32639 32639 32639 32639 32639 32639 32639 32639 32639 32639 32639 32639 32639 32639 32639 32639 32639 32639 32639 32639 32639 32639 32639 32639 32639 32639 32639 32639 32639 32639 32639 32639 32639 32639 32639 32639 32639 32639 34689 42904 49087 42904 34689 32639 32639 32639 32639 32639 32639 32639 32639 32639 32639 32639 32639 32639 32639 32639 32639 32639 32639 32639 32639 32639 32639 32639 32639 32639 32639 32639 32639 32639 32639 32639 32639 32639 32639 32639 32639 32639 32639 32639 32639 32639 32639 32639 
29555 29555 29555 29555 32024 42143 49087 42904 34689 32639 32639 32639 32639 32639 32639 32639 32639 32639 32639 32639 32639 32639 32639 32639 32639 32639 32639 32639 32639 32639 32639 32639 32639 32639 32639 32639 32639 32639 32639 32639 32639 32639 32639 32639 32639 32639 32639 32639 32639 32639 32639 32639 32639 32639 34689 42904 49087 42904 34689 32639 32639 32639 32639 32639 32639 32639 32639 32639 32639 32639 32639 32639 32639 32639 32639 32639 32639 32639 32639 32639 32639 32639 32639 32639 32639 32639 32639 32639 32639 32639 32639 32639 32639 32639 32639 32639 32639 32639 32639 32639 
29555 29555 29555 29555 29555 29555 34689 42904 49087 42904 34689 32639 32639 32639 32639 32639 32639 32639 32639 32639 32639 32639 32639 32639 32639 32639 32639 32639 32639 32639 32639 32639 32639 32639 32639 32639 32639 32639 32639 32639 32639 32639 32639 32639 32639 32639 32639 32639 32639 32639 32639 32639 32639 32639 32639 32639 34689 42904 49087 42904 34689 32639 32639 32639 32639 32639 32639 32639 32639 32639 32639 32639 32639 32639 32639 32639 32639 32639 32639 32639 32639 32639 32639 32639 32639 32639 32639 32639 32639 32639 32639 32639 32639 32639 32639 32639 32639 32639 32639 32639 
29555 29555 29555 29555 29555 29555 32639 32639 34689 42904 49087 42904 34689 32639 32639 32639 32639 32639 32639 32639 32639 32639 32639 32639 32639 32639 32639 32639 32639 32639 32639 32639 32639 32639 32639 32639 32639 32639 32639 32639 32639 32639 32639 32639 32639 32639 32639 32639 32639 32639 32639 32639 32639 32639 32639 32639 32639 32639 34689 42904 49087 42904 34689 32639 32639 32639 32639 32639 32639 32639 32639 32639 32639 32639 32639 32639 32639 32639 32639 32639 32639 32639 32639 32639 32639 32639 32639 32639 32639 32639 32639 32639 32639 32639 32639 32639 32639 32639 32639 32639 
29555 29555 29555 29555 29555 29555 32639 32639 32639 32639 34689 42904 49087 42904 34689 32639 32639 32639 32639 32639 32639 32639 32639 32639 32639 32639 32639 32639 32639 32639 32639 32639 32639 32639 32639 32639 32639 32639 32639 32639 32639 32639 32639 32639 32639 32639 32639 32639 32639 32639 32639 32639 32639 32639 32639 32639 32639 32639 32639 32639 34689 42904 49087 42904 34689 32639 32639 32639 32639 32639 32639 32639 32639 32639 32639 32639 32639 32639 32639 32639 32639 32639 32639 32639 32639 32639 32639 32639 32639 32639 32639 32639 32639 32639 32639 32639 32639 32639 32639 32639 
29555 29555 29555 29555 29555 29555 32639 32639 32639 32639 32639 32639 34689 42904 49087 42904 34689 32639 32639 32639 32639 32639 32639 32639 32639 32639 32639 32639 32639 32639 32639 32639 32639 32639 32639 32639 32639 32639 32639 32639 32639 32639 32639 32639 32639 32639 32639 32639 32639 32639 32639 32639 32639 32639 32639 32639 32639 32639 32639 32639 32639 32639 34689 42904 49087 42904 34689 32639 32639 32639 32639 32639 32639 32639 32639 32639 32639 32639 32639 32639 32639 32639 32639 32639 32639 32639 32639 32639 32639 32639 32639 32639 32639 32639 32639 32639 32639 32639 32639 32639 
29555 29555 29555 29555 29555 29555 32639 32639 32639 32639 32639 32639 32639 32639 34689 42904 49087 42904 34689 32639 32639 32639 32639 32639 32639 32639 32639 32639 32639 32639 32639 32639 32639 32639 32639 32639 32639 32639 32639 32639 32639 32639 32639 32639 32639 32639 32639 32639 32639 32639 32639 32639 32639 32639 32639 32639 32639 32639 32639 32639 32639 32639 32639 32639 34689 42904 49087 42904 34689 32639 32639 32639 32639 32639 32639 32639 32639 32639 32639 32639 32639 32639 32639 32639 32639 32639 32639 32639 32639 32639 32639 32639 32639 32639 32639 32639 32639 32639 32639 32639 
29555 29555 29555 29555 29555 29555 32639 32639 32639 32639 32639 32639 32639 32639 32639 32639 34689 42904 49087 42904 34689 32639 32639 32639 32639 32639 32639 32639 32639 32639 32639 32639 32639 32639 32639 32639 32639 32639 32639 32639 32639 32639 32639 32639 32639 32639 32639 32639 32639 32639 32639 32639 32639 32639 32639 32639 32639 32639 32639 32639 32639 32639 32639 32639 32639 32639 34689 42904 49087 42904 34689 32639 32639 32639 32639 32639 32639 32639 32639 32639 32639 32639 32639 32639 32639 32639 32639 32639 32639 32639 32639 32639 32639 32639 32639 32639 32639 32639 32639 32639 
29555 29555 29555 29555 29555 29555 32639 32639 32639 32639 32639 32639 32639 32639 32639 32639 32639 32639 34689 42904 49087 42904 34689 32639 32639 32639 32639 32639 32639 32639 32639 32639 32639 32639 32639 32639 32639 32639 32639 32639 32639 32639 32639 32639 32639 32639 32639 32639 32639 32639 32639 32639 32639 32639 32639 32639 32639 32639 32639 32639 32639 32639 32639 32639 32639 32639 32639 32639 34689 42904 49087 42904 34689 32639 32639 32639 32639 32639 32639 32639 32639 32639 32639 32639 32639 32639 32639 32639 32639 32639 32639 32639 32639 32639 32639 32639 32639 32639 32639 32639 
29555 29555 29555 29555 29555 29555 32639 32639 32639 32639 32639 32639 32639 32639 32639 32639 32639 32639 32639 32639 34689 42904 49087 42904 34689 32639 32639 32639 32639 32639 32639 32639 32639 32639 32639 32639 32639 32639 32639 32639 32639 32639 32639 32639 32639 32639 32639 32639 32639 32639 32639 32639 32639 32639 32639 32639 32639 32639 32639 32639 32639 32639 32639 32639 32639 32639 32639 32639 32639 32639 34689 42904 49087 42904 34689 32639 32639 32639 32639 32639 32639 32639 32639 32639 32639 32639 32639 32639 32639 32639 32639 32639 32639 32639 32639 32639 32639 32639 32639 32639 
29555 29555 29555 29555 29555 29555 32639 32639 32639 32639 32639 32639 32639 32639 32639 32639 32639 32639 32639 32639 32639 32639 34689 42904 49087 42904 34689 32639 32639 32639 32639 32639 32639 32639 32639 32639 32639 32639 32639 32639 32639 32639 32639 32639 32639 32639 32639 32639 32639 32639 32639 32639 32639 32639 32639 32639 32639 32639 32639 32639 32639 32639 32639 32639 32639 32639 32639 32639 32639 32639 32639 32639 34689 42904 49087 42904 34689 32639 32639 32639 32639 32639 32639 32639 32639 32639 32639 32639 32639 32639 32639 32639 32639 32639 32639 32639 32639 32639 32639 32639 
29555 29555 29555 29555 29555 29555 32639 32639 32639 32639 32639 32639 32639 32639 32639 32639 32639 32639 32639 32639 32639 32639 32639 32639 34689 42904 49087 42904 34689 32639 32639 32639 32639 32639 32639 32639 32639 32639 32639 32639 32639 32639 32639 32639 32639 32639 32639 32639 32639 32639 32639 32639 32639 32639 32639 32639 32639 32639 32639 32639 32639 32639 32639 32639 32639 32639 32639 32639 32639 32639 32639 32639 32639 32639 34689 42904 49087 42904 34689 32639 32639 32639 32639 32639 32639 32639 32639 32639 32639 32639 32639 32639 32639 32639 32639 32639 32639 32639 32639 32639 
29555 29555 29555 29555 29555 29555 32639 32639 32639 32639 32639 32639 32639 32639 32639 32639 32639 32639 32639 32639 32639 32639 32639 32639 32639 32639 34689 42904 49087 42904 34689 32639 32639 32639 32639 32639 32639 32639 32639 32639 32639 32639 32639 32639 32639 32639 32639 32639 32639 32639 32639 32639 32639 32639 32639 32639 32639 32639 32639 32639 32639 32639 32639 32639 32639 32639 32639 32639 32639 32639 32639 32639 32639 32639 32639 32639 34689 42904 49087 42904 34689 32639 32639 32639 32639 32639 32639 32639 32639 32639 32639 32639 32639 32639 32639 32639 32639 32639 32639 32639 
29555 29555 29555 29555 29555 29555 32639 32639 32639 32639 32639 32639 32639 32639 32639 32639 32639 32639 32639 32639 32639 32639 32639 32639 32639 32639 32639 32639 34689 42904 49087 42904 34689 32639 32639 32639 32639 32639 32639 32639 32639 32639 32639 32639 32639 32639 32639 32639 32639 32639 32639 32639 32639 32639 32639 32639 32639 32639 32639 32639 32639 32639 32639 32639 32639 32639 32639 32639 32639 32639 32639 32639 32639 32639 32639 32639 32639 32639 34689 42904 49087 42904 34689 32639 32639 32639 32639 32639 32639 32639 32639 32639 32639 32639 32639 32639 32639 32639 32639 32639 
29555 29555 29555 29555 29555 29555 32639 32639 32639 32639 32639 32639 32639 32639 32639 32639 32639 32639 32639 32639 32639 32639 32639 32639 32639 32639 32639 32639 32639 32639 34689 42904 49087 42904 34689 32639 32639 32639 32639 32639 32639 32639 32639 32639 32639 32639 32639 32639 32639 32639 32639 32639 32639 32639 32639 32639 32639 32639 32639 32639 32639 32639 32639 32639 32639 32639 32639 32639 32639 32639 32639 32639 32639 32639 32639 32639 32639 32639 32639 32639 34689 42904 49087 42904 34689 32639 32639 32639 32639 32639 32639 32639 32639 32639 32639 32639 32639 32639 32639 32639 
29555 29555 29555 29555 29555 29555 32639 32639 32639 32639 32639 32639 32639 32639 32639 32639 32639 32639 32639 32639 32639 32639 32639 32639 32639 32639 32639 32639 32639 32639 32639 32639 34689 42904 49087 42904 34689 32639 32639 32639 32639 32639 32639 34062 38904 41266 39058 34237 32639 32639 32639 32639 32639 32639 32639 32639 32639 32639 32639 32639 32639 32639 32639 32639 32639 32639 32639 32639 32639 32639 32639 32639 32639 32639 32639 32639 32639 32639 32639 32639 32639 32639 34689 42904 49087 42904 34689 32639 32639 32639 32639 32639 32639 32639 32639 32639 32639 32639 32639 32639 
29555 29555 29555 29555 29555 29555 32639 32639 32639 32639 32639 32639 32639 32639 32639 32639 32639 32639 32639 32639 32639 32639 32639 32639 32639 32639 32639 32639 32639 32639 32639 32639 32639 32639 34689 42904 49087 42904 34689 32639 32639 33402 45925 49087 49503 51888 49432 49087 46035 33524 32639 32639 32639 32639 32639 32639 32639 32639 32639 32639 32639 32639 32639 32639 32639 32639 32639 32639 32639 32639 32639 32639 32639 32639 32639 32639 32639 32639 32639 32639 32639 32639 32639 32639 34689 42904 49087 42904 34689 32639 32639 32639 32639 32639 32639 32639 32639 32639 32639 32639 
29555 29555 29555 29555 29555 29555 32639 32639 32639 32639 32639 32639 32639 32639 32639 32639 32639 32639 32639 32639 32639 32639 32639 32639 32639 32639 32639 32639 32639 32639 32639 32639 32639 32639 32639 32639 34689 42904 49087 42904 35319 49007 52195 60597 62194 62194 62194 60594 52092 48941 33425 32639 32639 32639 32639 32639 32639 32639 32639 32639 32639 32639 32639 32639 32639 32639 32639 32639 32639 32639 32639 32639 32639 32639 32639 32639 32639 32639 32639 32639 32639 32639 32639 32639 32639 32639 34689 42904 49087 42904 34689 32639 32639 32639 32639 32639 32639 32639 32639 32639 
29555 29555 29555 29555 29555 29555 32639 32639 32639 32639 32639 32639 32639 32639 32639 32639 32639 32639 32639 32639 32639 32639 32639 32639 32639 32639 32639 32639 32639 32639 32639 32639 32639 32639 32639 32639 32639 32639 34689 42904 50522 51885 62000 62194 62194 62194 62194 62194 61973 51891 46366 32639 32639 32639 32639 32639 32639 32639 32639 32639 32639 32639 32639 32639 32639 32639 32639 32639 32639 32639 32639 32639 32639 32639 32639 32639 32639 32639 32639 32639 32639 32639 32639 32639 32639 32639 32639 32639 34689 42904 49087 42904 34689 32639 32639 32639 32639 32639 32639 32639 
29555 29555 29555 29555 29555 29555 32639 32639 32639 32639 32639 32639 32639 32639 32639 32639 32639 32639 32639 32639 32639 32639 32639 32639 32639 32639 32639 32639 32639 32639 32639 32639 32639 32639 32639 32639 32639 32639 32639 34064 49087 60499 62194 62194 62194 62194 62194 62194 62194 60513 49087 34245 32639 32639 32639 32639 32639 32639 32639 32639 32639 32639 32639 32639 32639 32639 32639 32639 32639 32639 32639 32639 32639 32639 32639 32639 32639 32639 32639 32639 32639 32639 32639 32639 32639 32639 32639 32639 32639 32639 34689 42904 49087 42904 34689 32639 32639 32639 32639 32639 
29555 29555 29555 29555 29555 29555 32639 32639 32639 32639 32639 32639 32639 32639 32639 32639 32639 32639 32639 32639 32639 32639 32639 32639 32639 32639 32639 32639 32639 32639 32639 32639 32639 32639 32639 32639 32639 32639 32639 39172 49945 62193 62194 62194 62194 62194 62194 62194 62194 62192 49593 39473 32639 32639 32639 32639 32639 32639 32639 32639 32639 32639 32639 32639 32639 32639 32639 32639 32639 32639 32639 32639 32639 32639 32639 32639 32639 32639 32639 32639 32639 32639 32639 32639 32639 32639 32639 32639 32639 32639 32639 32639 34689 42904 49087 42904 34689 32639 32639 32639 
29555 29555 29555 29555 29555 29555 32639 32639 32639 32639 32639 32639 32639 32639 32639 32639 32639 32639 32639 32639 32639 32639 32639 32639 32639 32639 32639 32639 32639 32639 32639 32639 32639 32639 32639 32639 32639 32639 32639 41742 52205 62194 62194 62194 62194 62194 62194 62194 62194 62194 52353 41891 32639 32639 32639 32639 32639 32639 32639 32639 32639 32639 32639 32639 32639 32639 32639 32639 32639 32639 32639 32639 32639 32639 32639 32639 32639 32639 32639 32639 32639 32639 32639 32639 32639 32639 32639 32639 32639 32639 32639 32639 32639 32639 34689 42904 49087 42904 34689 32639 
29555 29555 29555 29555 29555 29555 32639 32639 32639 32639 32639 32639 32639 32639 32639 32639 32639 32639 32639 32639 32639 32639 32639 32639 32639 32639 32639 32639 32639 32639 32639 32639 32639 32639 32639 32639 32639 32639 32639 39518 49709 62193 62194 62194 62194 62194 62194 62194 62194 62193 49855 39335 32639 32639 32639 32639 32639 32639 32639 32639 32639 32639 32639 32639 32639 32639 32639 32639 32639 32639 32639 32639 32639 32639 32639 32639 32639 32639 32639 32639 32639 32639 32639 32639 32639 32639 32639 32639 32639 32639 32639 32639 32639 32639 32639 32639 34689 42904 49087 42904 
49087 42143 32024 29555 29555 29555 32639 32639 32639 32639 32639 32639 32639 32639 32639 32639 32639 32639 32639 32639 32639 32639 32639 32639 32639 32639 32639 32639 32639 32639 32639 32639 32639 32639 32639 32639 32639 32639 32639 34165 49087 60498 62194 62194 62194 62194 62194 62194 62194 60494 49087 43469 34689 32639 32639 32639 32639 32639 32639 32639 32639 32639 32639 32639 32639 32639 32639 32639 32639 32639 32639 32639 32639 32639 32639 32639 32639 32639 32639 32639 32639 32639 32639 32639 32639 32639 32639 32639 32639 32639 32639 32639 32639 32639 32639 32639 32639 32639 34689 42904 
32024 42143 49087 42143 32024 29555 32639 32639 32639 32639 32639 32639 32639 32639 32639 32639 32639 32639 32639 32639 32639 32639 32639 32639 32639 32639 32639 32639 32639 32639 32639 32639 32639 32639 32639 32639 32639 32639 32639 32639 46482 51862 61979 62194 62194 62194 62194 62194 61988 51860 46856 42904 49087 42904 34689 32639 32639 32639 32639 32639 32639 32639 32639 32639 32639 32639 32639 32639 32639 32639 32639 32639 32639 32639 32639 32639 32639 32639 32639 32639 32639 32639 32639 32639 32639 32639 32639 32639 32639 32639 32639 32639 32639 32639 32639 32639 32639 32639 32639 32639 
29555 29555 32024 42143 49087 42143 34689 32639 32639 32639 32639 32639 32639 32639 32639 32639 32639 32639 32639 32639 32639 32639 32639 32639 32639 32639 32639 32639 32639 32639 32639 32639 32639 32639 32639 32639 32639 32639 32639 32639 33392 48956 52216 60642 62194 62194 62194 60646 52341 48979 33370 32639 34689 42904 49087 42904 34689 32639 32639 32639 32639 32639 32639 32639 32639 32639 32639 32639 32639 32639 32639 32639 32639 32639 32639 32639 32639 32639 32639 32639 32639 32639 32639 32639 32639 32639 32639 32639 32639 32639 32639 32639 32639 32639 32639 32639 32639 32639 32639 32639 
29555 29555 29555 29555 32024 42143 49087 42904 34689 32639 32639 32639 32639 32639 32639 32639 32639 32639 32639 32639 32639 32639 32639 32639 32639 32639 32639 32639 32639 32639 32639 32639 32639 32639 32639 32639 32639 32639 32639 32639 32639 33488 45965 49087 49425 51861 49449 49087 45928 33439 32639 32639 32639 32639 34689 42904 49087 42904 34689 32639 32639 32639 32639 32639 32639 32639 32639 32639 32639 32639 32639 32639 32639 32639 32639 32639 32639 32639 32639 32639 32639 32639 32639 32639 32639 32639 32639 32639 32639 32639 32639 32639 32639 32639 32639 32639 32639 32639 32639 32639 
29555 29555 29555 29555 29555 29555 34689 42904 49087 42904 34689 32639 32639 32639 32639 32639 32639 32639 32639 32639 32639 32639 32639 32639 32639 32639 32639 32639 32639 32639 32639 32639 32639 32639 32639 32639 32639 32639 32639 32639 32639 32639 32639 34159 38969 41226 38918 34101 32639 32639 32639 32639 32639 32639 32639 32639 34689 42904 49087 42904 34689 32639 32639 32639 32639 32639 32639 32639 32639 32639 32639 32639 32639 32639 32639 32639 32639 32639 32639 32639 32639 32639 32639 32639 32639 32639 32639 32639 32639 32639 32639 32639 32639 32639 32639 32639 32639 32639 32639 32639 
29555 29555 29555 29555 29555 29555 32639 32639 34689 42904 49087 42904 34689 32639 32639 32639 32639 32639 32639 32639 32639 32639 32639 32639 32639 32639 32639 32639 32639 32639 32639 32639 32639 32639 32639 32639 32639 32639 32639 32639 32639 32639 32639 32639 32639 32639 32639 32639 32639 32639 32639 32639 32639 32639 32639 32639 32639 32639 34689 42904 49087 42904 34689 32639 32639 32639 32639 32639 32639 32639 32639 32639 32639 32639 32639 32639 32639 32639 32639 32639 32639 32639 32639 32639 32639 32639 32639 32639 32639 32639 32639 32639 32639 32639 32639 32639 32639 32639 32639 32639 
29555 29555 29555 29555 29555 29555 32639 32639 32639 32639 34689 42904 49087 42904 34689 32639 32639 32639 32639 32639 32639 32639 32639 32639 32639 32639 32639 32639 32639 32639 32639 32639 32639 32639 32639 32639 32639 32639 32639 32639 32639 32639 32639 32639 32639 32639 32639 32639 32639 32639 32639 32639 32639 32639 32639 32639 32639 32639 32639 32639 34689 42904 49087 42904 34689 32639 32639 32639 32639 32639 32639 32639 32639 32639 32639 32639 32639 32639 32639 32639 32639 32639 32639 32639 32639 32639 32639 32639 32639 32639 32639 32639 32639 32639 32639 32639 32639 32639 32639 32639 
29555 29555 29555 29555 29555 29555 32639 32639 32639 32639 32639 32639 34689 42904 49087 42904 34689 32639 32639 32639 32639 32639 32639 32639 32639 32639 32639 32639 32639 32639 32639 32639 32639 32639 32639 32639 32639 32639 32639 32639 32639 32639 32639 32639 32639 32639 32639 32639 32639 32639 32639 32639 32639 32639 32639 32639 32639 32639 32639 32639 32639 32639 34689 42904 49087 42904 34689 32639 32639 32639 32639 32639 32639 32639 32639 32639 32639 32639 32639 32639 32639 32639 32639 32639 32639 32639 32639 32639 32639 32639 32639 32639 32639 32639 32639 32639 32639 32639 32639 32639 
29555 29555 29555 29555 29555 29555 32639 32639 32639 32639 32639 32639 32639 32639 34689 42904 49087 42904 34689 32639 32639 32639 32639 32639 32639 32639 32639 32639 32639 32639 32639 32639 32639 32639 32639 32639 32639 32639 32639 32639 32639 32639 32639 32639 32639 32639 32639 32639 32639 32639 32639 32639 32639 32639 32639 32639 32639 32639 32639 32639 32639 32639 32639 32639 34689 42904 49087 42904 34689 32639 32639 32639 32639 32639 32639 32639 32639 32639 32639 32639 32639 32639 32639 32639 32639 32639 32639 32639 32639 32639 32639 32639 32639 32639 32639 32639 32639 32639 32639 32639 
29555 29555 29555 29555 29555 29555 32639 32639 32639 32639 32639 32639 32639 32639 32639 32639 34689 42904 49087 42904 34689 32639 32639 32639 32639 32639 32639 32639 32639 32639 32639 32639 32639 32639 32639 32639 32639 32639 32639 32639 32639 32639 32639 32639 32639 32639 32639 32639 32639 32639 32639 32639 32639 32639 32639 32639 32639 32639 32639 32639 32639 32639 32639 32639 32639 32639 34689 42904 49087 42904 34689 32639 32639 32639 32639 32639 32639 32639 32639 32639 32639 32639 32639 32639 32639 32639 32639 32639 32639 32639 32639 32639 32639 32639 32639 32639 32639 32639 32639 32639 
29555 29555 29555 29555 29555 29555 32639 32639 32639 32639 32639 32639 32639 32639 32639 32639 32639 32639 34689 42904 49087 42904 34689 32639 32639 32639 32639 32639 32639 32639 32639 32639 32639 32639 32639 32639 32639 32639 32639 32639 32639 32639 32639 32639 32639 32639 32639 32639 32639 32639 32639 32639 32639 32639 32639 32639 32639 32639 32639 32639 32639 32639 32639 32639 32639 32639 32639 32639 34689 42904 49087 42904 34689 32639 32639 32639 32639 32639 32639 32639 32639 32639 32639 32639 32639 32639 32639 32639 32639 32639 32639 32639 32639 32639 32639 32639 32639 32639 32639 32639 
29555 29555 29555 29555 29555 29555 32639 32639 32639 32639 32639 32639 32639 32639 32639 32639 32639 32639 32639 32639 34689 42904 49087 42904 34689 32639 32639 32639 32639 32639 32639 32639 32639 32639 32639 32639 32639 32639 32639 32639 32639 32639 32639 32639 32639 32639 32639 32639 32639 32639 32639 32639 32639 32639 32639 32639 32639 32639 32639 32639 32639 32639 32639 32639 32639 32639 32639 32639 32639 32639 34689 42904 49087 42904 34689 32639 32639 32639 32639 32639 32639 32639 32639 32639 32639 32639 32639 32639 32639 32639 32639 32639 32639 32639 32639 32639 32639 32639 32639 32639 
29555 29555 29555 29555 29555 29555 32639 32639 32639 32639 32639 32639 32639 32639 32639 32639 32639 32639 32639 32639 32639 32639 34689 42904 49087 42904 34689 32639 32639 32639 32639 32639 32639 32639 32639 32639 32639 32639 32639 32639 32639 32639 32639 32639 32639 32639 32639 32639 32639 32639 32639 32639 32639 32639 32639 32639 32639 32639 32639 32639 32639 32639 32639 32639 32639 32639 32639 32639 32639 32639 32639 32639 34689 42904 49087 42904 34689 32639 32639 32639 32639 32639 32639 32639 32639 32639 32639 32639 32639 32639 32639 32639 32639 32639 32639 32639 32639 32639 32639 32639 
29555 29555 29555 29555 29555 29555 32639 32639 32639 32639 32639 32639 32639 32639 32639 32639 32639 32639 32639 32639 32639 32639 32639 32639 34689 42904 49087 42904 34689 32639 32639 32639 32639 32639 32639 32639 32639 32639 32639 32639 32639 32639 32639 32639 32639 32639 32639 32639 32639 32639 32639 32639 32639 32639 32639 32639 32639 32639 32639 32639 32639 32639 32639 32639 32639 32639 32639 32639 32639 32639 32639 32639 32639 32639 34689 42904 49087 42904 34689 32639 32639 32639 32639 32639 32639 32639 32639 32639 32639 32639 32639 32639 32639 32639 32639 32639 32639 32639 32639 32639 
29555 29555 29555 29555 29555 29555 32639 32639 32639 32639 32639 32639 32639 32639 32639 32639 32639 32639 32639 32639 32639 32639 32639 32639 32639 32639 34689 42904 49087 42904 34689 32639 32639 32639 32639 32639 32639 32639 32639 32639 32639 32639 32639 32639 32639 32639 32639 32639 32639 32639 32639 32639 32639 32639 32639 32639 32639 32639 32639 32639 32639 32639 32639 32639 32639 32639 32639 32639 32639 32639 32639 32639 32639 32639 32639 32639 34689 42904 49087 42904 34689 32639 32639 32639 32639 32639 32639 32639 32639 32639 32639 32639 32639 32639 32639 32639 32639 32639 32639 32639 
29555 29555 29555 29555 29555 29555 32639 32639 32639 32639 32639 32639 32639 32639 32639 32639 32639 32639 32639 32639 32639 32639 32639 32639 32639 32639 32639 32639 34689 42904 49087 42904 34689 32639 32639 32639 32639 32639 32639 32639 32639 32639 32639 32639 32639 32639 32639 32639 32639 32639 32639 32639 32639 32639 32639 32639 32639 32639 32639 32639 32639 32639 32639 32639 32639 32639 32639 32639 32639 32639 32639 32639 32639 32639 32639 32639 32639 32639 34689 42904 49087 42904 34689 32639 32639 32639 32639 32639 32639 32639 32639 32639 32639 32639 32639 32639 32639 32639 32639 32639 
29555 29555 29555 29555 29555 29555 32639 32639 32639 32639 32639 32639 32639 32639 32639 32639 32639 32639 32639 32639 32639 32639 32639 32639 32639 32639 32639 32639 32639 32639 34689 42904 49087 42904 34689 32639 32639 32639 32639 32639 32639 32639 32639 32639 32639 32639 32639 32639 32639 32639 32639 32639 32639 32639 32639 32639 32639 32639 32639 32639 32639 32639 32639 32639 32639 32639 32639 32639 32639 32639 32639 32639 32639 32639 32639 32639 32639 32639 32639 32639 34689 42904 49087 42904 34689 32639 32639 32639 32639 32639 32639 32639 32639 32639 32639 32639 32639 32639 32639 32639 
29555 29555 29555 29555 29555 29555 32639 32639 32639 32639 32639 32639 32639 32639 32639 32639 32639 32639 32639 32639 32639 32639 32639 32639 32639 32639 32639 32639 32639 32639 32639 32639 34689 42904 49087 42904 34689 32639 32639 32639 32639 32639 32639 32639 32639 32639 32639 32639 32639 32639 32639 32639 32639 32639 32639 32639 32639 32639 32639 32639 32639 32639 32639 32639 32639 32639 32639 32639 32639 32639 32639 32639 32639 32639 32639 32639 32639 32639 32639 32639 32639 32639 34689 42904 49087 42904 34689 32639 32639 32639 32639 32639 32639 32639 32639 32639 32639 32639 32639 32639 
29555 29555 29555 29555 29555 29555 32639 32639 32639 32639 32639 32639 32639 32639 32639 32639 32639 32639 32639 32639 32639 32639 32639 32639 32639 32639 32639 32639 32639 32639 32639 32639 32639 32639 34689 42904 49087 42904 34689 32639 32639 32639 32639 32639 32639 32639 32639 32639 32639 32639 32639 32639 32639 32639 32639 32639 32639 32639 32639 32639 32639 32639 32639 32639 32639 32639 32639 32639 32639 32639 32639 32639 32639 32639 32639 32639 32639 32639 32639 32639 32639 32639 32639 32639 34689 42904 49087 42904 34689 32639 32639 32639 32639 32639 32639 32639 32639 32639 32639 32639 
29555 29555 29555 29555 29555 29555 32639 32639 32639 32639 32639 32639 32639 32639 32639 32639 32639 32639 32639 32639 32639 32639 32639 32639 32639 32639 32639 32639 32639 32639 32639 32639 32639 32639 32639 32639 34689 42904 49087 42904 34689 32639 32639 32639 32639 32639 32639 32639 32639 32639 32639 32639 32639 32639 32639 32639 32639 32639 32639 32639 32639 32639 32639 32639 32639 32639 32639 32639 32639 32639 32639 32639 32639 32639 32639 32639 32639 32639 32639 32639 32639 32639 32639 32639 32639 32639 34689 42904 49087 42904 34689 32639 32639 32639 32639 32639 32639 32639 32639 32639 
29555 29555 29555 29555 29555 29555 32639 32639 32639 32639 32639 32639 32639 32639 32639 32639 32639 32639 32639 32639 32639 32639 32639 32639 32639 32639 32639 32639 32639 32639 32639 32639 32639 32639 32639 32639 32639 32639 34689 42904 49087 42904 34689 32639 32639 32639 32639 32639 32639 32639 32639 32639 32639 32639 32639 32639 32639 32639 32639 32639 32639 32639 32639 32639 32639 32639 32639 32639 32639 32639 32639 32639 32639 32639 32639 32639 32639 32639 32639 32639 32639 32639 32639 32639 32639 32639 32639 32639 34689 42904 49087 42904 34689 32639 32639 32639 32639 32639 32639 32639 
29555 29555 29555 29555 29555 29555 32639 32639 32639 32639 32639 32639 32639 32639 32639 32639 32639 32639 32639 32639 32639 32639 32639 32639 32639 32639 32639 32639 32639 32639 32639 32639 32639 32639 32639 32639 32639 32639 32639 32639 34689 42904 49087 42904 34689 32639 32639 32639 32639 32639 32639 32639 32639 32639 32639 32639 32639 32639 32639 32639 32639 32639 32639 32639 32639 32639 32639 32639 32639 32639 32639 32639 32639 32639 32639 32639 32639 32639 32639 32639 32639 32639 32639 32639 32639 32639 32639 32639 32639 32639 34689 42904 49087 42904 34689 32639 32639 32639 32639 32639 
29555 29555 29555 29555 29555 29555 32639 32639 32639 32639 32639 32639 32639 32639 32639 32639 32639 32639 32639 32639 32639 32639 32639 32639 32639 32639 32639 32639 32639 32639 32639 32639 32639 32639 32639 32639 32639 32639 32639 32639 32639 32639 34689 42904 49087 42904 34689 32639 32639 32639 32639 32639 32639 32639 32639 32639 32639 32639 32639 32639 32639 32639 32639 32639 32639 32639 32639 32639 32639 32639 32639 32639 32639 32639 32639 32639 32639 32639 32639 32639 32639 32639 32639 32639 32639 32639 32639 32639 32639 32639 32639 32639 34689 42904 49087 42904 34689 32639 32639 32639 
29555 29555 29555 29555 29555 29555 32639 32639 32639 32639 32639 32639 32639 32639 32639 32639 32639 32639 32639 32639 32639 32639 32639 32639 32639 32639 32639 32639 32639 32639 32639 32639 32639 32639 32639 32639 32639 32639 32639 32639 32639 32639 32639 32639 34689 42904 49087 42904 34689 32639 32639 32639 32639 32639 32639 32639 32639 32639 32639 32639 32639 32639 32639 32639 32639 32639 32639 32639 32639 32639 32639 32639 32639 32639 32639 32639 32639 32639 32639 32639 32639 32639 32639 32639 32639 32639 32639 32639 32639 32639 32639 32639 32639 32639 34689 42904 49087 42904 34689 32639 
29555 29555 29555 29555 29555 29555 32639 32639 32639 32639 32639 32639 32639 32639 32639 32639 32639 32639 32639 32639 32639 32639 32639 32639 32639 32639 32639 32639 32639 32639 32639 32639 32639 32639 32639 32639 32639 32639 32639 32639 32639 32639 32639 32639 32639 32639 34689 42904 49087 42904 34689 32639 32639 32639 32639 32639 32639 32639 32639 32639 32639 32639 32639 32639 32639 32639 32639 32639 32639 32639 32639 32639 32639 32639 32639 32639 32639 32639 32639 32639 32639 32639 32639 32639 32639 32639 32639 32639 32639 32639 32639 32639 32639 32639 32639 32639 34689 42904 49087 42904 
