P2
5 5
65535
49087 37300 49087 40275 32964 
37300 49087 39179 48113 48113 
49087 39179 49087 37533 40275 
40275 48113 37533 49087 37300 
32964 48113 40275 37300 49087 
