P2
50 100
65535
58853 58853 58853 58853 58853 58853 58853 58853 58853 58853 58853 58853 58853 58853 58853 58853 58853 58853 58853 58853 58853 58853 58891 59501 58853 58853 58853 59501 58891 58853 58853 58853 58853 58853 58853 58853 58853 58853 58853 58853 58853 58853 58853 58853 58853 58853 58853 58853 58853 58853 
44323 58853 58853 58853 58853 58853 58853 58853 58853 58853 58853 58853 58853 58853 58853 58853 58853 58853 58853 58853 58853 59363 58853 61437 64094 65051 64094 61437 58853 59363 58853 58853 58853 58853 58853 58853 58853 58853 58853 58853 58853 58853 58853 58853 58853 58853 58853 58853 58853 58853 
8014 58853 58853 58853 58853 58853 58853 58853 58853 58853 58853 58853 58853 58853 58853 58853 58853 58853 58853 58853 58891 58853 63816 65535 65535 65535 65535 65535 63816 58853 58891 58853 58853 58853 58853 58853 58853 58853 58853 58853 58853 58853 58853 58853 58853 58853 58853 58853 58853 58853 
0 44323 58853 58853 58853 58853 58853 58853 58853 58853 58853 58853 58853 58853 58853 58853 58853 58853 58853 58853 59501 61437 65535 65535 65535 65535 65535 65535 65535 61437 59501 58853 58853 58853 58853 58853 58853 58853 58853 58853 58853 58853 58853 58853 58853 58853 58853 58853 58853 58853 
0 8014 58853 58853 58853 58853 58853 58853 58853 58853 58853 58853 58853 58853 58853 58853 58853 58853 58853 58853 58853 64094 65535 65535 65535 65535 65535 65535 65535 64094 58853 58853 58853 58853 58853 58853 58853 58853 58853 58853 58853 58853 58853 58853 58853 58853 58853 58853 58853 58853 
0 0 44323 58853 58853 58853 58853 58853 58853 58853 58853 58853 58853 58853 58853 58853 58853 58853 58853 58853 58853 65051 65535 65535 65535 65535 65535 65535 65535 65051 58853 58853 58853 58853 58853 58853 58853 58853 58853 58853 58853 58853 58853 58853 58853 58853 58853 58853 58853 58853 
0 0 8014 58853 58853 58853 58853 58853 58853 58853 58853 58853 58853 58853 58853 58853 58853 58853 58853 58853 58853 64094 65535 65535 65535 65535 65535 65535 65535 64094 58853 58853 58853 58853 58853 58853 58853 58853 58853 58853 58853 58853 58853 58853 58853 58853 58853 58853 58853 58853 
0 0 0 44323 58853 58853 58853 58853 58853 58853 58853 58853 58853 58853 58853 58853 58853 58853 58853 58853 59501 61437 65535 65535 65535 65535 65535 65535 65535 61437 59501 58853 58853 58853 58853 58853 58853 58853 58853 58853 58853 58853 58853 58853 58853 58853 58853 58853 58853 58853 
0 0 0 8014 58853 58853 58853 58853 58853 58853 58853 58853 58853 58853 58853 58853 58853 58853 58853 58853 58891 58853 63816 65535 65535 65535 65535 65535 63816 58853 58891 58853 58853 58853 58853 58853 58853 58853 58853 58853 58853 58853 58853 58853 58853 58853 58853 58853 58853 58853 
0 0 0 0 44323 58853 58853 58853 58853 58853 58853 58853 58853 58853 58853 58853 58853 58853 58853 58853 58853 59363 58853 61437 64094 65051 64094 61437 58853 59363 58853 58853 58853 58853 58853 58853 58853 58853 58853 58853 58853 58853 58853 58853 58853 58853 58853 58853 58853 58853 
0 0 0 0 8014 58853 58853 58853 58853 58853 58853 58853 58853 58853 58853 58853 58853 58853 58853 58853 58853 58853 58891 59501 58853 58853 58853 59501 58891 58853 58853 58853 58853 58853 58853 58853 58853 58853 58853 58853 58853 58853 58853 58853 58853 58853 58853 58853 58853 58853 
0 0 0 0 0 44323 58853 58853 58853 58853 58853 58853 58853 58853 58853 58853 58853 58853 58853 58853 58853 58853 58853 58853 58853 58853 58853 58853 58853 58853 58853 58853 58853 58853 58853 58853 58853 58853 58853 58853 58853 58853 58853 58853 58853 58853 58853 58853 58853 58853 
0 0 0 0 0 8014 58853 58853 58853 58853 58853 58853 58853 58853 58853 58853 58853 58853 58853 58853 58853 58853 58853 58853 58853 58853 58853 58853 58853 58853 58853 58853 58853 58853 58853 58853 58853 58853 58853 58853 58853 58853 58853 58853 58853 58853 58853 58853 58853 58853 
0 0 0 0 0 0 44323 58853 58853 58853 58853 58853 58853 58853 58853 58853 58853 58853 58853 58853 58853 58853 58853 58853 58853 58853 58853 58853 58853 58853 58853 58853 58853 58853 58853 58853 58853 58853 58853 58853 58853 58853 58853 58853 58853 58853 58853 58853 58853 58853 
0 0 0 0 0 0 8014 58853 58853 58853 58853 58853 58853 58853 58853 58853 58853 58853 58853 58853 58853 58853 58853 58853 58853 58853 58853 58853 58853 58853 58853 58853 58853 58853 58853 58853 58853 58853 58853 58853 58853 58853 58853 58853 58853 58853 58853 58853 58853 58853 
0 0 0 0 0 0 0 44323 58853 58853 58853 58853 58853 58853 58853 58853 58853 58853 58853 58853 58853 58853 58853 58853 58853 58853 58853 58853 58853 58853 58853 58853 58853 58853 58853 58853 58853 58853 58853 58853 58853 58853 58853 58853 58853 58853 58853 58853 58853 58853 
0 0 0 0 0 0 0 8014 58853 58853 58853 58853 58853 58853 58853 58853 58853 58853 58853 58853 58853 58853 58853 58853 58853 58853 58853 58853 58853 58853 58853 58853 58853 58853 58853 58853 58853 58853 58853 58853 58853 58853 58853 58853 58853 58853 58853 58853 58853 58853 
0 0 0 0 0 0 0 0 44323 58853 58853 58853 58853 58853 58853 58853 58853 58853 58853 58853 58853 58853 58853 58853 58853 58853 58853 58853 58853 58853 58853 58853 58853 58853 58853 58853 58853 58853 58853 58853 58853 58853 58853 58853 58853 58853 58853 58853 58853 58853 
0 0 0 0 0 0 0 0 8014 58853 58853 58853 58853 58853 58853 58853 58853 58853 58853 58853 58853 58853 58853 58853 58853 58853 58853 58853 58853 58853 58853 58853 58853 58853 58853 58853 58853 58853 58853 58853 58853 58853 58853 58853 58853 58853 58853 58853 58853 58853 
0 0 0 0 0 0 0 0 0 44323 58853 58853 58853 58853 58853 58853 58853 58853 58853 58853 58853 58853 58853 58853 58853 58853 58853 58853 58853 58853 58853 58853 58853 58853 58853 58853 58853 58853 58853 58853 58853 58853 58853 58853 58853 58853 58853 58853 58853 58853 
0 0 0 0 0 0 0 0 0 8014 58853 58853 58853 58853 58853 58853 58853 58853 58853 58853 58853 58853 58853 58853 58853 58853 58853 58853 58853 58853 58853 58853 58853 58853 58853 58853 58853 58853 58853 58853 58853 58853 58853 58853 58853 58853 58853 58853 58853 58853 
0 0 0 0 0 0 0 0 0 0 44323 58853 58853 58853 58853 58853 58853 58853 58853 58853 58853 58853 58853 58853 58853 58853 58853 58853 58853 58853 58853 58853 58853 58853 58853 58853 58853 58853 58853 58853 58853 58853 58853 58853 58853 58853 58853 58853 58853 58853 
0 0 0 0 0 0 0 0 0 0 8014 58853 58853 58853 58853 58853 58853 58853 58853 58853 58853 58853 58853 58853 58853 58853 58853 58853 58853 58853 58853 58853 58853 58853 58853 58853 58853 58853 58853 58853 58853 58853 58853 58853 58853 58853 58853 58853 58853 58853 
0 0 0 0 0 0 0 0 0 0 0 44323 58853 58853 58853 58853 58853 58853 58853 58853 58853 58853 58853 58853 58853 58853 58853 58853 58853 58853 58853 58853 58853 58853 58853 58853 58853 58853 58853 58853 58853 58853 58853 58853 58853 58853 58853 58853 58853 58853 
0 0 0 0 0 0 0 0 0 0 0 8014 58853 58853 58853 58853 58853 58853 58853 58853 58853 58853 58853 58853 58853 58853 58853 58853 58853 58853 58853 58853 58853 58853 58853 58853 58853 58853 58853 58853 58853 58853 58853 58853 58853 58853 58853 58853 58853 58853 
0 0 0 0 0 0 0 0 0 0 0 0 44323 58853 58853 58853 58853 58853 58853 58853 58853 58853 58853 58853 58853 58853 58853 58853 58853 58853 58853 58853 58853 58853 58853 58853 58853 58853 58853 58853 58853 58853 58853 58853 58853 58853 58853 58853 58853 58853 
0 0 0 0 0 0 0 0 0 0 0 0 8014 58853 58853 58853 58853 58853 58853 58853 58853 58853 58853 58853 58853 58853 58853 58853 58853 58853 58853 58853 58853 58853 58853 58853 58853 58853 58853 58853 58853 58853 58853 58853 58853 58853 58853 58853 58853 58853 
0 0 0 0 0 0 0 0 0 0 0 0 0 44323 58853 58853 58853 58853 58853 58853 58853 58853 58853 58853 58853 58853 58853 58853 58853 58853 58853 58853 58853 58853 58853 58853 58853 58853 58853 58853 58853 58853 58853 58853 58853 58853 58853 58853 58853 58853 
0 0 0 0 0 0 0 0 0 0 0 0 0 8014 58853 58853 58853 58853 58853 58853 58853 58853 58853 58853 58853 58853 58853 58853 58853 58853 58853 58853 58853 58853 58853 58853 58853 58853 58853 58853 58853 58853 58853 58853 58853 58853 58853 58853 58853 58853 
0 0 0 0 0 0 0 0 0 0 0 0 0 0 44323 58853 58853 58853 58853 58853 58853 58853 58853 58853 58853 58853 58853 58853 58853 58853 58853 58853 58853 58853 58853 58853 58853 58853 58853 58853 58853 58853 58853 58853 58853 58853 58853 58853 58853 58853 
0 0 0 0 0 0 0 0 0 0 0 0 0 0 8014 58853 58853 58853 58853 58853 58853 58853 58853 58853 58853 58853 58853 58853 58853 58853 58853 58853 58853 58853 58853 58853 58853 58853 58853 58853 58853 58853 58853 58853 58853 58853 58853 58853 58853 58853 
0 0 0 0 0 0 0 0 0 0 0 0 0 0 0 44323 58853 58853 58853 58853 58853 58853 58853 58853 58853 58853 58853 58853 58853 58853 58853 58853 58853 58853 58853 58853 58853 58853 58853 58853 58853 58853 58853 58853 58853 58853 58853 58853 58853 58853 
0 0 0 0 0 0 0 0 0 0 0 0 0 0 0 8014 58853 58853 58853 58853 58853 58853 58853 58853 58853 58853 58853 58853 58853 58853 58853 58853 58853 58853 58853 58853 58853 58853 58853 58853 58853 58853 58853 58853 58853 58853 58853 58853 58853 58853 
0 0 0 0 0 0 0 0 0 0 0 0 0 0 0 0 44323 58853 58853 58853 58853 58853 58853 58853 58853 58853 58853 58853 58853 58853 58853 58853 58853 58853 58853 58853 58853 58853 58853 58853 58853 58853 58853 58853 58853 58853 58853 58853 58853 58853 
0 0 0 0 0 0 0 0 0 0 0 0 0 0 0 0 8014 58853 58853 58853 58853 58853 58853 58853 58853 58853 58853 58853 58853 58853 58853 58853 58853 58853 58853 58853 58853 58853 58853 58853 58853 58853 58853 58853 58853 58853 58853 58853 58853 58853 
0 0 0 0 0 0 0 0 0 0 0 0 0 0 0 0 0 44323 58853 58853 58853 58853 58853 58853 58853 58853 58853 58853 58853 58853 58853 58853 58853 58853 58853 58853 58853 58853 58853 58853 58853 58853 58853 58853 58853 58853 58853 58853 58853 58853 
0 0 0 0 0 0 0 0 0 0 0 0 0 0 0 0 0 8014 58853 58853 58853 58853 58853 58853 58853 58853 58853 58853 58853 58853 58853 58853 58853 58853 58853 58853 58853 58853 58853 58853 58853 58853 58853 58853 58853 58853 58853 58853 58853 58853 
0 0 0 0 0 0 0 0 0 0 0 0 0 0 0 0 0 0 44323 58853 58853 58853 58853 58853 58853 58853 58853 58853 58853 58853 58853 58853 58853 58853 58853 58853 58853 58853 58853 58853 58853 58853 58853 58853 58853 58853 58853 58853 58853 58853 
0 0 0 0 0 0 0 0 0 0 0 0 0 0 0 0 0 0 8014 58853 58853 58853 58853 58853 58853 58853 58853 58853 58853 58853 58853 58853 58853 58853 58853 58853 58853 58853 58853 58853 58853 58853 58853 58853 58853 58853 58853 58853 58853 58853 
0 0 0 0 0 0 0 0 0 0 0 0 0 0 0 0 0 0 0 44323 58853 58863 59228 59404 59240 58870 58853 58853 58853 58853 58853 58853 58853 58853 58853 58853 58853 58853 58853 58853 58853 58853 58853 58853 58853 58853 58853 58853 58853 58853 
0 0 0 0 0 0 0 0 0 0 0 0 0 0 0 0 0 0 0 10372 59588 58853 59065 60281 59029 58853 59587 58853 58853 58853 58853 58853 58853 58853 58853 58853 58853 58853 58853 58853 58853 58853 58853 58853 58853 58853 58853 58853 58853 58853 
0 0 0 0 0 0 0 0 0 0 0 0 0 0 0 0 0 0 2574 57232 60437 64721 65535 65535 65535 64719 60385 59138 58853 58853 58853 58853 58853 58853 58853 58853 58853 58853 58853 58853 58853 58853 58853 58853 58853 58853 58853 58853 58853 58853 
0 0 0 0 0 0 0 0 0 0 0 0 0 0 0 0 0 0 44079 60279 65436 65535 65535 65535 65535 65535 65422 60283 59581 58853 58853 58853 58853 58853 58853 58853 58853 58853 58853 58853 58853 58853 58853 58853 58853 58853 58853 58853 58853 58853 
0 0 0 0 0 0 0 0 0 0 0 0 0 0 0 0 0 5041 58853 64671 65535 65535 65535 65535 65535 65535 65535 64678 58853 58871 58853 58853 58853 58853 58853 58853 58853 58853 58853 58853 58853 58853 58853 58853 58853 58853 58853 58853 58853 58853 
0 0 0 0 0 0 0 0 0 0 0 0 0 0 0 0 0 20991 59290 65535 65535 65535 65535 65535 65535 65535 65535 65534 59111 59273 58853 58853 58853 58853 58853 58853 58853 58853 58853 58853 58853 58853 58853 58853 58853 58853 58853 58853 58853 58853 
58853 58853 58853 3678 0 0 0 0 0 0 0 0 0 0 0 0 0 29069 60443 65535 65535 65535 65535 65535 65535 65535 65535 65535 60518 59444 58853 58853 58853 58853 58853 58853 58853 58853 58853 58853 58853 58853 58853 58853 58853 58853 58853 58853 58853 58853 
58853 65117 58853 3678 0 0 0 0 0 0 0 0 0 0 0 0 0 22066 59170 65534 65535 65535 65535 65535 65535 65535 65535 65534 59244 59262 58853 58853 58853 58853 58853 58853 58853 58853 58853 58853 58853 58853 58853 58853 58853 58853 58853 58853 58853 58853 
58853 65117 58853 3678 0 0 0 0 0 0 0 0 0 0 0 0 0 5372 58853 64671 65535 65535 65535 65535 65535 65535 65535 64668 58853 58865 58853 58853 58853 58853 58853 58853 58853 58853 58853 58853 58853 58853 58853 58853 58853 58853 58853 58853 58853 58853 
58853 65117 58853 3678 0 0 0 0 0 0 0 0 0 0 0 0 0 0 45168 60268 65425 65535 65535 65535 65535 65535 65430 60267 59582 58853 58853 58853 58853 58853 58853 58853 58853 58853 58853 58853 58853 58853 58853 58853 58853 58853 58853 58853 58853 58853 
58853 65117 58853 3678 0 0 0 0 0 0 0 0 0 0 0 0 0 0 2695 56748 60448 64744 65535 65535 65535 64746 60512 59104 58853 58853 58853 58853 58853 58853 58853 58853 58853 58853 58853 58853 58853 58853 58853 58853 58853 58853 58853 58853 58853 58853 
58853 58853 58853 3678 0 0 0 0 0 0 0 0 0 0 0 0 0 0 0 3037 43262 58853 59026 60267 59037 58853 59588 58853 58853 58853 58853 58853 58853 58853 58853 58853 58853 58853 58853 58853 58853 58853 58853 58853 58853 58853 58853 58853 58853 58853 
3678 3678 3678 0 0 0 0 0 0 0 0 0 0 0 0 0 0 0 0 0 0 5355 20362 27428 20203 45606 58853 58853 58853 58853 58853 58853 58853 58853 58853 58853 58853 58853 58853 58853 58853 58853 58853 58853 58853 58853 58853 58853 58853 58853 
0 0 0 0 0 0 0 0 0 0 0 0 0 0 0 0 0 0 0 0 0 0 0 0 0 8014 58853 58853 58853 58853 58853 58853 58853 58853 58853 58853 58853 58853 58853 58853 58853 58853 58853 58853 58853 58853 58853 58853 58853 58853 
0 0 0 0 0 0 0 0 0 0 0 0 0 0 0 0 0 0 0 0 0 0 0 0 0 0 44323 58853 58853 58853 58853 58853 58853 58853 58853 58853 58853 58853 58853 58853 58853 58853 58853 58853 58853 58853 58853 58853 58853 58853 
0 0 0 0 0 0 0 0 0 0 0 0 0 0 0 0 0 0 0 0 0 0 0 0 0 0 8014 58853 58853 58853 58853 58853 58853 58853 58853 58853 58853 58853 58853 58853 58853 58853 58853 58853 58853 58853 58853 58853 58853 58853 
0 0 0 0 0 0 0 0 0 0 0 0 0 0 0 0 0 0 0 0 0 0 0 0 0 0 0 44323 58853 58853 58853 58853 58853 58853 58853 58853 58853 58853 58853 58853 58853 58853 58853 58853 58853 58853 58853 58853 58853 58853 
0 0 0 0 0 0 0 0 0 0 0 0 0 0 0 0 0 0 0 0 0 0 0 0 0 0 0 8014 58853 58853 58853 58853 58853 58853 58853 58853 58853 58853 58853 58853 58853 58853 58853 58853 58853 58853 58853 58853 58853 58853 
0 0 0 0 0 0 0 0 0 0 0 0 0 0 0 0 0 0 0 0 0 0 0 0 0 0 0 0 44323 58853 58853 58853 58853 58853 58853 58853 58853 58853 58853 58853 58853 58853 58853 58853 58853 58853 58853 58853 58853 58853 
0 0 0 0 0 0 0 0 0 0 0 0 0 0 0 0 0 0 0 0 0 0 0 0 0 0 0 0 8014 58853 58853 58853 58853 58853 58853 58853 58853 58853 58853 58853 58853 58853 58853 58853 58853 58853 58853 58853 58853 58853 
0 0 0 0 0 0 0 0 0 0 0 0 0 0 0 0 0 0 0 0 0 0 0 0 0 0 0 0 0 44323 58853 58853 58853 58853 58853 58853 58853 58853 58853 58853 58853 58853 58853 58853 58853 58853 58853 58853 58853 58853 
0 0 0 0 0 0 0 0 0 0 0 0 0 0 0 0 0 0 0 0 0 0 0 0 0 0 0 0 0 8014 58853 58853 58853 58853 58853 58853 58853 58853 58853 58853 58853 58853 58853 58853 58853 58853 58853 58853 58853 58853 
0 0 0 0 0 0 0 0 0 0 0 0 0 0 0 0 0 0 0 0 0 0 0 0 0 0 0 0 0 0 44323 58853 58853 58853 58853 58853 58853 58853 58853 58853 58853 58853 58853 58853 58853 58853 58853 58853 58853 58853 
0 0 0 0 0 0 0 0 0 0 0 0 0 0 0 0 0 0 0 0 0 0 0 0 0 0 0 0 0 0 8014 58853 58853 58853 58853 58853 58853 58853 58853 58853 58853 58853 58853 58853 58853 58853 58853 58853 58853 58853 
0 0 0 0 0 0 0 0 0 0 0 0 0 0 0 0 0 0 0 0 0 0 0 0 0 0 0 0 0 0 0 44323 58853 58853 58853 58853 58853 58853 58853 58853 58853 58853 58853 58853 58853 58853 58853 58853 58853 58853 
0 0 0 0 0 0 0 0 0 0 0 0 0 0 0 0 0 0 0 0 0 0 0 0 0 0 0 0 0 0 0 8014 58853 58853 58853 58853 58853 58853 58853 58853 58853 58853 58853 58853 58853 58853 58853 58853 58853 58853 
0 0 0 0 0 0 0 0 0 0 0 0 0 0 0 0 0 0 0 0 0 0 0 0 0 0 0 0 0 0 0 0 44323 58853 58853 58853 58853 58853 58853 58853 58853 58853 58853 58853 58853 58853 58853 58853 58853 58853 
0 0 0 0 0 0 0 0 0 0 0 0 0 0 0 0 0 0 0 0 0 0 0 0 0 0 0 0 0 0 0 0 8014 58853 58853 58853 58853 58853 58853 58853 58853 58853 58853 58853 58853 58853 58853 58853 58853 58853 
0 0 0 0 0 0 0 0 0 0 0 0 0 0 0 0 0 0 0 0 0 0 0 0 0 0 0 0 0 0 0 0 0 44323 58853 58853 58853 58853 58853 58853 58853 58853 58853 58853 58853 58853 58853 58853 58853 58853 
0 0 0 0 0 0 0 0 0 0 0 0 0 0 0 0 0 0 0 0 0 0 0 0 0 0 0 0 0 0 0 0 0 8014 58853 58853 58853 58853 58853 58853 58853 58853 58853 58853 58853 58853 58853 58853 58853 58853 
0 0 0 0 0 0 0 0 0 0 0 0 0 0 0 0 0 0 0 0 0 0 0 0 0 0 0 0 0 0 0 0 0 0 44323 58853 58853 58853 58853 58853 58853 58853 58853 58853 58853 58853 58853 58853 58853 58853 
0 0 0 0 0 0 0 0 0 0 0 0 0 0 0 0 0 0 0 0 0 0 0 0 0 0 0 0 0 0 0 0 0 0 8014 58853 58853 58853 58853 58853 58853 58853 58853 58853 58853 58853 58853 58853 58853 58853 
0 0 0 0 0 0 0 0 0 0 0 0 0 0 0 0 0 0 0 0 0 0 0 0 0 0 0 0 0 0 0 0 0 0 0 44323 58853 58853 58853 58853 58853 58853 58853 58853 58853 58853 58853 58853 58853 58853 
0 0 0 0 0 0 0 0 0 0 0 0 0 0 0 0 0 0 0 0 0 0 0 0 0 0 0 0 0 0 0 0 0 0 0 8014 58853 58853 58853 58853 58853 58853 58853 58853 58853 58853 58853 58853 58853 58853 
0 0 0 0 0 0 0 0 0 0 0 0 0 0 0 0 0 0 0 0 0 0 0 0 0 0 0 0 0 0 0 0 0 0 0 0 44323 58853 58853 58853 58853 58853 58853 58853 58853 58853 58853 58853 58853 58853 
0 0 0 0 0 0 0 0 0 0 0 0 0 0 0 0 0 0 0 0 0 0 0 0 0 0 0 0 0 0 0 0 0 0 0 0 8014 58853 58853 58853 58853 58853 58853 58853 58853 58853 58853 58853 58853 58853 
0 0 0 0 0 0 0 0 0 0 0 0 0 0 0 0 0 0 0 0 0 0 0 0 0 0 0 0 0 0 0 0 0 0 0 0 0 44323 58853 58853 58853 58853 58853 58853 58853 58853 58853 58853 58853 58853 
0 0 0 0 0 0 0 0 0 0 0 0 0 0 0 0 0 0 0 0 0 0 0 0 0 0 0 0 0 0 0 0 0 0 0 0 0 8014 58853 58853 58853 58853 58853 58853 58853 58853 58853 58853 58853 58853 
0 0 0 0 0 0 0 0 0 0 0 0 0 0 0 0 0 0 0 0 0 0 0 0 0 0 0 0 0 0 0 0 0 0 0 0 0 0 44323 58853 58853 58853 58853 58853 58853 58853 58853 58853 58853 58853 
0 0 0 0 0 0 0 0 0 0 0 0 0 0 0 0 0 0 0 0 0 0 0 0 0 0 0 0 0 0 0 0 0 0 0 0 0 0 8014 58853 58853 58853 58853 58853 58853 58853 58853 58853 58853 58853 
0 0 0 0 0 0 0 0 0 0 0 0 0 0 0 0 0 0 0 0 0 0 0 0 0 0 0 0 0 0 0 0 0 0 0 0 0 0 0 44323 58853 58853 58853 58853 58853 58853 58853 58853 58853 58853 
0 0 0 0 0 0 0 0 0 0 0 0 0 0 0 0 0 0 0 0 0 0 0 0 0 0 0 0 0 0 0 0 0 0 0 0 0 0 0 8014 58853 58853 58853 58853 58853 58853 58853 58853 58853 58853 
0 0 0 0 0 0 0 0 0 0 0 0 0 0 0 0 0 0 0 0 0 0 0 0 0 0 0 0 0 0 0 0 0 0 0 0 0 0 0 0 44323 58853 58853 58853 58853 58853 58853 58853 58853 58853 
0 0 0 0 0 0 0 0 0 0 0 0 0 0 0 0 0 0 0 0 0 0 0 0 0 0 0 0 0 0 0 0 0 0 0 0 0 0 0 0 8014 58853 58853 58853 58853 58853 58853 58853 58853 58853 
0 0 0 0 0 0 0 0 0 0 0 0 0 0 0 0 0 0 0 0 0 0 0 0 0 0 0 0 0 0 0 0 0 0 0 0 0 0 0 0 0 44323 58853 58853 58853 58853 58853 58853 58853 58853 
0 0 0 0 0 0 0 0 0 0 0 0 0 0 0 0 0 0 0 0 0 0 0 0 0 0 0 0 0 0 0 0 0 0 0 0 0 0 0 0 0 8014 58853 58853 58853 58853 58853 58853 58853 58853 
0 0 0 0 0 0 0 0 0 0 0 0 0 0 0 0 0 0 0 0 0 0 0 0 0 0 0 0 0 0 0 0 0 0 0 0 0 0 0 0 0 0 44323 58853 58853 58853 58853 58853 58853 58853 
0 0 0 0 0 0 0 0 0 0 0 0 0 0 0 0 0 0 0 0 0 0 0 0 0 0 0 0 0 0 0 0 0 0 0 0 0 0 0 0 0 0 8014 58853 58853 58853 58853 58853 58853 58853 
0 0 0 0 0 0 0 0 0 0 0 0 0 0 0 0 0 0 0 0 0 0 0 0 0 0 0 0 0 0 0 0 0 0 0 0 0 0 0 0 0 0 0 44323 58853 58853 58853 58853 58853 58853 
0 0 0 0 0 0 0 0 0 0 0 0 0 0 0 0 0 0 0 0 0 0 0 0 0 0 0 0 0 0 0 0 0 0 0 0 0 0 0 0 0 0 0 8014 58853 58853 58853 58853 58853 58853 
0 0 0 0 0 0 0 0 0 0 0 0 0 0 0 0 0 0 0 0 0 0 0 0 0 0 0 0 0 0 0 0 0 0 0 0 0 0 0 0 0 0 0 0 44323 58853 58853 58853 58853 58853 
0 0 0 0 0 0 0 0 0 0 0 0 0 0 0 0 0 0 0 0 0 0 0 0 0 0 0 0 0 0 0 0 0 0 0 0 0 0 0 0 0 0 0 0 8014 58853 58853 58853 58853 58853 
0 0 0 0 0 0 0 0 0 0 0 0 0 0 0 0 0 0 0 0 0 0 0 0 0 0 0 0 0 0 0 0 0 0 0 0 0 0 0 0 0 0 0 0 0 44323 58853 58853 58853 58853 
0 0 0 0 0 0 0 0 0 0 0 0 0 0 0 0 0 0 0 0 0 0 0 0 0 0 0 0 0 0 0 0 0 0 0 0 0 0 0 0 0 0 0 0 0 8014 58853 58853 58853 58853 
0 0 0 0 0 0 0 0 0 0 0 0 0 0 0 0 0 0 0 0 0 0 0 0 0 0 0 0 0 0 0 0 0 0 0 0 0 0 0 0 0 0 0 0 0 0 44323 58853 58853 58853 
0 0 0 0 0 0 0 0 0 0 0 0 0 0 0 0 0 0 0 0 0 0 0 0 0 0 0 0 0 0 0 0 0 0 0 0 0 0 0 0 0 0 0 0 0 0 8014 58853 58853 58853 
0 0 0 0 0 0 0 0 0 0 0 0 0 0 0 0 0 0 0 0 0 0 0 0 0 0 0 0 0 0 0 0 0 0 0 0 0 0 0 0 0 0 0 0 0 0 0 44323 58853 58853 
0 0 0 0 0 0 0 0 0 0 0 0 0 0 0 0 0 0 0 0 0 0 0 0 0 0 0 0 0 0 0 0 0 0 0 0 0 0 0 0 0 0 0 0 0 0 0 8014 58853 58853 
0 0 0 0 0 0 0 0 0 0 0 0 0 0 0 0 0 0 0 0 0 0 0 0 0 0 0 0 0 0 0 0 0 0 0 0 0 0 0 0 0 0 0 0 0 0 0 0 44323 58853 
0 0 0 0 0 0 0 0 0 0 0 0 0 0 0 0 0 0 0 0 0 0 0 0 0 0 0 0 0 0 0 0 0 0 0 0 0 0 0 0 0 0 0 0 0 0 0 0 8014 58853 
0 0 0 0 0 0 0 0 0 0 0 0 0 0 0 0 0 0 0 0 0 0 0 0 0 0 0 0 0 0 0 0 0 0 0 0 0 0 0 0 0 0 0 0 0 0 0 0 0 44323 
