P2
100 100
65535
58853 58853 58853 58853 58853 58853 58853 58853 58853 58853 58853 58853 58853 58853 58853 58853 58853 58853 58853 58853 58853 58853 58853 58853 58853 58853 58853 58853 58853 58853 58853 58853 58853 58853 58853 58853 58853 58853 58853 58853 58853 58853 58853 58853 58853 58853 58853 58891 59501 58853 58853 58853 59501 58891 58853 58853 58853 58853 58853 58853 58853 58853 58853 58853 58853 58853 58853 58853 58853 58853 58853 58853 58853 58853 58853 58853 58853 58853 58853 58853 58853 58853 58853 58853 58853 58853 58853 58853 58853 58853 58853 58853 58853 58853 58853 58853 58853 58853 58853 58853 
20907 58853 58853 58853 58853 58853 58853 58853 58853 58853 58853 58853 58853 58853 58853 58853 58853 58853 58853 58853 58853 58853 58853 58853 58853 58853 58853 58853 58853 58853 58853 58853 58853 58853 58853 58853 58853 58853 58853 58853 58853 58853 58853 58853 58853 58853 59363 58853 61437 64094 65051 64094 61437 58853 59363 58853 58853 58853 58853 58853 58853 58853 58853 58853 58853 58853 58853 58853 58853 58853 58853 58853 58853 58853 58853 58853 58853 58853 58853 58853 58853 58853 58853 58853 58853 58853 58853 58853 58853 58853 58853 58853 58853 58853 58853 58853 58853 58853 58853 58853 
0 20907 58853 58853 58853 58853 58853 58853 58853 58853 58853 58853 58853 58853 58853 58853 58853 58853 58853 58853 58853 58853 58853 58853 58853 58853 58853 58853 58853 58853 58853 58853 58853 58853 58853 58853 58853 58853 58853 58853 58853 58853 58853 58853 58853 58891 58853 63816 65535 65535 65535 65535 65535 63816 58853 58891 58853 58853 58853 58853 58853 58853 58853 58853 58853 58853 58853 58853 58853 58853 58853 58853 58853 58853 58853 58853 58853 58853 58853 58853 58853 58853 58853 58853 58853 58853 58853 58853 58853 58853 58853 58853 58853 58853 58853 58853 58853 58853 58853 58853 
0 0 20907 58853 58853 58853 58853 58853 58853 58853 58853 58853 58853 58853 58853 58853 58853 58853 58853 58853 58853 58853 58853 58853 58853 58853 58853 58853 58853 58853 58853 58853 58853 58853 58853 58853 58853 58853 58853 58853 58853 58853 58853 58853 58853 59501 61437 65535 65535 65535 65535 65535 65535 65535 61437 59501 58853 58853 58853 58853 58853 58853 58853 58853 58853 58853 58853 58853 58853 58853 58853 58853 58853 58853 58853 58853 58853 58853 58853 58853 58853 58853 58853 58853 58853 58853 58853 58853 58853 58853 58853 58853 58853 58853 58853 58853 58853 58853 58853 58853 
0 0 0 20907 58853 58853 58853 58853 58853 58853 58853 58853 58853 58853 58853 58853 58853 58853 58853 58853 58853 58853 58853 58853 58853 58853 58853 58853 58853 58853 58853 58853 58853 58853 58853 58853 58853 58853 58853 58853 58853 58853 58853 58853 58853 58853 64094 65535 65535 65535 65535 65535 65535 65535 64094 58853 58853 58853 58853 58853 58853 58853 58853 58853 58853 58853 58853 58853 58853 58853 58853 58853 58853 58853 58853 58853 58853 58853 58853 58853 58853 58853 58853 58853 58853 58853 58853 58853 58853 58853 58853 58853 58853 58853 58853 58853 58853 58853 58853 58853 
0 0 0 0 20907 58853 58853 58853 58853 58853 58853 58853 58853 58853 58853 58853 58853 58853 58853 58853 58853 58853 58853 58853 58853 58853 58853 58853 58853 58853 58853 58853 58853 58853 58853 58853 58853 58853 58853 58853 58853 58853 58853 58853 58853 58853 65051 65535 65535 65535 65535 65535 65535 65535 65051 58853 58853 58853 58853 58853 58853 58853 58853 58853 58853 58853 58853 58853 58853 58853 58853 58853 58853 58853 58853 58853 58853 58853 58853 58853 58853 58853 58853 58853 58853 58853 58853 58853 58853 58853 58853 58853 58853 58853 58853 58853 58853 58853 58853 58853 
0 0 0 0 0 20907 58853 58853 58853 58853 58853 58853 58853 58853 58853 58853 58853 58853 58853 58853 58853 58853 58853 58853 58853 58853 58853 58853 58853 58853 58853 58853 58853 58853 58853 58853 58853 58853 58853 58853 58853 58853 58853 58853 58853 58853 64094 65535 65535 65535 65535 65535 65535 65535 64094 58853 58853 58853 58853 58853 58853 58853 58853 58853 58853 58853 58853 58853 58853 58853 58853 58853 58853 58853 58853 58853 58853 58853 58853 58853 58853 58853 58853 58853 58853 58853 58853 58853 58853 58853 58853 58853 58853 58853 58853 58853 58853 58853 58853 58853 
0 0 0 0 0 0 20907 58853 58853 58853 58853 58853 58853 58853 58853 58853 58853 58853 58853 58853 58853 58853 58853 58853 58853 58853 58853 58853 58853 58853 58853 58853 58853 58853 58853 58853 58853 58853 58853 58853 58853 58853 58853 58853 58853 59501 61437 65535 65535 65535 65535 65535 65535 65535 61437 59501 58853 58853 58853 58853 58853 58853 58853 58853 58853 58853 58853 58853 58853 58853 58853 58853 58853 58853 58853 58853 58853 58853 58853 58853 58853 58853 58853 58853 58853 58853 58853 58853 58853 58853 58853 58853 58853 58853 58853 58853 58853 58853 58853 58853 
0 0 0 0 0 0 0 20907 58853 58853 58853 58853 58853 58853 58853 58853 58853 58853 58853 58853 58853 58853 58853 58853 58853 58853 58853 58853 58853 58853 58853 58853 58853 58853 58853 58853 58853 58853 58853 58853 58853 58853 58853 58853 58853 58891 58853 63816 65535 65535 65535 65535 65535 63816 58853 58891 58853 58853 58853 58853 58853 58853 58853 58853 58853 58853 58853 58853 58853 58853 58853 58853 58853 58853 58853 58853 58853 58853 58853 58853 58853 58853 58853 58853 58853 58853 58853 58853 58853 58853 58853 58853 58853 58853 58853 58853 58853 58853 58853 58853 
0 0 0 0 0 0 0 0 20907 58853 58853 58853 58853 58853 58853 58853 58853 58853 58853 58853 58853 58853 58853 58853 58853 58853 58853 58853 58853 58853 58853 58853 58853 58853 58853 58853 58853 58853 58853 58853 58853 58853 58853 58853 58853 58853 59363 58853 61437 64094 65051 64094 61437 58853 59363 58853 58853 58853 58853 58853 58853 58853 58853 58853 58853 58853 58853 58853 58853 58853 58853 58853 58853 58853 58853 58853 58853 58853 58853 58853 58853 58853 58853 58853 58853 58853 58853 58853 58853 58853 58853 58853 58853 58853 58853 58853 58853 58853 58853 58853 
0 0 0 0 0 0 0 0 0 20907 58853 58853 58853 58853 58853 58853 58853 58853 58853 58853 58853 58853 58853 58853 58853 58853 58853 58853 58853 58853 58853 58853 58853 58853 58853 58853 58853 58853 58853 58853 58853 58853 58853 58853 58853 58853 58853 58891 59501 58853 58853 58853 59501 58891 58853 58853 58853 58853 58853 58853 58853 58853 58853 58853 58853 58853 58853 58853 58853 58853 58853 58853 58853 58853 58853 58853 58853 58853 58853 58853 58853 58853 58853 58853 58853 58853 58853 58853 58853 58853 58853 58853 58853 58853 58853 58853 58853 58853 58853 58853 
0 0 0 0 0 0 0 0 0 0 20907 58853 58853 58853 58853 58853 58853 58853 58853 58853 58853 58853 58853 58853 58853 58853 58853 58853 58853 58853 58853 58853 58853 58853 58853 58853 58853 58853 58853 58853 58853 58853 58853 58853 58853 58853 58853 58853 58853 58853 58853 58853 58853 58853 58853 58853 58853 58853 58853 58853 58853 58853 58853 58853 58853 58853 58853 58853 58853 58853 58853 58853 58853 58853 58853 58853 58853 58853 58853 58853 58853 58853 58853 58853 58853 58853 58853 58853 58853 58853 58853 58853 58853 58853 58853 58853 58853 58853 58853 58853 
0 0 0 0 0 0 0 0 0 0 0 20907 58853 58853 58853 58853 58853 58853 58853 58853 58853 58853 58853 58853 58853 58853 58853 58853 58853 58853 58853 58853 58853 58853 58853 58853 58853 58853 58853 58853 58853 58853 58853 58853 58853 58853 58853 58853 58853 58853 58853 58853 58853 58853 58853 58853 58853 58853 58853 58853 58853 58853 58853 58853 58853 58853 58853 58853 58853 58853 58853 58853 58853 58853 58853 58853 58853 58853 58853 58853 58853 58853 58853 58853 58853 58853 58853 58853 58853 58853 58853 58853 58853 58853 58853 58853 58853 58853 58853 58853 
0 0 0 0 0 0 0 0 0 0 0 0 20907 58853 58853 58853 58853 58853 58853 58853 58853 58853 58853 58853 58853 58853 58853 58853 58853 58853 58853 58853 58853 58853 58853 58853 58853 58853 58853 58853 58853 58853 58853 58853 58853 58853 58853 58853 58853 58853 58853 58853 58853 58853 58853 58853 58853 58853 58853 58853 58853 58853 58853 58853 58853 58853 58853 58853 58853 58853 58853 58853 58853 58853 58853 58853 58853 58853 58853 58853 58853 58853 58853 58853 58853 58853 58853 58853 58853 58853 58853 58853 58853 58853 58853 58853 58853 58853 58853 58853 
0 0 0 0 0 0 0 0 0 0 0 0 0 20907 58853 58853 58853 58853 58853 58853 58853 58853 58853 58853 58853 58853 58853 58853 58853 58853 58853 58853 58853 58853 58853 58853 58853 58853 58853 58853 58853 58853 58853 58853 58853 58853 58853 58853 58853 58853 58853 58853 58853 58853 58853 58853 58853 58853 58853 58853 58853 58853 58853 58853 58853 58853 58853 58853 58853 58853 58853 58853 58853 58853 58853 58853 58853 58853 58853 58853 58853 58853 58853 58853 58853 58853 58853 58853 58853 58853 58853 58853 58853 58853 58853 58853 58853 58853 58853 58853 
0 0 0 0 0 0 0 0 0 0 0 0 0 0 20907 58853 58853 58853 58853 58853 58853 58853 58853 58853 58853 58853 58853 58853 58853 58853 58853 58853 58853 58853 58853 58853 58853 58853 58853 58853 58853 58853 58853 58853 58853 58853 58853 58853 58853 58853 58853 58853 58853 58853 58853 58853 58853 58853 58853 58853 58853 58853 58853 58853 58853 58853 58853 58853 58853 58853 58853 58853 58853 58853 58853 58853 58853 58853 58853 58853 58853 58853 58853 58853 58853 58853 58853 58853 58853 58853 58853 58853 58853 58853 58853 58853 58853 58853 58853 58853 
0 0 0 0 0 0 0 0 0 0 0 0 0 0 0 20907 58853 58853 58853 58853 58853 58853 58853 58853 58853 58853 58853 58853 58853 58853 58853 58853 58853 58853 58853 58853 58853 58853 58853 58853 58853 58853 58853 58853 58853 58853 58853 58853 58853 58853 58853 58853 58853 58853 58853 58853 58853 58853 58853 58853 58853 58853 58853 58853 58853 58853 58853 58853 58853 58853 58853 58853 58853 58853 58853 58853 58853 58853 58853 58853 58853 58853 58853 58853 58853 58853 58853 58853 58853 58853 58853 58853 58853 58853 58853 58853 58853 58853 58853 58853 
0 0 0 0 0 0 0 0 0 0 0 0 0 0 0 0 20907 58853 58853 58853 58853 58853 58853 58853 58853 58853 58853 58853 58853 58853 58853 58853 58853 58853 58853 58853 58853 58853 58853 58853 58853 58853 58853 58853 58853 58853 58853 58853 58853 58853 58853 58853 58853 58853 58853 58853 58853 58853 58853 58853 58853 58853 58853 58853 58853 58853 58853 58853 58853 58853 58853 58853 58853 58853 58853 58853 58853 58853 58853 58853 58853 58853 58853 58853 58853 58853 58853 58853 58853 58853 58853 58853 58853 58853 58853 58853 58853 58853 58853 58853 
0 0 0 0 0 0 0 0 0 0 0 0 0 0 0 0 0 20907 58853 58853 58853 58853 58853 58853 58853 58853 58853 58853 58853 58853 58853 58853 58853 58853 58853 58853 58853 58853 58853 58853 58853 58853 58853 58853 58853 58853 58853 58853 58853 58853 58853 58853 58853 58853 58853 58853 58853 58853 58853 58853 58853 58853 58853 58853 58853 58853 58853 58853 58853 58853 58853 58853 58853 58853 58853 58853 58853 58853 58853 58853 58853 58853 58853 58853 58853 58853 58853 58853 58853 58853 58853 58853 58853 58853 58853 58853 58853 58853 58853 58853 
0 0 0 0 0 0 0 0 0 0 0 0 0 0 0 0 0 0 20907 58853 58853 58853 58853 58853 58853 58853 58853 58853 58853 58853 58853 58853 58853 58853 58853 58853 58853 58853 58853 58853 58853 58853 58853 58853 58853 58853 58853 58853 58853 58853 58853 58853 58853 58853 58853 58853 58853 58853 58853 58853 58853 58853 58853 58853 58853 58853 58853 58853 58853 58853 58853 58853 58853 58853 58853 58853 58853 58853 58853 58853 58853 58853 58853 58853 58853 58853 58853 58853 58853 58853 58853 58853 58853 58853 58853 58853 58853 58853 58853 58853 
0 0 0 0 0 0 0 0 0 0 0 0 0 0 0 0 0 0 0 20907 58853 58853 58853 58853 58853 58853 58853 58853 58853 58853 58853 58853 58853 58853 58853 58853 58853 58853 58853 58853 58853 58853 58853 58853 58853 58853 58853 58853 58853 58853 58853 58853 58853 58853 58853 58853 58853 58853 58853 58853 58853 58853 58853 58853 58853 58853 58853 58853 58853 58853 58853 58853 58853 58853 58853 58853 58853 58853 58853 58853 58853 58853 58853 58853 58853 58853 58853 58853 58853 58853 58853 58853 58853 58853 58853 58853 58853 58853 58853 58853 
0 0 0 0 0 0 0 0 0 0 0 0 0 0 0 0 0 0 0 0 20907 58853 58853 58853 58853 58853 58853 58853 58853 58853 58853 58853 58853 58853 58853 58853 58853 58853 58853 58853 58853 58853 58853 58853 58853 58853 58853 58853 58853 58853 58853 58853 58853 58853 58853 58853 58853 58853 58853 58853 58853 58853 58853 58853 58853 58853 58853 58853 58853 58853 58853 58853 58853 58853 58853 58853 58853 58853 58853 58853 58853 58853 58853 58853 58853 58853 58853 58853 58853 58853 58853 58853 58853 58853 58853 58853 58853 58853 58853 58853 
0 0 0 0 0 0 0 0 0 0 0 0 0 0 0 0 0 0 0 0 0 20907 58853 58853 58853 58853 58853 58853 58853 58853 58853 58853 58853 58853 58853 58853 58853 58853 58853 58853 58853 58853 58853 58853 58853 58853 58853 58853 58853 58853 58853 58853 58853 58853 58853 58853 58853 58853 58853 58853 58853 58853 58853 58853 58853 58853 58853 58853 58853 58853 58853 58853 58853 58853 58853 58853 58853 58853 58853 58853 58853 58853 58853 58853 58853 58853 58853 58853 58853 58853 58853 58853 58853 58853 58853 58853 58853 58853 58853 58853 
0 0 0 0 0 0 0 0 0 0 0 0 0 0 0 0 0 0 0 0 0 0 20907 58853 58853 58853 58853 58853 58853 58853 58853 58853 58853 58853 58853 58853 58853 58853 58853 58853 58853 58853 58853 58853 58853 58853 58853 58853 58853 58853 58853 58853 58853 58853 58853 58853 58853 58853 58853 58853 58853 58853 58853 58853 58853 58853 58853 58853 58853 58853 58853 58853 58853 58853 58853 58853 58853 58853 58853 58853 58853 58853 58853 58853 58853 58853 58853 58853 58853 58853 58853 58853 58853 58853 58853 58853 58853 58853 58853 58853 
0 0 0 0 0 0 0 0 0 0 0 0 0 0 0 0 0 0 0 0 0 0 0 20907 58853 58853 58853 58853 58853 58853 58853 58853 58853 58853 58853 58853 58853 58853 58853 58853 58853 58853 58853 58853 58853 58853 58853 58853 58853 58853 58853 58853 58853 58853 58853 58853 58853 58853 58853 58853 58853 58853 58853 58853 58853 58853 58853 58853 58853 58853 58853 58853 58853 58853 58853 58853 58853 58853 58853 58853 58853 58853 58853 58853 58853 58853 58853 58853 58853 58853 58853 58853 58853 58853 58853 58853 58853 58853 58853 58853 
0 0 0 0 0 0 0 0 0 0 0 0 0 0 0 0 0 0 0 0 0 0 0 0 20907 58853 58853 58853 58853 58853 58853 58853 58853 58853 58853 58853 58853 58853 58853 58853 58853 58853 58853 58853 58853 58853 58853 58853 58853 58853 58853 58853 58853 58853 58853 58853 58853 58853 58853 58853 58853 58853 58853 58853 58853 58853 58853 58853 58853 58853 58853 58853 58853 58853 58853 58853 58853 58853 58853 58853 58853 58853 58853 58853 58853 58853 58853 58853 58853 58853 58853 58853 58853 58853 58853 58853 58853 58853 58853 58853 
0 0 0 0 0 0 0 0 0 0 0 0 0 0 0 0 0 0 0 0 0 0 0 0 0 20907 58853 58853 58853 58853 58853 58853 58853 58853 58853 58853 58853 58853 58853 58853 58853 58853 58853 58853 58853 58853 58853 58853 58853 58853 58853 58853 58853 58853 58853 58853 58853 58853 58853 58853 58853 58853 58853 58853 58853 58853 58853 58853 58853 58853 58853 58853 58853 58853 58853 58853 58853 58853 58853 58853 58853 58853 58853 58853 58853 58853 58853 58853 58853 58853 58853 58853 58853 58853 58853 58853 58853 58853 58853 58853 
0 0 0 0 0 0 0 0 0 0 0 0 0 0 0 0 0 0 0 0 0 0 0 0 0 0 20907 58853 58853 58853 58853 58853 58853 58853 58853 58853 58853 58853 58853 58853 58853 58853 58853 58853 58853 58853 58853 58853 58853 58853 58853 58853 58853 58853 58853 58853 58853 58853 58853 58853 58853 58853 58853 58853 58853 58853 58853 58853 58853 58853 58853 58853 58853 58853 58853 58853 58853 58853 58853 58853 58853 58853 58853 58853 58853 58853 58853 58853 58853 58853 58853 58853 58853 58853 58853 58853 58853 58853 58853 58853 
0 0 0 0 0 0 0 0 0 0 0 0 0 0 0 0 0 0 0 0 0 0 0 0 0 0 0 20907 58853 58853 58853 58853 58853 58853 58853 58853 58853 58853 58853 58853 58853 58853 58853 58853 58853 58853 58853 58853 58853 58853 58853 58853 58853 58853 58853 58853 58853 58853 58853 58853 58853 58853 58853 58853 58853 58853 58853 58853 58853 58853 58853 58853 58853 58853 58853 58853 58853 58853 58853 58853 58853 58853 58853 58853 58853 58853 58853 58853 58853 58853 58853 58853 58853 58853 58853 58853 58853 58853 58853 58853 
0 0 0 0 0 0 0 0 0 0 0 0 0 0 0 0 0 0 0 0 0 0 0 0 0 0 0 0 20907 58853 58853 58853 58853 58853 58853 58853 58853 58853 58853 58853 58853 58853 58853 58853 58853 58853 58853 58853 58853 58853 58853 58853 58853 58853 58853 58853 58853 58853 58853 58853 58853 58853 58853 58853 58853 58853 58853 58853 58853 58853 58853 58853 58853 58853 58853 58853 58853 58853 58853 58853 58853 58853 58853 58853 58853 58853 58853 58853 58853 58853 58853 58853 58853 58853 58853 58853 58853 58853 58853 58853 
0 0 0 0 0 0 0 0 0 0 0 0 0 0 0 0 0 0 0 0 0 0 0 0 0 0 0 0 0 20907 58853 58853 58853 58853 58853 58853 58853 58853 58853 58853 58853 58853 58853 58853 58853 58853 58853 58853 58853 58853 58853 58853 58853 58853 58853 58853 58853 58853 58853 58853 58853 58853 58853 58853 58853 58853 58853 58853 58853 58853 58853 58853 58853 58853 58853 58853 58853 58853 58853 58853 58853 58853 58853 58853 58853 58853 58853 58853 58853 58853 58853 58853 58853 58853 58853 58853 58853 58853 58853 58853 
0 0 0 0 0 0 0 0 0 0 0 0 0 0 0 0 0 0 0 0 0 0 0 0 0 0 0 0 0 0 20907 58853 58853 58853 58853 58853 58853 58853 58853 58853 58853 58853 58853 58853 58853 58853 58853 58853 58853 58853 58853 58853 58853 58853 58853 58853 58853 58853 58853 58853 58853 58853 58853 58853 58853 58853 58853 58853 58853 58853 58853 58853 58853 58853 58853 58853 58853 58853 58853 58853 58853 58853 58853 58853 58853 58853 58853 58853 58853 58853 58853 58853 58853 58853 58853 58853 58853 58853 58853 58853 
0 0 0 0 0 0 0 0 0 0 0 0 0 0 0 0 0 0 0 0 0 0 0 0 0 0 0 0 0 0 0 20907 58853 58853 58853 58853 58853 58853 58853 58853 58853 58853 58853 58853 58853 58853 58853 58853 58853 58853 58853 58853 58853 58853 58853 58853 58853 58853 58853 58853 58853 58853 58853 58853 58853 58853 58853 58853 58853 58853 58853 58853 58853 58853 58853 58853 58853 58853 58853 58853 58853 58853 58853 58853 58853 58853 58853 58853 58853 58853 58853 58853 58853 58853 58853 58853 58853 58853 58853 58853 
0 0 0 0 0 0 0 0 0 0 0 0 0 0 0 0 0 0 0 0 0 0 0 0 0 0 0 0 0 0 0 0 20907 58853 58853 58853 58853 58853 58853 58853 58853 58853 58853 58853 58853 58853 58853 58853 58853 58853 58853 58853 58853 58853 58853 58853 58853 58853 58853 58853 58853 58853 58853 58853 58853 58853 58853 58853 58853 58853 58853 58853 58853 58853 58853 58853 58853 58853 58853 58853 58853 58853 58853 58853 58853 58853 58853 58853 58853 58853 58853 58853 58853 58853 58853 58853 58853 58853 58853 58853 
0 0 0 0 0 0 0 0 0 0 0 0 0 0 0 0 0 0 0 0 0 0 0 0 0 0 0 0 0 0 0 0 0 20907 58853 58853 58853 58853 58853 58853 58853 58853 58853 58853 58853 58853 58853 58853 58853 58853 58853 58853 58853 58853 58853 58853 58853 58853 58853 58853 58853 58853 58853 58853 58853 58853 58853 58853 58853 58853 58853 58853 58853 58853 58853 58853 58853 58853 58853 58853 58853 58853 58853 58853 58853 58853 58853 58853 58853 58853 58853 58853 58853 58853 58853 58853 58853 58853 58853 58853 
0 0 0 0 0 0 0 0 0 0 0 0 0 0 0 0 0 0 0 0 0 0 0 0 0 0 0 0 0 0 0 0 0 0 20907 58853 58853 58853 58853 58853 58853 58853 58853 58853 58853 58853 58853 58853 58853 58853 58853 58853 58853 58853 58853 58853 58853 58853 58853 58853 58853 58853 58853 58853 58853 58853 58853 58853 58853 58853 58853 58853 58853 58853 58853 58853 58853 58853 58853 58853 58853 58853 58853 58853 58853 58853 58853 58853 58853 58853 58853 58853 58853 58853 58853 58853 58853 58853 58853 58853 
0 0 0 0 0 0 0 0 0 0 0 0 0 0 0 0 0 0 0 0 0 0 0 0 0 0 0 0 0 0 0 0 0 0 0 20907 58853 58853 58853 58853 58853 58853 58853 58853 58853 58853 58853 58853 58853 58853 58853 58853 58853 58853 58853 58853 58853 58853 58853 58853 58853 58853 58853 58853 58853 58853 58853 58853 58853 58853 58853 58853 58853 58853 58853 58853 58853 58853 58853 58853 58853 58853 58853 58853 58853 58853 58853 58853 58853 58853 58853 58853 58853 58853 58853 58853 58853 58853 58853 58853 
0 0 0 0 0 0 0 0 0 0 0 0 0 0 0 0 0 0 0 0 0 0 0 0 0 0 0 0 0 0 0 0 0 0 0 0 20907 58853 58853 58853 58853 58853 58853 58853 58853 58872 58853 58853 58853 58853 58853 58853 58853 58853 58853 58853 58853 58853 58853 58853 58853 58853 58853 58853 58853 58853 58853 58853 58853 58853 58853 58853 58853 58853 58853 58853 58853 58853 58853 58853 58853 58853 58853 58853 58853 58853 58853 58853 58853 58853 58853 58853 58853 58853 58853 58853 58853 58853 58853 58853 
0 0 0 0 0 0 0 0 0 0 0 0 0 0 0 0 0 0 0 0 0 0 0 0 0 0 0 0 0 0 0 0 0 0 0 0 0 20907 58853 58853 58853 58853 59528 58853 58853 58853 58853 58853 59537 58854 58853 58853 58853 58853 58853 58853 58853 58853 58853 58853 58853 58853 58853 58853 58853 58853 58853 58853 58853 58853 58853 58853 58853 58853 58853 58853 58853 58853 58853 58853 58853 58853 58853 58853 58853 58853 58853 58853 58853 58853 58853 58853 58853 58853 58853 58853 58853 58853 58853 58853 
0 0 0 0 0 0 0 0 0 0 0 0 0 0 0 0 0 0 0 0 0 0 0 0 0 0 0 0 0 0 0 0 0 0 0 0 0 0 20907 58853 59153 58853 60233 63810 65040 65406 65014 63724 60073 58853 59163 58853 58853 58853 58853 58853 58853 58853 58853 58853 58853 58853 58853 58853 58853 58853 58853 58853 58853 58853 58853 58853 58853 58853 58853 58853 58853 58853 58853 58853 58853 58853 58853 58853 58853 58853 58853 58853 58853 58853 58853 58853 58853 58853 58853 58853 58853 58853 58853 58853 
0 0 0 0 0 0 0 0 0 0 0 0 0 0 0 0 0 0 0 0 0 0 0 0 0 0 0 0 0 0 0 0 0 0 0 0 0 0 0 32695 58853 63133 65530 65535 65535 65535 65535 65535 65532 63216 58853 59152 58853 58853 58853 58853 58853 58853 58853 58853 58853 58853 58853 58853 58853 58853 58853 58853 58853 58853 58853 58853 58853 58853 58853 58853 58853 58853 58853 58853 58853 58853 58853 58853 58853 58853 58853 58853 58853 58853 58853 58853 58853 58853 58853 58853 58853 58853 58853 58853 
0 0 0 0 0 0 0 0 0 0 0 0 0 0 0 0 0 0 0 0 0 0 0 0 0 0 0 0 0 0 0 0 0 0 0 0 0 0 3771 58853 63251 65535 65535 65535 65535 65535 65535 65535 65535 65535 63144 58853 58853 58853 58853 58853 58853 58853 58853 58853 58853 58853 58853 58853 58853 58853 58853 58853 58853 58853 58853 58853 58853 58853 58853 58853 58853 58853 58853 58853 58853 58853 58853 58853 58853 58853 58853 58853 58853 58853 58853 58853 58853 58853 58853 58853 58853 58853 58853 58853 
0 0 0 0 0 0 0 0 0 0 0 0 0 0 0 0 0 0 0 0 0 0 0 0 0 0 0 0 0 0 0 0 0 0 0 0 0 0 35721 60065 65533 65535 65535 65535 65535 65535 65535 65535 65535 65535 65530 60163 59528 58853 58853 58853 58853 58853 58853 58853 58853 58853 58853 58853 58853 58853 58853 58853 58853 58853 58853 58853 58853 58853 58853 58853 58853 58853 58853 58853 58853 58853 58853 58853 58853 58853 58853 58853 58853 58853 58853 58853 58853 58853 58853 58853 58853 58853 58853 58853 
0 0 0 0 0 0 0 0 0 0 0 0 0 0 0 0 0 0 0 0 0 0 0 0 0 0 0 0 0 0 0 0 0 0 0 0 0 317 58853 63720 65535 65535 65535 65535 65535 65535 65535 65535 65535 65535 65535 63773 58853 58853 58853 58853 58853 58853 58853 58853 58853 58853 58853 58853 58853 58853 58853 58853 58853 58853 58853 58853 58853 58853 58853 58853 58853 58853 58853 58853 58853 58853 58853 58853 58853 58853 58853 58853 58853 58853 58853 58853 58853 58853 58853 58853 58853 58853 58853 58853 
0 0 0 0 0 0 0 0 0 0 0 0 0 0 0 0 0 0 0 0 0 0 0 0 0 0 0 0 0 0 0 0 0 0 0 0 0 3811 58853 65017 65535 65535 65535 65535 65535 65535 65535 65535 65535 65535 65535 65026 58853 58853 58853 58853 58853 58853 58853 58853 58853 58853 58853 58853 58853 58853 58853 58853 58853 58853 58853 58853 58853 58853 58853 58853 58853 58853 58853 58853 58853 58853 58853 58853 58853 58853 58853 58853 58853 58853 58853 58853 58853 58853 58853 58853 58853 58853 58853 58853 
58853 58853 58853 58853 58853 58853 3678 0 0 0 0 0 0 0 0 0 0 0 0 0 0 0 0 0 0 0 0 0 0 0 0 0 0 0 0 0 0 5865 58853 65289 65535 65535 65535 65535 65535 65535 65535 65535 65535 65535 65535 65315 58853 58883 58853 58853 58853 58853 58853 58853 58853 58853 58853 58853 58853 58853 58853 58853 58853 58853 58853 58853 58853 58853 58853 58853 58853 58853 58853 58853 58853 58853 58853 58853 58853 58853 58853 58853 58853 58853 58853 58853 58853 58853 58853 58853 58853 58853 58853 58853 
58853 65117 65117 65117 65117 58853 3678 0 0 0 0 0 0 0 0 0 0 0 0 0 0 0 0 0 0 0 0 0 0 0 0 0 0 0 0 0 0 3485 58853 65059 65535 65535 65535 65535 65535 65535 65535 65535 65535 65535 65535 65038 58853 58853 58853 58853 58853 58853 58853 58853 58853 58853 58853 58853 58853 58853 58853 58853 58853 58853 58853 58853 58853 58853 58853 58853 58853 58853 58853 58853 58853 58853 58853 58853 58853 58853 58853 58853 58853 58853 58853 58853 58853 58853 58853 58853 58853 58853 58853 58853 
58853 65117 65535 65535 65117 58853 3678 0 0 0 0 0 0 0 0 0 0 0 0 0 0 0 0 0 0 0 0 0 0 0 0 0 0 0 0 0 0 193 58853 63804 65535 65535 65535 65535 65535 65535 65535 65535 65535 65535 65535 63742 58853 58853 58853 58853 58853 58853 58853 58853 58853 58853 58853 58853 58853 58853 58853 58853 58853 58853 58853 58853 58853 58853 58853 58853 58853 58853 58853 58853 58853 58853 58853 58853 58853 58853 58853 58853 58853 58853 58853 58853 58853 58853 58853 58853 58853 58853 58853 58853 
58853 65117 65535 65535 65117 58853 3678 0 0 0 0 0 0 0 0 0 0 0 0 0 0 0 0 0 0 0 0 0 0 0 0 0 0 0 0 0 0 0 34602 60218 65530 65535 65535 65535 65535 65535 65535 65535 65535 65535 65532 60104 59540 58853 58853 58853 58853 58853 58853 58853 58853 58853 58853 58853 58853 58853 58853 58853 58853 58853 58853 58853 58853 58853 58853 58853 58853 58853 58853 58853 58853 58853 58853 58853 58853 58853 58853 58853 58853 58853 58853 58853 58853 58853 58853 58853 58853 58853 58853 58853 
58853 65117 65535 65535 65117 58853 3678 0 0 0 0 0 0 0 0 0 0 0 0 0 0 0 0 0 0 0 0 0 0 0 0 0 0 0 0 0 0 0 3427 58853 63133 65535 65535 65535 65535 65535 65535 65535 65535 65535 63169 58853 58853 58853 58853 58853 58853 58853 58853 58853 58853 58853 58853 58853 58853 58853 58853 58853 58853 58853 58853 58853 58853 58853 58853 58853 58853 58853 58853 58853 58853 58853 58853 58853 58853 58853 58853 58853 58853 58853 58853 58853 58853 58853 58853 58853 58853 58853 58853 58853 
58853 58853 58853 58853 58853 58853 3678 0 0 0 0 0 0 0 0 0 0 0 0 0 0 0 0 0 0 0 0 0 0 0 0 0 0 0 0 0 0 0 0 17486 58853 63205 65535 65535 65535 65535 65535 65535 65531 63145 58853 59179 58853 58853 58853 58853 58853 58853 58853 58853 58853 58853 58853 58853 58853 58853 58853 58853 58853 58853 58853 58853 58853 58853 58853 58853 58853 58853 58853 58853 58853 58853 58853 58853 58853 58853 58853 58853 58853 58853 58853 58853 58853 58853 58853 58853 58853 58853 58853 58853 
3678 3678 3678 3678 3678 3678 0 0 0 0 0 0 0 0 0 0 0 0 0 0 0 0 0 0 0 0 0 0 0 0 0 0 0 0 0 0 0 0 0 0 18628 58853 60075 63726 65025 65332 65056 63768 60152 58853 32508 58853 58853 58853 58853 58853 58853 58853 58853 58853 58853 58853 58853 58853 58853 58853 58853 58853 58853 58853 58853 58853 58853 58853 58853 58853 58853 58853 58853 58853 58853 58853 58853 58853 58853 58853 58853 58853 58853 58853 58853 58853 58853 58853 58853 58853 58853 58853 58853 58853 
0 0 0 0 0 0 0 0 0 0 0 0 0 0 0 0 0 0 0 0 0 0 0 0 0 0 0 0 0 0 0 0 0 0 0 0 0 0 0 0 0 3601 36021 58853 58853 58853 58853 58853 34912 3432 0 20907 58853 58853 58853 58853 58853 58853 58853 58853 58853 58853 58853 58853 58853 58853 58853 58853 58853 58853 58853 58853 58853 58853 58853 58853 58853 58853 58853 58853 58853 58853 58853 58853 58853 58853 58853 58853 58853 58853 58853 58853 58853 58853 58853 58853 58853 58853 58853 58853 
0 0 0 0 0 0 0 0 0 0 0 0 0 0 0 0 0 0 0 0 0 0 0 0 0 0 0 0 0 0 0 0 0 0 0 0 0 0 0 0 0 0 0 262 3944 6122 3594 0 0 0 0 0 20907 58853 58853 58853 58853 58853 58853 58853 58853 58853 58853 58853 58853 58853 58853 58853 58853 58853 58853 58853 58853 58853 58853 58853 58853 58853 58853 58853 58853 58853 58853 58853 58853 58853 58853 58853 58853 58853 58853 58853 58853 58853 58853 58853 58853 58853 58853 58853 
0 0 0 0 0 0 0 0 0 0 0 0 0 0 0 0 0 0 0 0 0 0 0 0 0 0 0 0 0 0 0 0 0 0 0 0 0 0 0 0 0 0 0 0 0 0 0 0 0 0 0 0 0 20907 58853 58853 58853 58853 58853 58853 58853 58853 58853 58853 58853 58853 58853 58853 58853 58853 58853 58853 58853 58853 58853 58853 58853 58853 58853 58853 58853 58853 58853 58853 58853 58853 58853 58853 58853 58853 58853 58853 58853 58853 58853 58853 58853 58853 58853 58853 
0 0 0 0 0 0 0 0 0 0 0 0 0 0 0 0 0 0 0 0 0 0 0 0 0 0 0 0 0 0 0 0 0 0 0 0 0 0 0 0 0 0 0 0 0 0 0 0 0 0 0 0 0 0 20907 58853 58853 58853 58853 58853 58853 58853 58853 58853 58853 58853 58853 58853 58853 58853 58853 58853 58853 58853 58853 58853 58853 58853 58853 58853 58853 58853 58853 58853 58853 58853 58853 58853 58853 58853 58853 58853 58853 58853 58853 58853 58853 58853 58853 58853 
0 0 0 0 0 0 0 0 0 0 0 0 0 0 0 0 0 0 0 0 0 0 0 0 0 0 0 0 0 0 0 0 0 0 0 0 0 0 0 0 0 0 0 0 0 0 0 0 0 0 0 0 0 0 0 20907 58853 58853 58853 58853 58853 58853 58853 58853 58853 58853 58853 58853 58853 58853 58853 58853 58853 58853 58853 58853 58853 58853 58853 58853 58853 58853 58853 58853 58853 58853 58853 58853 58853 58853 58853 58853 58853 58853 58853 58853 58853 58853 58853 58853 
0 0 0 0 0 0 0 0 0 0 0 0 0 0 0 0 0 0 0 0 0 0 0 0 0 0 0 0 0 0 0 0 0 0 0 0 0 0 0 0 0 0 0 0 0 0 0 0 0 0 0 0 0 0 0 0 20907 58853 58853 58853 58853 58853 58853 58853 58853 58853 58853 58853 58853 58853 58853 58853 58853 58853 58853 58853 58853 58853 58853 58853 58853 58853 58853 58853 58853 58853 58853 58853 58853 58853 58853 58853 58853 58853 58853 58853 58853 58853 58853 58853 
0 0 0 0 0 0 0 0 0 0 0 0 0 0 0 0 0 0 0 0 0 0 0 0 0 0 0 0 0 0 0 0 0 0 0 0 0 0 0 0 0 0 0 0 0 0 0 0 0 0 0 0 0 0 0 0 0 20907 58853 58853 58853 58853 58853 58853 58853 58853 58853 58853 58853 58853 58853 58853 58853 58853 58853 58853 58853 58853 58853 58853 58853 58853 58853 58853 58853 58853 58853 58853 58853 58853 58853 58853 58853 58853 58853 58853 58853 58853 58853 58853 
0 0 0 0 0 0 0 0 0 0 0 0 0 0 0 0 0 0 0 0 0 0 0 0 0 0 0 0 0 0 0 0 0 0 0 0 0 0 0 0 0 0 0 0 0 0 0 0 0 0 0 0 0 0 0 0 0 0 20907 58853 58853 58853 58853 58853 58853 58853 58853 58853 58853 58853 58853 58853 58853 58853 58853 58853 58853 58853 58853 58853 58853 58853 58853 58853 58853 58853 58853 58853 58853 58853 58853 58853 58853 58853 58853 58853 58853 58853 58853 58853 
0 0 0 0 0 0 0 0 0 0 0 0 0 0 0 0 0 0 0 0 0 0 0 0 0 0 0 0 0 0 0 0 0 0 0 0 0 0 0 0 0 0 0 0 0 0 0 0 0 0 0 0 0 0 0 0 0 0 0 20907 58853 58853 58853 58853 58853 58853 58853 58853 58853 58853 58853 58853 58853 58853 58853 58853 58853 58853 58853 58853 58853 58853 58853 58853 58853 58853 58853 58853 58853 58853 58853 58853 58853 58853 58853 58853 58853 58853 58853 58853 
0 0 0 0 0 0 0 0 0 0 0 0 0 0 0 0 0 0 0 0 0 0 0 0 0 0 0 0 0 0 0 0 0 0 0 0 0 0 0 0 0 0 0 0 0 0 0 0 0 0 0 0 0 0 0 0 0 0 0 0 20907 58853 58853 58853 58853 58853 58853 58853 58853 58853 58853 58853 58853 58853 58853 58853 58853 58853 58853 58853 58853 58853 58853 58853 58853 58853 58853 58853 58853 58853 58853 58853 58853 58853 58853 58853 58853 58853 58853 58853 
0 0 0 0 0 0 0 0 0 0 0 0 0 0 0 0 0 0 0 0 0 0 0 0 0 0 0 0 0 0 0 0 0 0 0 0 0 0 0 0 0 0 0 0 0 0 0 0 0 0 0 0 0 0 0 0 0 0 0 0 0 20907 58853 58853 58853 58853 58853 58853 58853 58853 58853 58853 58853 58853 58853 58853 58853 58853 58853 58853 58853 58853 58853 58853 58853 58853 58853 58853 58853 58853 58853 58853 58853 58853 58853 58853 58853 58853 58853 58853 
0 0 0 0 0 0 0 0 0 0 0 0 0 0 0 0 0 0 0 0 0 0 0 0 0 0 0 0 0 0 0 0 0 0 0 0 0 0 0 0 0 0 0 0 0 0 0 0 0 0 0 0 0 0 0 0 0 0 0 0 0 0 20907 58853 58853 58853 58853 58853 58853 58853 58853 58853 58853 58853 58853 58853 58853 58853 58853 58853 58853 58853 58853 58853 58853 58853 58853 58853 58853 58853 58853 58853 58853 58853 58853 58853 58853 58853 58853 58853 
0 0 0 0 0 0 0 0 0 0 0 0 0 0 0 0 0 0 0 0 0 0 0 0 0 0 0 0 0 0 0 0 0 0 0 0 0 0 0 0 0 0 0 0 0 0 0 0 0 0 0 0 0 0 0 0 0 0 0 0 0 0 0 20907 58853 58853 58853 58853 58853 58853 58853 58853 58853 58853 58853 58853 58853 58853 58853 58853 58853 58853 58853 58853 58853 58853 58853 58853 58853 58853 58853 58853 58853 58853 58853 58853 58853 58853 58853 58853 
0 0 0 0 0 0 0 0 0 0 0 0 0 0 0 0 0 0 0 0 0 0 0 0 0 0 0 0 0 0 0 0 0 0 0 0 0 0 0 0 0 0 0 0 0 0 0 0 0 0 0 0 0 0 0 0 0 0 0 0 0 0 0 0 20907 58853 58853 58853 58853 58853 58853 58853 58853 58853 58853 58853 58853 58853 58853 58853 58853 58853 58853 58853 58853 58853 58853 58853 58853 58853 58853 58853 58853 58853 58853 58853 58853 58853 58853 58853 
0 0 0 0 0 0 0 0 0 0 0 0 0 0 0 0 0 0 0 0 0 0 0 0 0 0 0 0 0 0 0 0 0 0 0 0 0 0 0 0 0 0 0 0 0 0 0 0 0 0 0 0 0 0 0 0 0 0 0 0 0 0 0 0 0 20907 58853 58853 58853 58853 58853 58853 58853 58853 58853 58853 58853 58853 58853 58853 58853 58853 58853 58853 58853 58853 58853 58853 58853 58853 58853 58853 58853 58853 58853 58853 58853 58853 58853 58853 
0 0 0 0 0 0 0 0 0 0 0 0 0 0 0 0 0 0 0 0 0 0 0 0 0 0 0 0 0 0 0 0 0 0 0 0 0 0 0 0 0 0 0 0 0 0 0 0 0 0 0 0 0 0 0 0 0 0 0 0 0 0 0 0 0 0 20907 58853 58853 58853 58853 58853 58853 58853 58853 58853 58853 58853 58853 58853 58853 58853 58853 58853 58853 58853 58853 58853 58853 58853 58853 58853 58853 58853 58853 58853 58853 58853 58853 58853 
0 0 0 0 0 0 0 0 0 0 0 0 0 0 0 0 0 0 0 0 0 0 0 0 0 0 0 0 0 0 0 0 0 0 0 0 0 0 0 0 0 0 0 0 0 0 0 0 0 0 0 0 0 0 0 0 0 0 0 0 0 0 0 0 0 0 0 20907 58853 58853 58853 58853 58853 58853 58853 58853 58853 58853 58853 58853 58853 58853 58853 58853 58853 58853 58853 58853 58853 58853 58853 58853 58853 58853 58853 58853 58853 58853 58853 58853 
0 0 0 0 0 0 0 0 0 0 0 0 0 0 0 0 0 0 0 0 0 0 0 0 0 0 0 0 0 0 0 0 0 0 0 0 0 0 0 0 0 0 0 0 0 0 0 0 0 0 0 0 0 0 0 0 0 0 0 0 0 0 0 0 0 0 0 0 20907 58853 58853 58853 58853 58853 58853 58853 58853 58853 58853 58853 58853 58853 58853 58853 58853 58853 58853 58853 58853 58853 58853 58853 58853 58853 58853 58853 58853 58853 58853 58853 
0 0 0 0 0 0 0 0 0 0 0 0 0 0 0 0 0 0 0 0 0 0 0 0 0 0 0 0 0 0 0 0 0 0 0 0 0 0 0 0 0 0 0 0 0 0 0 0 0 0 0 0 0 0 0 0 0 0 0 0 0 0 0 0 0 0 0 0 0 20907 58853 58853 58853 58853 58853 58853 58853 58853 58853 58853 58853 58853 58853 58853 58853 58853 58853 58853 58853 58853 58853 58853 58853 58853 58853 58853 58853 58853 58853 58853 
0 0 0 0 0 0 0 0 0 0 0 0 0 0 0 0 0 0 0 0 0 0 0 0 0 0 0 0 0 0 0 0 0 0 0 0 0 0 0 0 0 0 0 0 0 0 0 0 0 0 0 0 0 0 0 0 0 0 0 0 0 0 0 0 0 0 0 0 0 0 20907 58853 58853 58853 58853 58853 58853 58853 58853 58853 58853 58853 58853 58853 58853 58853 58853 58853 58853 58853 58853 58853 58853 58853 58853 58853 58853 58853 58853 58853 
0 0 0 0 0 0 0 0 0 0 0 0 0 0 0 0 0 0 0 0 0 0 0 0 0 0 0 0 0 0 0 0 0 0 0 0 0 0 0 0 0 0 0 0 0 0 0 0 0 0 0 0 0 0 0 0 0 0 0 0 0 0 0 0 0 0 0 0 0 0 0 20907 58853 58853 58853 58853 58853 58853 58853 58853 58853 58853 58853 58853 58853 58853 58853 58853 58853 58853 58853 58853 58853 58853 58853 58853 58853 58853 58853 58853 
0 0 0 0 0 0 0 0 0 0 0 0 0 0 0 0 0 0 0 0 0 0 0 0 0 0 0 0 0 0 0 0 0 0 0 0 0 0 0 0 0 0 0 0 0 0 0 0 0 0 0 0 0 0 0 0 0 0 0 0 0 0 0 0 0 0 0 0 0 0 0 0 20907 58853 58853 58853 58853 58853 58853 58853 58853 58853 58853 58853 58853 58853 58853 58853 58853 58853 58853 58853 58853 58853 58853 58853 58853 58853 58853 58853 
0 0 0 0 0 0 0 0 0 0 0 0 0 0 0 0 0 0 0 0 0 0 0 0 0 0 0 0 0 0 0 0 0 0 0 0 0 0 0 0 0 0 0 0 0 0 0 0 0 0 0 0 0 0 0 0 0 0 0 0 0 0 0 0 0 0 0 0 0 0 0 0 0 20907 58853 58853 58853 58853 58853 58853 58853 58853 58853 58853 58853 58853 58853 58853 58853 58853 58853 58853 58853 58853 58853 58853 58853 58853 58853 58853 
0 0 0 0 0 0 0 0 0 0 0 0 0 0 0 0 0 0 0 0 0 0 0 0 0 0 0 0 0 0 0 0 0 0 0 0 0 0 0 0 0 0 0 0 0 0 0 0 0 0 0 0 0 0 0 0 0 0 0 0 0 0 0 0 0 0 0 0 0 0 0 0 0 0 20907 58853 58853 58853 58853 58853 58853 58853 58853 58853 58853 58853 58853 58853 58853 58853 58853 58853 58853 58853 58853 58853 58853 58853 58853 58853 
0 0 0 0 0 0 0 0 0 0 0 0 0 0 0 0 0 0 0 0 0 0 0 0 0 0 0 0 0 0 0 0 0 0 0 0 0 0 0 0 0 0 0 0 0 0 0 0 0 0 0 0 0 0 0 0 0 0 0 0 0 0 0 0 0 0 0 0 0 0 0 0 0 0 0 20907 58853 58853 58853 58853 58853 58853 58853 58853 58853 58853 58853 58853 58853 58853 58853 58853 58853 58853 58853 58853 58853 58853 58853 58853 
0 0 0 0 0 0 0 0 0 0 0 0 0 0 0 0 0 0 0 0 0 0 0 0 0 0 0 0 0 0 0 0 0 0 0 0 0 0 0 0 0 0 0 0 0 0 0 0 0 0 0 0 0 0 0 0 0 0 0 0 0 0 0 0 0 0 0 0 0 0 0 0 0 0 0 0 20907 58853 58853 58853 58853 58853 58853 58853 58853 58853 58853 58853 58853 58853 58853 58853 58853 58853 58853 58853 58853 58853 58853 58853 
0 0 0 0 0 0 0 0 0 0 0 0 0 0 0 0 0 0 0 0 0 0 0 0 0 0 0 0 0 0 0 0 0 0 0 0 0 0 0 0 0 0 0 0 0 0 0 0 0 0 0 0 0 0 0 0 0 0 0 0 0 0 0 0 0 0 0 0 0 0 0 0 0 0 0 0 0 20907 58853 58853 58853 58853 58853 58853 58853 58853 58853 58853 58853 58853 58853 58853 58853 58853 58853 58853 58853 58853 58853 58853 
0 0 0 0 0 0 0 0 0 0 0 0 0 0 0 0 0 0 0 0 0 0 0 0 0 0 0 0 0 0 0 0 0 0 0 0 0 0 0 0 0 0 0 0 0 0 0 0 0 0 0 0 0 0 0 0 0 0 0 0 0 0 0 0 0 0 0 0 0 0 0 0 0 0 0 0 0 0 20907 58853 58853 58853 58853 58853 58853 58853 58853 58853 58853 58853 58853 58853 58853 58853 58853 58853 58853 58853 58853 58853 
0 0 0 0 0 0 0 0 0 0 0 0 0 0 0 0 0 0 0 0 0 0 0 0 0 0 0 0 0 0 0 0 0 0 0 0 0 0 0 0 0 0 0 0 0 0 0 0 0 0 0 0 0 0 0 0 0 0 0 0 0 0 0 0 0 0 0 0 0 0 0 0 0 0 0 0 0 0 0 20907 58853 58853 58853 58853 58853 58853 58853 58853 58853 58853 58853 58853 58853 58853 58853 58853 58853 58853 58853 58853 
0 0 0 0 0 0 0 0 0 0 0 0 0 0 0 0 0 0 0 0 0 0 0 0 0 0 0 0 0 0 0 0 0 0 0 0 0 0 0 0 0 0 0 0 0 0 0 0 0 0 0 0 0 0 0 0 0 0 0 0 0 0 0 0 0 0 0 0 0 0 0 0 0 0 0 0 0 0 0 0 20907 58853 58853 58853 58853 58853 58853 58853 58853 58853 58853 58853 58853 58853 58853 58853 58853 58853 58853 58853 
0 0 0 0 0 0 0 0 0 0 0 0 0 0 0 0 0 0 0 0 0 0 0 0 0 0 0 0 0 0 0 0 0 0 0 0 0 0 0 0 0 0 0 0 0 0 0 0 0 0 0 0 0 0 0 0 0 0 0 0 0 0 0 0 0 0 0 0 0 0 0 0 0 0 0 0 0 0 0 0 0 20907 58853 58853 58853 58853 58853 58853 58853 58853 58853 58853 58853 58853 58853 58853 58853 58853 58853 58853 
0 0 0 0 0 0 0 0 0 0 0 0 0 0 0 0 0 0 0 0 0 0 0 0 0 0 0 0 0 0 0 0 0 0 0 0 0 0 0 0 0 0 0 0 0 0 0 0 0 0 0 0 0 0 0 0 0 0 0 0 0 0 0 0 0 0 0 0 0 0 0 0 0 0 0 0 0 0 0 0 0 0 20907 58853 58853 58853 58853 58853 58853 58853 58853 58853 58853 58853 58853 58853 58853 58853 58853 58853 
0 0 0 0 0 0 0 0 0 0 0 0 0 0 0 0 0 0 0 0 0 0 0 0 0 0 0 0 0 0 0 0 0 0 0 0 0 0 0 0 0 0 0 0 0 0 0 0 0 0 0 0 0 0 0 0 0 0 0 0 0 0 0 0 0 0 0 0 0 0 0 0 0 0 0 0 0 0 0 0 0 0 0 20907 58853 58853 58853 58853 58853 58853 58853 58853 58853 58853 58853 58853 58853 58853 58853 58853 
0 0 0 0 0 0 0 0 0 0 0 0 0 0 0 0 0 0 0 0 0 0 0 0 0 0 0 0 0 0 0 0 0 0 0 0 0 0 0 0 0 0 0 0 0 0 0 0 0 0 0 0 0 0 0 0 0 0 0 0 0 0 0 0 0 0 0 0 0 0 0 0 0 0 0 0 0 0 0 0 0 0 0 0 20907 58853 58853 58853 58853 58853 58853 58853 58853 58853 58853 58853 58853 58853 58853 58853 
0 0 0 0 0 0 0 0 0 0 0 0 0 0 0 0 0 0 0 0 0 0 0 0 0 0 0 0 0 0 0 0 0 0 0 0 0 0 0 0 0 0 0 0 0 0 0 0 0 0 0 0 0 0 0 0 0 0 0 0 0 0 0 0 0 0 0 0 0 0 0 0 0 0 0 0 0 0 0 0 0 0 0 0 0 20907 58853 58853 58853 58853 58853 58853 58853 58853 58853 58853 58853 58853 58853 58853 
0 0 0 0 0 0 0 0 0 0 0 0 0 0 0 0 0 0 0 0 0 0 0 0 0 0 0 0 0 0 0 0 0 0 0 0 0 0 0 0 0 0 0 0 0 0 0 0 0 0 0 0 0 0 0 0 0 0 0 0 0 0 0 0 0 0 0 0 0 0 0 0 0 0 0 0 0 0 0 0 0 0 0 0 0 0 20907 58853 58853 58853 58853 58853 58853 58853 58853 58853 58853 58853 58853 58853 
0 0 0 0 0 0 0 0 0 0 0 0 0 0 0 0 0 0 0 0 0 0 0 0 0 0 0 0 0 0 0 0 0 0 0 0 0 0 0 0 0 0 0 0 0 0 0 0 0 0 0 0 0 0 0 0 0 0 0 0 0 0 0 0 0 0 0 0 0 0 0 0 0 0 0 0 0 0 0 0 0 0 0 0 0 0 0 20907 58853 58853 58853 58853 58853 58853 58853 58853 58853 58853 58853 58853 
0 0 0 0 0 0 0 0 0 0 0 0 0 0 0 0 0 0 0 0 0 0 0 0 0 0 0 0 0 0 0 0 0 0 0 0 0 0 0 0 0 0 0 0 0 0 0 0 0 0 0 0 0 0 0 0 0 0 0 0 0 0 0 0 0 0 0 0 0 0 0 0 0 0 0 0 0 0 0 0 0 0 0 0 0 0 0 0 20907 58853 58853 58853 58853 58853 58853 58853 58853 58853 58853 58853 
0 0 0 0 0 0 0 0 0 0 0 0 0 0 0 0 0 0 0 0 0 0 0 0 0 0 0 0 0 0 0 0 0 0 0 0 0 0 0 0 0 0 0 0 0 0 0 0 0 0 0 0 0 0 0 0 0 0 0 0 0 0 0 0 0 0 0 0 0 0 0 0 0 0 0 0 0 0 0 0 0 0 0 0 0 0 0 0 0 20907 58853 58853 58853 58853 58853 58853 58853 58853 58853 58853 
0 0 0 0 0 0 0 0 0 0 0 0 0 0 0 0 0 0 0 0 0 0 0 0 0 0 0 0 0 0 0 0 0 0 0 0 0 0 0 0 0 0 0 0 0 0 0 0 0 0 0 0 0 0 0 0 0 0 0 0 0 0 0 0 0 0 0 0 0 0 0 0 0 0 0 0 0 0 0 0 0 0 0 0 0 0 0 0 0 0 20907 58853 58853 58853 58853 58853 58853 58853 58853 58853 
0 0 0 0 0 0 0 0 0 0 0 0 0 0 0 0 0 0 0 0 0 0 0 0 0 0 0 0 0 0 0 0 0 0 0 0 0 0 0 0 0 0 0 0 0 0 0 0 0 0 0 0 0 0 0 0 0 0 0 0 0 0 0 0 0 0 0 0 0 0 0 0 0 0 0 0 0 0 0 0 0 0 0 0 0 0 0 0 0 0 0 20907 58853 58853 58853 58853 58853 58853 58853 58853 
0 0 0 0 0 0 0 0 0 0 0 0 0 0 0 0 0 0 0 0 0 0 0 0 0 0 0 0 0 0 0 0 0 0 0 0 0 0 0 0 0 0 0 0 0 0 0 0 0 0 0 0 0 0 0 0 0 0 0 0 0 0 0 0 0 0 0 0 0 0 0 0 0 0 0 0 0 0 0 0 0 0 0 0 0 0 0 0 0 0 0 0 20907 58853 58853 58853 58853 58853 58853 58853 
0 0 0 0 0 0 0 0 0 0 0 0 0 0 0 0 0 0 0 0 0 0 0 0 0 0 0 0 0 0 0 0 0 0 0 0 0 0 0 0 0 0 0 0 0 0 0 0 0 0 0 0 0 0 0 0 0 0 0 0 0 0 0 0 0 0 0 0 0 0 0 0 0 0 0 0 0 0 0 0 0 0 0 0 0 0 0 0 0 0 0 0 0 20907 58853 58853 58853 58853 58853 58853 
0 0 0 0 0 0 0 0 0 0 0 0 0 0 0 0 0 0 0 0 0 0 0 0 0 0 0 0 0 0 0 0 0 0 0 0 0 0 0 0 0 0 0 0 0 0 0 0 0 0 0 0 0 0 0 0 0 0 0 0 0 0 0 0 0 0 0 0 0 0 0 0 0 0 0 0 0 0 0 0 0 0 0 0 0 0 0 0 0 0 0 0 0 0 20907 58853 58853 58853 58853 58853 
0 0 0 0 0 0 0 0 0 0 0 0 0 0 0 0 0 0 0 0 0 0 0 0 0 0 0 0 0 0 0 0 0 0 0 0 0 0 0 0 0 0 0 0 0 0 0 0 0 0 0 0 0 0 0 0 0 0 0 0 0 0 0 0 0 0 0 0 0 0 0 0 0 0 0 0 0 0 0 0 0 0 0 0 0 0 0 0 0 0 0 0 0 0 0 20907 58853 58853 58853 58853 
0 0 0 0 0 0 0 0 0 0 0 0 0 0 0 0 0 0 0 0 0 0 0 0 0 0 0 0 0 0 0 0 0 0 0 0 0 0 0 0 0 0 0 0 0 0 0 0 0 0 0 0 0 0 0 0 0 0 0 0 0 0 0 0 0 0 0 0 0 0 0 0 0 0 0 0 0 0 0 0 0 0 0 0 0 0 0 0 0 0 0 0 0 0 0 0 20907 58853 58853 58853 
0 0 0 0 0 0 0 0 0 0 0 0 0 0 0 0 0 0 0 0 0 0 0 0 0 0 0 0 0 0 0 0 0 0 0 0 0 0 0 0 0 0 0 0 0 0 0 0 0 0 0 0 0 0 0 0 0 0 0 0 0 0 0 0 0 0 0 0 0 0 0 0 0 0 0 0 0 0 0 0 0 0 0 0 0 0 0 0 0 0 0 0 0 0 0 0 0 20907 58853 58853 
0 0 0 0 0 0 0 0 0 0 0 0 0 0 0 0 0 0 0 0 0 0 0 0 0 0 0 0 0 0 0 0 0 0 0 0 0 0 0 0 0 0 0 0 0 0 0 0 0 0 0 0 0 0 0 0 0 0 0 0 0 0 0 0 0 0 0 0 0 0 0 0 0 0 0 0 0 0 0 0 0 0 0 0 0 0 0 0 0 0 0 0 0 0 0 0 0 0 20907 58853 
