P2
50 100
65535
60961 61387 61389 61453 61399 61290 61130 60943 60660 60363 59969 59431 58824 58075 57160 56072 54789 53081 50789 48581 46436 44327 42220 39986 38039 35918 33836 31813 29707 27544 25283 22956 19889 17510 15460 13926 12949 11842 10665 9108 7682 6603 5717 5143 4669 4214 3743 3390 3081 2551 
60048 60474 60617 60687 60627 60680 60592 60467 60252 59978 59637 59214 58647 58054 57217 56304 55190 53787 52062 49901 47919 45982 44009 42098 40012 38116 36177 34251 32254 30264 28327 26247 24094 21727 18882 16610 14579 12565 10894 9577 8724 7685 6720 6081 5531 5024 4543 4077 3785 3115 
59615 60110 60186 60278 60341 60297 60245 60081 59948 59689 59329 59005 58515 57867 57188 56319 55325 54023 52484 50448 48567 46685 44807 42917 40973 39073 37235 35342 33441 31514 29544 27544 25552 23402 21078 18258 15960 13577 11477 10222 9271 8233 7216 6605 6035 5454 4974 4469 4135 3485 
59256 59685 59803 59901 59922 59911 59960 59834 59664 59444 59158 58823 58298 57754 57082 56321 55368 54188 52795 50886 49039 47258 45563 43749 41923 39971 38205 36405 34542 32672 30805 28921 26919 24906 22764 20410 17607 14822 12787 11230 9905 8834 7800 7088 6518 5970 5414 4942 4538 3858 
58801 59283 59390 59494 59538 59595 59495 59435 59287 59097 58838 58507 58092 57616 57000 56293 55426 54351 53107 51341 49589 47987 46255 44554 42772 40971 39162 37460 35662 33866 32031 30230 28307 26350 24404 22196 19679 16785 14596 12870 11261 9736 8406 7720 7111 6518 6000 5442 5054 4313 
58406 58842 58926 59060 59093 59125 59107 59042 58953 58812 58583 58271 57853 57442 56858 56197 55411 54443 53359 51910 50186 48568 46967 45421 43748 42035 40194 38632 36891 35113 33313 31586 29724 27891 25898 23836 21313 19055 17052 14881 13089 11445 9750 8567 7747 7145 6592 6053 5599 4802 
58009 58332 58428 58535 58620 58659 58719 58586 58506 58369 58191 57919 57567 57192 56698 56104 55385 54507 53541 52284 50719 49188 47791 46199 44663 43108 41372 39701 38026 36468 34692 32947 31161 29334 27451 25310 22878 21018 19360 17598 15456 13509 11733 10282 9205 8186 7311 6725 6253 5454 
57577 57847 57982 58052 58098 58125 58109 58116 58027 57921 57781 57547 57250 56870 56477 55894 55298 54536 53659 52598 51193 49777 48426 47003 45652 44062 42533 40863 39225 37658 36129 34385 32606 30820 28981 26789 24654 22976 21399 19837 18051 16386 14200 12462 11143 10063 9099 8161 7387 6110 
57212 57410 57418 57459 57492 57595 57591 57527 57473 57354 57242 57087 56839 56488 56135 55683 55173 54484 53774 52816 51611 50382 49097 47872 46495 45153 43645 42072 40570 38944 37409 35852 34086 32399 30567 28164 26236 24819 23284 21800 20242 18719 16923 15321 13881 12265 11180 10207 9221 7647 
56865 56873 56869 56925 56932 56970 56945 56866 56828 56756 56673 56559 56366 56116 55780 55378 54922 54441 53808 53001 52097 50924 49799 48628 47423 46141 44792 43313 41788 40326 38769 37353 35624 33952 32079 29722 28004 26645 25269 23790 22310 20833 19217 17673 16458 15308 14067 12964 11649 9661 
56461 56305 56285 56262 56224 56241 56235 56214 56112 56084 56020 55914 55779 55606 55370 55037 54665 54222 53712 53064 52338 51375 50394 49319 48275 47090 45892 44611 43056 41686 40192 38653 37085 35490 33670 31371 29820 28507 27107 25772 24358 22918 21391 19881 18708 17566 16536 15581 14577 12410 
56138 55728 55612 55495 55406 55389 55347 55346 55313 55251 55170 55107 55044 54908 54769 54573 54312 53944 53562 53085 52537 51749 50989 50081 49068 48094 46998 45788 44475 43008 41641 40156 38647 36972 35193 33044 31628 30296 28952 27738 26326 24951 23562 22106 20808 19765 18770 17889 16901 14968 
55818 55152 54985 54829 54689 54528 54450 54386 54301 54251 54167 54091 54033 54041 54035 53879 53751 53550 53307 52989 52588 52063 51391 50743 49894 48963 48017 46944 45731 44292 42994 41571 40182 38603 36700 34561 33248 32111 30836 29585 28307 27009 25620 24253 22917 21884 20926 20059 19180 17238 
55418 54658 54384 54224 53962 53766 53613 53480 53376 53288 53260 53254 53182 53139 53125 53102 53024 52926 52826 52731 52542 52212 51800 51230 50630 49878 49056 48042 47010 45696 44437 43081 41661 40118 38240 36181 34926 33794 32622 31475 30280 28953 27717 26273 24951 23978 23051 22149 21317 19440 
55153 54243 53812 53552 53371 53114 52918 52746 52579 52493 52436 52380 52335 52315 52279 52330 52376 52381 52405 52356 52282 52242 52063 51792 51337 50689 50013 49257 48232 47018 45810 44591 43234 41714 39834 37835 36690 35584 34451 33307 32161 30953 29766 28369 27102 26039 25112 24274 23384 21532 
54903 53687 53369 53022 52783 52478 52211 51990 51789 51660 51567 51521 51516 51546 51536 51608 51650 51740 51885 51974 52057 52063 52155 52072 51873 51510 51044 50407 49528 48516 47281 46003 44754 43310 41505 39476 38417 37342 36310 35187 34050 32814 31702 30453 29234 28110 27175 26344 25523 23718 
54673 53327 52865 52486 52096 51769 51529 51232 51026 50839 50746 50674 50687 50677 50762 50905 51052 51163 51283 51499 51700 51883 52047 52225 52211 52067 51781 51385 50770 49971 48862 47726 46346 44975 43174 41195 40164 39134 38155 37074 36024 34795 33660 32447 31275 30211 29254 28453 27646 25864 
54420 52895 52422 51912 51543 51131 50798 50545 50305 50073 49932 49886 49856 49873 49924 50074 50247 50522 50696 50972 51223 51580 51856 52247 52435 52428 52326 52059 51610 50999 50142 49236 48202 46899 45181 43032 42013 40994 39992 38930 37887 36726 35616 34610 33367 32234 31195 30422 29669 27982 
54158 52503 51870 51376 50886 50501 50075 49787 49490 49261 49057 49027 48987 49035 49099 49324 49440 49757 50049 50442 50779 51159 51590 52094 52468 52674 52661 52562 52288 51832 51089 50284 49419 48390 46897 45020 44163 43072 41992 40869 39811 38732 37634 36649 35488 34330 33386 32505 31699 30009 
53833 52015 51426 50808 50291 49827 49338 48952 48699 48505 48299 48213 48167 48148 48205 48460 48648 49009 49328 49717 50229 50646 51159 51719 52319 52777 52898 52944 52834 52517 51936 51202 50414 49460 48198 46431 45732 44972 44230 43275 42044 40926 39714 38710 37636 36501 35511 34597 33771 32168 
53522 51519 50823 50271 49653 49086 48696 48219 47829 47574 47380 47239 47197 47263 47365 47635 47798 48158 48611 49034 49514 50096 50603 51339 52103 52659 53001 53169 53157 53031 52552 51859 51126 50324 49148 47493 46924 46435 45771 45059 44228 43365 42305 41050 39976 38759 37747 36810 35954 34280 
52982 51068 50327 49662 48954 48477 47869 47443 46996 46712 46515 46362 46306 46331 46443 46671 46951 47356 47767 48257 48839 49440 50096 50817 51573 52461 52933 53255 53355 53307 53024 52369 51722 51017 50023 48407 47841 47400 46941 46355 45737 45040 44221 43465 42589 41585 40434 39250 38274 36508 
52490 50465 49681 48949 48397 47700 47131 46646 46214 45790 45579 45388 45318 45335 45480 45730 46013 46475 46951 47409 48056 48708 49479 50172 51033 52046 52828 53203 53447 53478 53261 52755 52188 51456 50587 49014 48560 48271 47804 47414 46942 46329 45730 45029 44380 43630 42791 41898 41013 38955 
51979 49825 49024 48313 47571 46936 46366 45739 45265 44904 44661 44485 44393 44371 44473 44732 45010 45483 46008 46604 47205 47980 48741 49586 50358 51346 52469 53100 53382 53549 53408 52976 52507 51947 51020 49508 49093 48835 48510 48192 47766 47345 46880 46286 45797 45155 44546 43834 43125 41584 
51321 49162 48254 47591 46859 46169 45481 44902 44481 44016 43739 43525 43406 43424 43485 43803 44045 44486 45033 45674 46386 47127 47965 48754 49697 50689 51900 52668 53236 53471 53442 53142 52732 52192 51339 49807 49402 49214 48948 48670 48356 48031 47654 47235 46789 46380 45911 45330 44754 43392 
50585 48445 47585 46739 45992 45256 44624 44096 43545 43166 42773 42523 42434 42412 42516 42758 43045 43511 43995 44697 45424 46251 47031 47900 48913 49823 51027 52256 52914 53312 53392 53157 52823 52313 51548 50032 49605 49441 49217 49020 48754 48443 48142 47789 47479 47173 46809 46464 46003 44773 
49964 47523 46694 45932 45101 44344 43791 43161 42610 42174 41776 41465 41318 41309 41417 41651 42008 42482 43068 43625 44409 45214 46136 47044 48019 49047 50169 51528 52451 53017 53256 53112 52835 52370 51637 50128 49769 49604 49449 49254 49028 48812 48543 48243 47997 47691 47439 47179 46810 45985 
49332 46630 45723 44968 44203 43551 42777 42160 41592 41071 40701 40417 40240 40244 40333 40541 40894 41419 42012 42590 43345 44215 45120 46035 47104 48104 49231 50489 51809 52547 52916 52973 52710 52354 51685 50220 49816 49717 49608 49456 49271 49100 48898 48659 48386 48160 47957 47734 47499 46744 
48687 45916 44802 43898 43151 42500 41790 41120 40489 40005 39636 39282 39120 39058 39169 39436 39737 40223 40846 41571 42256 43086 44089 45032 46108 47149 48297 49471 50899 51975 52500 52591 52468 52252 51659 50250 49885 49795 49711 49631 49490 49321 49155 48975 48788 48569 48385 48201 48020 47451 
48043 45098 44040 42951 42116 41394 40736 40047 39381 38825 38475 38214 37984 37921 38053 38226 38526 39100 39673 40351 41177 42036 42964 43990 45074 46102 47285 48410 49699 51129 51865 52195 52159 52042 51569 50213 49867 49835 49783 49713 49661 49512 49368 49274 49100 48970 48801 48641 48460 48089 
47324 44351 43142 42141 41158 40288 39509 38820 38276 37792 37236 36901 36785 36728 36805 36972 37319 37848 38430 39199 39988 40904 41908 42807 43960 45039 46204 47310 48515 50035 51152 51570 51697 51759 51390 50119 49763 49804 49812 49749 49720 49670 49559 49463 49350 49225 49106 48998 48864 48591 
46669 43578 42388 41333 40293 39282 38358 37611 37070 36521 36079 35739 35522 35424 35543 35743 36101 36524 37231 37888 38761 39681 40711 41699 42764 43919 45008 46182 47367 48688 50127 50797 51169 51259 51110 49997 49612 49685 49768 49787 49749 49713 49693 49643 49557 49456 49350 49302 49214 49010 
45859 42776 41492 40419 39388 38324 37351 36501 35688 35237 34800 34437 34261 34162 34217 34432 34748 35278 35888 36614 37435 38434 39445 40546 41523 42734 43868 45045 46153 47333 48902 49888 50457 50710 50698 49730 49452 49554 49667 49755 49753 49737 49758 49724 49712 49660 49578 49533 49468 49354 
45074 41887 40779 39593 38421 37349 36310 35352 34574 33847 33469 33160 32930 32755 32806 33039 33435 33963 34554 35318 36130 37106 38182 39247 40325 41385 42571 43806 44939 46129 47331 48698 49561 50065 50112 49380 49218 49361 49487 49618 49712 49755 49806 49797 49808 49785 49777 49735 49705 49631 
44331 41020 39820 38717 37502 36347 35307 34281 33380 32635 32022 31744 31496 31421 31478 31679 32018 32512 33169 33921 34852 35727 36787 37904 39097 40162 41238 42472 43657 44823 46008 47206 48489 49263 49562 48910 48974 49124 49354 49501 49637 49740 49814 49870 49888 49912 49912 49954 49909 49858 
43631 40188 38915 37710 36526 35360 34235 33258 32348 31459 30800 30231 30008 29941 30068 30268 30632 31080 31800 32523 33357 34396 35409 36532 37644 38850 40027 41164 42312 43500 44651 45782 47354 48339 48810 48316 48628 48906 49160 49371 49532 49659 49786 49881 49951 50004 50074 50062 50084 50069 
42957 39460 38054 36731 35575 34388 33243 32130 31197 30329 29552 28922 28580 28457 28494 28737 29214 29619 30290 31087 31954 32923 34031 35146 36300 37485 38720 39875 41047 42216 43310 44385 45745 47216 48028 47733 48181 48648 48958 49185 49433 49597 49734 49888 50003 50068 50136 50172 50199 50233 
42137 38573 37219 35877 34527 33329 32196 31064 30096 29123 28290 27665 27162 26923 26935 27177 27586 28103 28879 29635 30554 31475 32601 33686 34947 36107 37360 38484 39670 40890 41918 43050 44247 45907 46963 47005 47657 48325 48696 49021 49251 49518 49691 49872 49986 50093 50194 50255 50312 50321 
41420 37819 36374 34962 33656 32269 31092 29953 28865 27866 27053 26384 25852 25473 25332 25540 25925 26497 27246 28149 29056 30048 31164 32279 33480 34685 35964 37208 38367 39523 40573 41753 42938 44274 45819 46110 47030 47894 48401 48760 49108 49343 49616 49786 49981 50095 50255 50315 50370 50392 
40601 37065 35453 34077 32628 31286 29971 28847 27713 26724 25817 24969 24338 24028 23764 23812 24285 24790 25575 26492 27456 28560 29710 30853 32079 33298 34547 35747 37002 38025 39159 40304 41533 42802 44337 45064 46215 47314 48060 48514 48865 49239 49477 49719 49910 50117 50275 50379 50449 50475 
39784 36103 34537 33048 31636 30257 28914 27573 26424 25361 24419 23550 22859 22374 22060 22077 22406 23099 23928 24805 25852 26964 28163 29403 30570 31874 33140 34340 35522 36564 37705 38960 40179 41387 42619 43892 45372 46657 47634 48185 48658 49038 49402 49631 49899 50093 50265 50430 50515 50568 
38946 35238 33629 32101 30642 29185 27741 26485 25228 24104 22993 22085 21267 20604 20248 20191 20473 21024 21970 23023 24094 25348 26582 27832 29042 30310 31628 32861 34013 35264 36419 37655 38902 40095 41195 42466 44377 45848 47051 47888 48404 48833 49215 49561 49845 50079 50285 50444 50564 50650 
38047 34271 32657 31190 29676 28178 26675 25276 23901 22727 21730 20621 19591 18921 18620 18592 18815 19273 20006 21256 22456 23695 24997 26295 27566 28861 30140 31330 32632 33887 35147 36367 37590 38808 39782 40933 43269 45029 46354 47489 48145 48623 49044 49436 49743 50029 50291 50468 50614 50741 
37167 33304 31702 30134 28544 27004 25563 24107 22730 21351 20193 18935 17974 17451 17148 17152 17364 17695 18304 19168 20640 22040 23380 24748 26036 27409 28612 30018 31317 32577 33920 35161 36378 37638 38515 39634 41853 44132 45616 46932 47818 48378 48894 49281 49677 49980 50238 50491 50668 50798 
36141 32267 30639 29024 27495 25954 24382 22901 21453 20090 18705 17309 16539 16048 15728 15700 15854 16163 16753 17561 18569 20218 21694 23087 24459 25868 27239 28610 29957 31263 32638 33956 35136 36348 37266 38443 40479 43014 44798 46272 47466 48133 48690 49157 49547 49875 50233 50510 50713 50881 
35361 31444 29781 28200 26603 25053 23523 21977 20463 19013 17524 16196 15354 14805 14531 14503 14656 14970 15462 16161 17150 18274 20060 21668 23103 24547 25975 27362 28709 30075 31383 32736 34054 35219 36103 37371 39279 41516 43925 45557 46932 47893 48475 49023 49421 49832 50169 50526 50751 50976 
34676 30765 29065 27503 25895 24315 22766 21159 19671 18109 16416 15139 14348 13819 13585 13469 13530 13885 14370 14977 15848 16937 18375 20207 21741 23214 24666 26153 27515 28849 30210 31613 32956 34068 34971 36309 38240 40223 42828 44762 46290 47539 48241 48819 49330 49719 50170 50517 50765 51060 
34157 30234 28526 26955 25322 23660 22104 20484 18957 17360 15555 14329 13497 12998 12677 12605 12694 12933 13392 14042 14781 15754 17025 18713 20458 22020 23474 24919 26319 27711 29080 30487 31812 32981 33949 35392 37230 39170 41437 43903 45628 47027 48015 48601 49162 49670 50116 50463 50787 51190 
33772 29814 28118 26487 24854 23159 21575 19907 18359 16679 14842 13631 12829 12329 11949 11833 11922 12151 12556 13114 13902 14782 15948 17256 19214 20809 22377 23775 25244 26686 28037 29418 30766 32003 32941 34428 36168 38120 40181 42838 44854 46400 47670 48401 48998 49518 50004 50444 50803 51337 
33536 29506 27809 26160 24470 22844 21211 19513 17916 16240 14325 13074 12269 11689 11357 11230 11269 11446 11881 12403 13034 13916 14966 16230 17922 19723 21311 22758 24207 25708 27038 28396 29807 31052 32071 33531 35295 37173 39171 41470 43931 45790 47137 48166 48791 49396 49926 50386 50766 51431 
33423 29370 27618 25890 24253 22561 20897 19204 17540 15926 13931 12636 11786 11217 10906 10755 10742 10910 11246 11779 12431 13255 14166 15359 16701 18679 20245 21822 23277 24771 26151 27494 28865 30186 31316 32721 34383 36202 38157 40218 42941 45045 46555 47800 48602 49250 49792 50310 50748 51501 
33357 29335 27562 25903 24193 22541 20789 19093 17418 15745 13855 12371 11480 10847 10491 10334 10337 10472 10799 11253 11841 12627 13519 14601 15939 17739 19507 20933 22457 23858 25269 26663 28051 29296 30586 31982 33541 35352 37263 39276 41572 44075 45905 47314 48384 49089 49696 50247 50700 51549 
33550 29528 27784 26157 24470 22683 20961 19367 17634 15954 14003 12423 11362 10733 10291 10034 10034 10155 10452 10913 11438 12124 13016 13993 15249 16774 18601 20172 21576 23075 24453 25853 27249 28523 29882 31400 32880 34510 36361 38334 40445 43029 45061 46703 47985 48945 49568 50124 50598 51557 
33964 29958 28230 26520 24870 23185 21482 19716 18069 16395 14614 12801 11608 10860 10303 9996 9895 9985 10207 10608 11160 11810 12591 13522 14664 15942 17856 19419 20887 22332 23776 25143 26557 27932 29283 30693 32295 33882 35630 37416 39467 41669 44213 46033 47477 48623 49373 49964 50506 51523 
34573 30586 28884 27264 25532 23851 22122 20425 18712 17053 15332 13336 12071 11254 10608 10206 9983 9980 10129 10434 10944 11530 12240 13158 14249 15473 17227 18845 20286 21639 23086 24452 25847 27284 28709 30222 31806 33285 35034 36837 38759 40766 43102 45286 46887 48267 49280 49916 50490 51616 
35332 31404 29697 28092 26457 24763 23091 21380 19692 18005 16244 14345 12818 11829 11109 10556 10296 10172 10224 10452 10794 11340 12020 12869 13861 15005 16520 18167 19639 21018 22457 23891 25338 26763 28274 29798 31449 33065 34706 36571 38466 40366 42453 45013 47005 48581 49838 50826 51504 52794 
36200 32200 30594 28962 27296 25639 24053 22349 20647 19055 17335 15612 13794 12688 11797 11202 10752 10545 10439 10571 10874 11260 11937 12701 13577 14634 16016 17681 19090 20526 21910 23265 24771 26230 27754 29376 31011 32804 34506 36382 38251 40132 42143 44274 46746 48517 49928 51137 52064 53473 
37063 33124 31524 29938 28311 26649 24989 23356 21750 20073 18489 16887 15085 13724 12731 11942 11439 11038 10920 10907 11052 11407 11984 12610 13385 14346 15626 17177 18560 19942 21370 22790 24199 25725 27335 28947 30720 32473 34192 35941 37843 39657 41561 43566 45782 47985 49695 51002 52209 53895 
38050 34157 32581 31009 29333 27745 26092 24404 22846 21213 19616 18020 16526 14813 13750 12872 12197 11783 11468 11354 11418 11686 12113 12685 13325 14181 15312 16854 18187 19550 20877 22292 23837 25356 26941 28587 30239 31981 33823 35508 37319 39141 40998 42876 44847 47166 49090 50664 51924 54241 
39083 35111 33467 31972 30338 28714 27073 25495 23846 22360 20734 19199 17753 16274 14857 13840 13104 12548 12161 11979 11918 12072 12335 12785 13421 14201 15256 16632 17977 19111 20435 21819 23331 24932 26500 28118 29806 31605 33406 35039 36800 38582 40363 42303 44122 46046 48168 50014 51559 54351 
40242 36131 34479 32992 31474 29831 28250 26648 25025 23451 21902 20393 19001 17604 16119 14927 14035 13429 12925 12606 12460 12529 12741 13083 13670 14390 15329 16556 17836 18959 20158 21545 22953 24548 26137 27765 29482 31199 32838 34623 36313 38019 39841 41598 43354 45164 46983 49125 50934 54021 
41340 37256 35637 34064 32556 30928 29303 27730 26156 24547 23034 21532 20233 18939 17527 16090 15048 14340 13770 13368 13209 13110 13156 13447 13935 14601 15487 16623 17718 18803 19961 21181 22644 24244 25797 27397 29041 30692 32396 34099 35766 37457 39241 40974 42659 44434 46163 47816 49811 53400 
42629 38352 36758 35150 33606 32084 30432 28884 27285 25715 24177 22685 21359 20093 18752 17521 16159 15304 14655 14217 13986 13780 13692 13847 14229 14790 15603 16697 17673 18687 19755 20920 22285 23881 25471 26995 28611 30349 31963 33565 35257 36964 38611 40297 42121 43675 45231 46744 48276 52308 
44075 39528 37941 36317 34731 33235 31593 29952 28426 26838 25228 23861 22538 21229 19891 18747 17507 16317 15593 15084 14763 14523 14328 14299 14631 15032 15866 16755 17645 18592 19646 20710 21956 23512 25110 26680 28265 29806 31347 33051 34745 36408 38052 39699 41366 42960 44299 45724 47108 50742 
45431 40632 38969 37451 35861 34307 32746 31133 29562 27952 26422 24977 23594 22291 21015 19827 18685 17586 16554 15963 15567 15226 14963 14849 14963 15429 16094 16851 17691 18513 19464 20479 21668 23174 24784 26270 27804 29366 31026 32550 34137 35829 37515 39077 40577 42052 43459 44732 46076 49103 
46624 41948 40278 38724 37108 35575 33953 32347 30673 29085 27529 26004 24722 23399 22108 20876 19807 18681 17638 16884 16306 15980 15645 15362 15335 15711 16333 16935 17684 18423 19305 20271 21419 22847 24426 25884 27365 28951 30426 31958 33540 35103 36918 38396 39789 41154 42445 43702 44894 47729 
47781 43145 41377 39766 38222 36566 35022 33457 31862 30226 28704 27132 25787 24414 23068 21839 20639 19625 18678 17881 17203 16668 16263 15927 15819 16039 16430 17017 17680 18297 19195 20095 21141 22472 24003 25422 26965 28408 29933 31421 32915 34549 36226 37725 39048 40342 41502 42726 43900 46443 
48828 44271 42473 40861 39225 37655 36132 34552 32895 31285 29718 28231 26781 25402 24092 22824 21598 20499 19527 18685 18041 17382 16991 16595 16193 16358 16608 17093 17636 18200 19015 19875 20819 22049 23584 25090 26538 27928 29427 30807 32375 33937 35503 36929 38243 39484 40694 41721 42833 45268 
49675 45410 43542 41891 40241 38621 36948 35471 33806 32228 30685 29203 27813 26375 24904 23607 22390 21211 20269 19432 18646 18081 17460 17051 16681 16549 16733 17103 17515 18072 18773 19585 20466 21689 23202 24585 25975 27386 28763 30251 31671 33254 34765 36184 37472 38661 39750 40800 41717 43995 
50480 46665 44485 42755 41127 39512 37853 36310 34735 33134 31521 30120 28708 27321 25884 24509 23189 21977 20972 20089 19307 18637 18011 17506 17104 16789 16763 17051 17406 17938 18532 19271 20153 21297 22702 24042 25504 26840 28242 29629 31044 32509 33961 35395 36635 37735 38861 39807 40729 42803 
51172 47732 45420 43666 41986 40328 38736 37174 35560 33929 32314 30817 29386 28000 26599 25275 23878 22611 21479 20586 19753 18953 18348 17768 17378 16984 16725 16957 17256 17777 18247 18958 19814 20808 22220 23560 24795 26123 27600 28950 30325 31820 33170 34497 35766 36865 37844 38837 39733 41712 
51817 48597 46325 44508 42799 41150 39459 37790 36240 34638 32979 31474 30057 28664 27237 25850 24538 23180 21968 21056 20093 19204 18576 17952 17475 17105 16812 16724 17054 17379 17896 18581 19347 20320 21725 22923 24262 25545 26897 28227 29589 31069 32378 33630 34881 35902 36879 37847 38662 40597 
52385 49301 47159 45227 43447 41739 40120 38458 36915 35243 33632 32108 30704 29222 27848 26429 25059 23737 22363 21387 20342 19398 18657 17948 17436 17044 16729 16592 16690 17049 17562 18082 18828 19798 21085 22367 23589 24808 26150 27481 28832 30200 31508 32747 33931 35022 35907 36838 37650 39451 
52905 49993 47993 45846 44087 42400 40700 39020 37435 35812 34204 32632 31176 29700 28260 26877 25455 24144 22845 21605 20470 19533 18580 17862 17294 16855 16573 16223 16289 16588 17011 17646 18234 19255 20496 21657 22903 24077 25387 26687 28011 29316 30652 31869 32989 33987 34942 35853 36555 38319 
53397 50484 48670 46447 44648 42934 41216 39485 37862 36256 34622 33044 31610 30077 28650 27191 25776 24431 23042 21779 20589 19401 18452 17574 16993 16554 16184 15943 15856 15996 16369 16991 17772 18661 19807 20974 22080 23295 24546 25768 27024 28368 29784 30902 31955 33032 33914 34776 35550 37192 
53700 50949 49181 46967 45093 43340 41606 39914 38324 36694 35006 33412 31907 30381 28891 27422 25978 24616 23183 21866 20540 19239 18143 17402 16761 16269 15878 15614 15419 15435 15677 16256 17086 18066 18998 20140 21250 22379 23693 24857 26062 27365 28683 29982 31002 31953 32895 33734 34471 36120 
54048 51301 49625 47365 45480 43718 41996 40313 38689 36997 35293 33705 32121 30602 29046 27588 26079 24663 23268 21819 20322 18890 17963 17099 16456 15855 15461 15153 14991 14977 15024 15518 16326 17255 18277 19294 20395 21490 22629 23869 25058 26316 27671 28902 29931 30904 31821 32574 33416 34964 
54344 51653 49922 47688 45793 44031 42357 40567 38952 37264 35494 33851 32247 30661 29167 27594 26121 24638 23116 21595 20014 18767 17619 16755 16008 15453 14955 14667 14407 14340 14521 14850 15348 16254 17341 18389 19509 20580 21684 22803 24005 25198 26484 27675 28816 29778 30656 31421 32283 33883 
54593 51893 50193 47930 46051 44256 42563 40775 39125 37412 35651 33990 32310 30723 29144 27609 26112 24510 22940 21206 19660 18454 17359 16339 15536 14955 14481 14059 13854 13831 13864 14119 14608 15257 16134 17358 18501 19599 20676 21797 22942 24005 25350 26435 27616 28557 29545 30300 31034 32748 
54760 52060 50322 48113 46181 44411 42688 40965 39215 37475 35725 34035 32314 30678 29103 27550 25883 24297 22604 20675 19328 18091 17035 16118 15167 14465 13939 13544 13324 13267 13253 13457 13825 14356 15075 15929 17095 18376 19527 20629 21780 22909 23961 25208 26304 27287 28260 29095 29879 31442 
54908 52180 50432 48210 46268 44512 42741 41008 39241 37555 35754 33961 32225 30550 28943 27250 25639 23914 22057 20283 18909 17718 16665 15720 14876 14097 13502 13057 12793 12620 12649 12770 13091 13500 14139 14887 15791 16840 18213 19400 20618 21653 22758 23982 24911 25999 26877 27694 28554 30236 
55088 52213 50468 48218 46332 44551 42762 40968 39274 37558 35745 33942 32144 30353 28731 27013 25293 23508 21375 19811 18448 17298 16296 15371 14491 13885 13239 12761 12430 12233 11995 12059 12324 12695 13281 13886 14677 15598 16660 17824 19130 20348 21477 22639 23688 24605 25435 26349 27189 28905 
55151 52220 50384 48123 46317 44563 42818 40999 39271 37499 35664 33837 32004 30280 28398 26720 24934 22974 20840 19303 18007 16852 15825 15123 14504 13893 13222 12700 12321 12049 11870 11692 11776 11909 12339 12936 13664 14513 15397 16357 17417 18733 20063 21245 22340 23269 24183 24878 25690 27454 
55190 52240 50294 48065 46298 44555 42778 40952 39266 37378 35558 33708 31942 30061 28232 26371 24426 22218 20298 18769 17549 16352 15616 15033 14433 13892 13308 12712 12284 11952 11752 11595 11543 11659 11750 12047 12708 13420 14225 15112 16096 17110 18236 19581 20828 21826 22770 23540 24278 25962 
55174 52069 49947 48014 46142 44400 42674 40845 39135 37279 35438 33630 31681 29790 27834 25966 23878 21547 19764 18298 17016 16156 15533 14950 14346 13786 13310 12800 12244 11894 11636 11460 11377 11415 11516 11722 11953 12431 13196 14006 14870 15804 16806 17860 18987 20251 21209 22077 22906 24513 
55148 51981 49740 47817 46029 44297 42543 40752 38990 37176 35335 33379 31471 29555 27540 25472 23209 20944 19203 17801 16688 16020 15431 14863 14270 13744 13218 12767 12318 11918 11563 11367 11246 11255 11299 11445 11682 11999 12354 12927 13741 14627 15511 16393 17465 18430 19376 20441 21367 23121 
55044 51748 49455 47621 45920 44194 42374 40637 38867 36979 35093 33159 31161 29245 27200 25018 22376 20358 18714 17247 16516 15876 15275 14712 14171 13677 13171 12691 12302 11915 11586 11255 11169 11067 11126 11224 11440 11692 11976 12374 12794 13481 14293 15136 16065 16931 17793 18617 19467 21585 
54946 51461 49193 47384 45671 43942 42190 40449 38640 36798 34875 32956 31012 28964 26823 24548 21844 19786 18196 16994 16356 15745 15136 14522 14053 13518 13086 12616 12199 11877 11575 11359 11141 10940 10977 11032 11185 11393 11664 12020 12358 12716 13167 13918 14753 15599 16410 17136 17912 19721 
54810 51099 48897 47187 45466 43777 41921 40273 38444 36554 34666 32739 30673 28663 26437 23937 21308 19361 17666 16853 16151 15520 14959 14440 13908 13427 12966 12563 12167 11790 11551 11304 11137 11002 10875 10866 10984 11147 11410 11681 11951 12318 12667 13037 13571 14352 15076 15807 16479 18073 
54626 50587 48634 46885 45168 43543 41729 40088 38212 36322 34444 32488 30433 28276 26022 23258 20842 18860 17395 16660 16026 15400 14813 14294 13743 13304 12890 12483 12112 11764 11479 11288 11085 10937 10883 10865 10918 10959 11137 11338 11597 11916 12235 12568 12940 13348 13882 14507 15168 16619 
54440 50171 48367 46657 44992 43274 41522 39868 37978 36143 34223 32212 30130 28027 25626 22627 20397 18468 17254 16460 15809 15229 14641 14112 13637 13211 12788 12393 12051 11744 11455 11272 11020 10925 10814 10762 10824 10903 11039 11184 11434 11657 11881 12153 12486 12758 13057 13395 13925 15302 
54196 49860 47996 46379 44804 43076 41363 39602 37761 35888 33945 31890 29826 27645 25212 22230 19997 18101 17083 16357 15659 15023 14485 13954 13511 13084 12682 12346 12007 11688 11415 11210 11042 10847 10778 10744 10700 10752 10857 11003 11199 11386 11589 11824 12099 12271 12500 12748 12959 13874 
53887 49420 47714 46070 44434 42807 41144 39369 37505 35611 33663 31739 29582 27274 24707 21810 19634 17926 17051 16244 15535 14897 14335 13856 13382 12990 12637 12268 11977 11643 11381 11175 10994 10859 10748 10661 10645 10698 10738 10818 10949 11102 11275 11518 11685 11886 12019 12196 12405 12887 
53637 49116 47399 45843 44229 42514 40861 39153 37309 35386 33422 31448 29330 26969 24222 21467 19270 17746 16900 16136 15410 14752 14209 13724 13298 12868 12515 12205 11904 11657 11392 11180 10991 10846 10705 10669 10538 10586 10643 10699 10758 10882 11008 11168 11354 11454 11625 11722 11845 12277 
53252 48812 47115 45498 43962 42249 40643 38871 37016 35172 33241 31159 28992 26636 23702 21081 18995 17693 16827 16026 15333 14693 14097 13592 13161 12782 12451 12162 11891 11629 11388 11169 11003 10834 10726 10621 10546 10596 10522 10597 10634 10721 10781 10914 11025 11140 11272 11293 11352 11681 
52911 48434 46841 45305 43711 42024 40449 38666 36789 34962 32939 30912 28713 26383 23179 20781 18726 17566 16748 15999 15230 14578 14034 13507 13096 12723 12388 12102 11849 11593 11381 11187 10992 10881 10720 10626 10536 10483 10474 10472 10504 10588 10612 10671 10788 10843 10949 10937 10927 11182 
52519 48084 46515 45044 43439 41826 40167 38449 36646 34767 32783 30675 28503 25994 22916 20506 18436 17512 16663 15884 15156 14532 13969 13435 13026 12670 12310 12057 11833 11592 11355 11179 11028 10880 10744 10618 10544 10488 10439 10413 10455 10447 10477 10539 10565 10582 10669 10669 10574 10715 
52061 47757 46209 44697 43183 41668 39979 38202 36404 34498 32518 30452 28243 25735 22599 20284 18398 17434 16599 15782 15124 14433 13911 13440 12995 12660 12324 12041 11781 11577 11394 11197 11044 10902 10745 10657 10554 10499 10422 10370 10365 10376 10343 10396 10391 10405 10378 10374 10272 10299 
51590 47411 45854 44408 42846 41294 39709 37954 36129 34229 32261 30163 28003 25377 22295 20004 18261 17343 16531 15741 15023 14436 13874 13379 12955 12619 12294 12021 11784 11572 11395 11224 11065 10938 10814 10672 10568 10484 10393 10374 10323 10278 10272 10213 10261 10218 10167 10133 10011 9917 
50541 46736 45255 43778 42242 40761 39062 37377 35634 33783 31802 29686 27360 24459 21685 19511 18123 17247 16394 15600 14930 14325 13774 13351 12976 12618 12305 12077 11912 11726 11553 11398 11245 11126 11008 10868 10720 10606 10494 10442 10330 10251 10191 10091 10053 9977 9861 9764 9653 9275 
