P2
100 50
65535
69 110 150 187 233 283 358 444 545 659 798 945 1107 1291 1502 1744 1988 2277 2485 2815 3146 3514 3868 4207 4571 5022 5431 5828 6314 6763 7206 7676 8097 8555 9008 9480 9991 10431 10930 11445 11948 12450 12969 13461 14008 14613 15330 15876 16416 16896 17331 17770 18157 18589 18943 19318 19632 19981 20261 20536 20834 21094 21318 21607 21842 22145 22438 22726 23177 23607 24191 24684 25469 26232 27357 28187 28862 29420 29805 30061 30479 30698 31023 31276 31484 31615 31724 31847 31896 31889 31830 31849 31814 31800 31744 31626 31542 31399 31259 30965 
153 269 322 393 466 564 675 801 946 1102 1265 1462 1697 1934 2189 2470 2761 3088 3414 3775 4115 4500 4856 5270 5702 6176 6642 7089 7548 8029 8518 9015 9485 9957 10445 10980 11465 11937 12463 12999 13450 13952 14482 14978 15450 15911 16380 16916 17447 17976 18416 18865 19269 19576 19964 20296 20580 20932 21212 21482 21765 21980 22224 22441 22653 22976 23221 23484 23907 24225 24627 25123 25537 26250 26857 27611 28682 29184 29686 30118 30423 30596 30781 30993 31134 31344 31466 31564 31655 31640 31741 31739 31680 31633 31570 31521 31442 31335 31236 30971 
215 352 426 518 612 726 851 1014 1175 1343 1539 1757 1961 2230 2513 2801 3110 3446 3787 4147 4508 4912 5337 5792 6200 6685 7131 7646 8120 8636 9091 9580 10088 10582 11085 11579 12143 12652 13164 13688 14205 14682 15197 15723 16185 16639 17005 17484 17912 18420 18956 19371 19760 20113 20486 20787 21054 21390 21650 21908 22178 22451 22622 22878 23140 23394 23582 23838 24252 24524 24865 25392 25773 26353 26836 27493 28313 29096 29596 30055 30416 30719 30836 30955 31035 31261 31354 31407 31523 31563 31595 31622 31564 31543 31495 31427 31403 31329 31221 30978 
287 455 555 657 782 907 1047 1222 1397 1599 1803 2032 2301 2600 2888 3169 3517 3816 4169 4544 4909 5328 5762 6237 6727 7192 7682 8206 8662 9163 9685 10217 10707 11228 11726 12326 12806 13391 13920 14402 14984 15501 15981 16450 16926 17390 17797 18174 18541 18919 19403 19918 20325 20680 21023 21282 21586 21878 22137 22388 22626 22870 23081 23374 23616 23854 24039 24347 24635 24974 25276 25707 26018 26539 27066 27527 28219 28962 29539 30014 30337 30673 30888 31038 31094 31191 31212 31396 31469 31453 31453 31530 31501 31453 31447 31384 31331 31243 31177 30942 
362 566 691 800 951 1107 1277 1479 1661 1873 2136 2382 2653 2927 3233 3557 3885 4235 4608 4977 5388 5812 6236 6757 7225 7710 8225 8730 9258 9782 10280 10809 11384 11917 12496 13058 13620 14162 14756 15283 15787 16346 16854 17324 17739 18188 18560 18945 19313 19646 20008 20408 20876 21262 21571 21904 22167 22440 22693 22861 23135 23395 23637 23861 24068 24308 24571 24929 25177 25443 25815 26156 26396 26840 27371 27657 28225 28775 29485 29968 30325 30627 30873 31106 31191 31230 31267 31292 31326 31364 31423 31482 31446 31410 31337 31277 31234 31159 31122 30919 
480 707 866 994 1158 1339 1527 1720 1926 2169 2448 2733 3013 3302 3647 3932 4325 4661 5047 5451 5882 6322 6787 7262 7777 8279 8786 9330 9857 10386 10993 11557 12061 12704 13272 13898 14424 15026 15598 16177 16728 17251 17749 18220 18671 19057 19451 19830 20180 20552 20851 21146 21513 21953 22338 22619 22903 23153 23410 23622 23867 24026 24246 24489 24710 25017 25225 25508 25739 26042 26388 26689 26918 27341 27704 28001 28446 28877 29410 30003 30311 30592 30843 31066 31207 31367 31347 31324 31298 31292 31298 31341 31286 31280 31238 31219 31200 31181 31098 30965 
614 878 1024 1187 1374 1557 1737 1987 2233 2493 2768 3069 3343 3694 4008 4371 4732 5094 5502 5936 6374 6852 7327 7815 8340 8862 9395 9940 10496 11097 11641 12283 12922 13524 14119 14747 15379 15990 16545 17183 17793 18359 18875 19333 19797 20219 20593 20973 21316 21600 21886 22175 22472 22777 23116 23489 23772 24078 24309 24513 24748 24949 25124 25348 25548 25799 25985 26187 26558 26815 27082 27232 27520 27871 28264 28461 28761 29156 29515 30005 30414 30628 30847 31078 31193 31320 31352 31408 31448 31295 31255 31215 31192 31161 31156 31131 31077 31037 30993 30822 
768 1078 1252 1418 1588 1826 2046 2301 2560 2850 3119 3416 3735 4057 4438 4780 5154 5563 6000 6426 6915 7396 7862 8429 8918 9468 10004 10598 11213 11818 12435 13086 13711 14399 15028 15675 16410 17074 17696 18383 19107 19739 20307 20839 21335 21767 22145 22596 22959 23275 23544 23791 23989 24181 24388 24628 24935 25178 25398 25628 25828 26017 26226 26451 26638 26798 27027 27248 27428 27578 27802 28054 28336 28612 28804 29002 29267 29550 29797 30061 30484 30732 30986 31079 31219 31269 31368 31402 31400 31397 31351 31242 31168 31086 31021 30982 30912 30924 30857 30705 
961 1324 1507 1698 1891 2118 2378 2630 2906 3192 3481 3823 4131 4451 4837 5213 5630 6048 6500 6958 7471 7927 8463 8957 9521 10099 10651 11296 11900 12573 13279 13914 14626 15342 16095 16799 17671 18466 19236 20033 20834 21568 22154 22746 23367 23865 24332 24722 25068 25357 25605 25782 25989 26116 26269 26372 26532 26770 26954 27125 27270 27408 27556 27703 27844 28003 28202 28353 28536 28705 28897 29106 29239 29389 29546 29734 29948 30107 30282 30451 30602 30864 31028 31190 31266 31336 31336 31338 31372 31385 31361 31270 31202 31075 30914 30854 30760 30691 30668 30543 
1201 1596 1808 1982 2210 2456 2711 2975 3267 3555 3859 4201 4547 4920 5296 5704 6098 6571 7033 7512 7969 8512 9031 9606 10177 10767 11406 12047 12707 13397 14102 14833 15682 16421 17412 18291 19244 20227 21098 22110 23003 23833 24655 25437 26092 26776 27329 27746 28094 28380 28606 28741 28857 28949 28965 28941 28905 28980 29081 29203 29288 29379 29454 29554 29595 29646 29735 29816 29943 30040 30151 30265 30374 30455 30536 30625 30695 30844 30927 30973 31022 31116 31156 31284 31277 31294 31333 31406 31366 31323 31274 31189 31146 31050 31009 30861 30689 30575 30502 30300 
1439 1919 2135 2353 2581 2840 3097 3353 3637 3946 4270 4616 4987 5383 5747 6197 6644 7094 7569 8058 8570 9072 9634 10234 10836 11488 12140 12807 13514 14211 15080 15873 16848 17854 18993 19995 21160 22326 23530 24719 26072 26980 27822 28489 29084 29624 30062 30474 30765 31043 31229 31417 31520 31587 31651 31697 31710 31715 31730 31840 31919 32001 32002 31997 32008 32074 32070 32011 31951 31945 31925 31915 31943 31917 31848 31801 31796 31755 31703 31651 31592 31519 31466 31403 31376 31330 31225 31187 31110 31095 31023 30979 30911 30829 30772 30699 30646 30573 30494 30096 
1745 2285 2520 2741 2982 3226 3496 3756 4070 4375 4712 5070 5465 5847 6286 6707 7146 7620 8110 8602 9124 9682 10267 10881 11528 12218 12890 13632 14360 15253 16111 17136 18188 19497 20743 22050 23625 25285 26479 27570 28558 29413 30137 30779 31342 31814 32309 32687 33001 33295 33477 33610 33740 33801 33790 33841 33875 33843 33830 33804 33869 34007 34024 34052 34002 33954 33893 33854 33757 33693 33652 33523 33433 33333 33250 33150 33073 32930 32712 32521 32349 32139 31966 31731 31586 31453 31343 31181 31000 30838 30704 30557 30473 30358 30273 30186 30124 30034 29955 29667 
2085 2657 2883 3132 3394 3639 3908 4203 4510 4822 5186 5564 5970 6363 6791 7248 7697 8179 8667 9183 9736 10276 10893 11528 12218 12921 13679 14433 15329 16236 17359 18645 19867 21377 22957 24980 26365 27622 28767 29747 30658 31489 32166 32811 33377 33877 34261 34642 34946 35253 35417 35559 35648 35715 35776 35809 35803 35780 35749 35677 35641 35724 35802 35790 35728 35691 35598 35525 35408 35307 35147 35059 34863 34728 34528 34362 34150 33897 33649 33395 33223 32840 32568 32184 31881 31655 31378 31179 31016 30821 30630 30439 30300 30133 30007 29847 29724 29583 29508 29284 
2499 3011 3260 3517 3786 4071 4368 4653 4984 5311 5692 6068 6471 6875 7320 7779 8249 8746 9260 9777 10322 10928 11571 12225 12983 13706 14490 15378 16307 17478 18856 20236 21848 23811 25610 27094 28459 29640 30736 31679 32543 33339 33992 34543 35126 35586 35937 36332 36683 36950 37153 37295 37324 37373 37397 37479 37525 37525 37395 37424 37351 37421 37292 37383 37351 37296 37199 37046 36990 36838 36618 36457 36272 36058 35823 35636 35279 35000 34678 34371 33937 33602 33266 32831 32326 31988 31598 31336 31006 30714 30533 30361 30187 30057 29904 29676 29536 29410 29265 29018 
2866 3422 3656 3944 4226 4527 4827 5175 5489 5845 6197 6606 6976 7427 7863 8327 8803 9309 9861 10397 10939 11584 12210 12975 13691 14503 15382 16295 17490 18918 20407 22124 24312 26080 27684 29009 30333 31430 32435 33363 34235 34825 35605 36041 36686 37082 37435 37745 38013 38278 38485 38625 38715 38811 38882 38932 38960 38983 38851 38823 38844 38833 38666 38750 38827 38723 38674 38677 38429 38268 38031 37803 37636 37366 37077 36788 36445 36084 35737 35319 34907 34438 33996 33589 32968 32359 31887 31522 31110 30813 30599 30310 30101 29826 29609 29392 29228 29104 28980 28597 
3341 3913 4175 4417 4672 4995 5310 5650 6000 6367 6737 7104 7536 7948 8402 8902 9365 9897 10431 11034 11613 12276 12959 13712 14453 15377 16273 17470 18862 20390 22228 24580 26340 27989 29354 30674 31921 33005 33955 34921 35521 36291 36875 37396 37946 38430 38769 39077 39367 39569 39764 39906 40046 40130 40191 40233 40280 40241 40154 40089 40112 39992 39960 39974 39925 39987 40048 39805 39761 39552 39383 39241 38932 38628 38315 38035 37597 37230 36781 36316 35837 35345 34868 34274 33726 32967 32359 31817 31269 30916 30591 30248 29917 29666 29459 29257 29125 28960 28811 28457 
3763 4344 4633 4921 5228 5496 5817 6165 6564 6899 7282 7685 8103 8502 8995 9437 9961 10481 11052 11642 12290 12937 13702 14425 15261 16184 17369 18749 20207 22030 24478 26372 28070 29552 30956 32214 33316 34337 35197 36071 36803 37504 38121 38638 39177 39651 40010 40364 40604 40835 41047 41202 41291 41381 41475 41495 41431 41463 41413 41373 41237 41186 41135 41078 40945 41073 41043 41003 40928 40707 40655 40350 40111 39818 39541 39180 38752 38314 37852 37341 36794 36305 35672 35083 34440 33794 32890 32199 31615 31117 30693 30265 29871 29589 29380 29144 28937 28758 28508 28117 
4295 4922 5176 5414 5739 6074 6372 6711 7073 7481 7816 8229 8625 9094 9546 10025 10527 11095 11656 12300 12940 13679 14401 15138 16099 17237 18396 19966 21734 24143 26208 28031 29534 31018 32410 33556 34633 35575 36440 37246 37938 38649 39232 39803 40406 40817 41244 41535 41883 42099 42347 42501 42605 42631 42680 42680 42674 42677 42577 42550 42467 42354 42227 42167 42104 42040 42073 42023 41805 41814 41603 41449 41144 40894 40629 40243 39956 39436 38901 38388 37808 37215 36549 35888 35227 34502 33707 32759 32014 31362 30877 30326 29918 29626 29313 29054 28691 28466 28302 27902 
4852 5439 5709 6008 6284 6598 6956 7279 7653 7999 8402 8785 9237 9642 10140 10602 11141 11659 12314 12918 13637 14332 15109 16003 16976 18218 19742 21436 23558 25957 27728 29373 30914 32349 33546 34672 35651 36509 37460 38307 38996 39744 40406 40914 41523 41968 42368 42757 43132 43376 43532 43690 43799 43883 43932 43934 43870 43828 43735 43695 43599 43469 43319 43214 43132 42990 43025 42994 42787 42688 42560 42274 42094 41880 41492 41303 40891 40453 39943 39377 38734 38119 37446 36776 36026 35292 34495 33519 32459 31646 31162 30504 29981 29642 29296 28833 28591 28344 28157 27720 
5415 5998 6311 6552 6874 7201 7505 7856 8203 8562 8973 9366 9786 10269 10695 11229 11730 12330 12952 13582 14295 15019 15916 16782 17952 19416 21020 22959 25433 27379 29106 30624 32116 33448 34599 35637 36559 37505 38441 39188 40008 40736 41424 42047 42623 43038 43569 43929 44194 44461 44763 44949 45085 45111 45059 45051 45024 44998 44961 44808 44671 44608 44426 44224 44155 44015 43929 43901 43754 43601 43430 43169 42967 42649 42417 42125 41737 41303 40858 40372 39695 39022 38344 37607 36832 36045 35203 34371 33099 32164 31421 30726 30122 29734 29285 28844 28542 28243 28046 27457 
6014 6604 6878 7166 7455 7745 8104 8448 8777 9156 9545 9949 10373 10840 11326 11840 12400 12961 13577 14237 14986 15731 16618 17734 19026 20455 22358 24889 26861 28621 30287 31773 33115 34418 35471 36399 37457 38421 39323 40136 40978 41677 42393 43043 43587 44258 44633 44979 45387 45660 45865 46092 46206 46270 46260 46294 46296 46183 46012 45947 45882 45586 45479 45295 45103 44983 44787 44778 44633 44463 44237 44033 43801 43444 43198 42805 42517 42172 41788 41193 40586 39941 39181 38488 37644 36795 35955 34992 33946 32682 31735 31051 30312 29823 29310 28834 28475 28207 27895 27301 
6617 7223 7521 7791 8075 8390 8730 9018 9404 9730 10137 10572 10975 11437 11926 12491 13002 13613 14221 14909 15605 16501 17497 18679 20075 21819 24001 26288 28133 29784 31341 32766 33993 35206 36183 37264 38265 39212 40086 40967 41775 42549 43260 43994 44541 45145 45708 46133 46496 46818 47106 47322 47469 47573 47539 47526 47451 47352 47250 47104 46920 46735 46520 46296 46167 45858 45730 45558 45426 45211 45058 44773 44510 44224 43895 43564 43228 42912 42467 41956 41373 40731 40010 39225 38432 37548 36707 35713 34654 33331 32190 31376 30493 29968 29395 28857 28491 28138 27753 27232 
7266 7864 8141 8425 8713 9018 9330 9665 9996 10355 10766 11159 11636 12051 12564 13111 13630 14239 14855 15547 16362 17284 18367 19752 21283 23166 25573 27498 29220 30753 32301 33584 34707 35914 36924 37937 38905 39877 40828 41735 42567 43310 44065 44834 45530 46140 46745 47245 47645 47988 48342 48546 48746 48839 48853 48826 48757 48619 48447 48275 48095 47831 47560 47365 47039 46830 46558 46356 46237 45961 45773 45455 45199 44899 44572 44217 43825 43523 43033 42605 42058 41451 40752 39979 39134 38259 37357 36363 35315 34142 32734 31709 30803 30135 29530 28913 28486 28117 27714 27114 
7955 8541 8789 9077 9362 9644 9990 10292 10698 10983 11406 11816 12254 12703 13174 13735 14272 14872 15503 16306 17078 18163 19393 20827 22549 24979 26833 28535 30171 31620 32998 34297 35388 36476 37466 38532 39532 40538 41452 42390 43256 44054 44864 45608 46438 47082 47759 48300 48775 49134 49418 49711 49974 50071 50138 50034 49927 49816 49683 49532 49316 49020 48693 48365 48045 47742 47468 47200 46972 46766 46475 46157 45833 45527 45137 44778 44377 44016 43624 43129 42638 42076 41412 40684 39810 38964 38006 37002 35943 34810 33314 32084 31158 30270 29680 28986 28495 28104 27657 26998 
8669 9231 9524 9761 10062 10351 10705 11019 11339 11707 12066 12525 12893 13373 13821 14370 14872 15598 16226 17089 18026 19188 20411 22013 24199 26168 27899 29458 30978 32378 33602 34885 35860 36957 37995 39045 40042 41000 41954 42899 43781 44677 45544 46375 47166 48009 48613 49241 49824 50270 50773 51026 51207 51365 51420 51392 51342 51276 50960 50721 50488 50088 49837 49486 49037 48718 48351 47943 47741 47424 47065 46725 46394 46067 45637 45274 44880 44458 44048 43641 43090 42583 41991 41263 40453 39533 38649 37602 36540 35420 34107 32583 31533 30494 29798 29087 28560 28112 27604 26897 
9431 10013 10268 10518 10835 11120 11423 11742 12097 12402 12825 13165 13616 14039 14522 15085 15681 16278 17156 18007 19058 20201 21681 23530 25590 27266 28837 30275 31715 33018 34182 35265 36424 37409 38434 39407 40425 41423 42340 43319 44299 45245 46159 47123 47963 48678 49505 50297 50832 51329 51712 52026 52303 52459 52535 52556 52439 52335 52188 51958 51661 51371 50882 50490 50017 49657 49245 48833 48413 48089 47676 47265 46935 46538 46155 45650 45260 44830 44409 43900 43535 42987 42388 41656 40881 40086 39110 38115 37096 35915 34689 33123 31798 30749 29999 29156 28624 28175 27604 26818 
10268 10813 11074 11358 11585 11931 12207 12502 12833 13208 13560 13921 14326 14854 15350 15818 16561 17230 18031 19106 20193 21481 23245 25118 26745 28268 29702 31049 32308 33641 34667 35623 36710 37743 38732 39821 40824 41793 42792 43758 44706 45726 46742 47678 48563 49459 50327 51005 51666 52127 52486 52810 53017 53148 53260 53268 53285 53201 53059 52899 52709 52314 51994 51569 51022 50570 50029 49610 49089 48747 48233 47818 47375 46964 46534 46058 45577 45087 44687 44237 43739 43255 42694 42045 41384 40560 39615 38641 37534 36434 35198 33718 32158 31077 30180 29379 28710 28204 27661 26779 
11186 11705 11946 12223 12491 12772 13055 13353 13641 14067 14453 14850 15211 15711 16314 16910 17549 18421 19253 20395 21556 23214 24895 26328 27764 29142 30414 31739 32897 33924 35051 36049 37041 38067 39039 39995 41015 42023 43080 44076 45117 46112 47209 48094 49126 50116 50922 51609 52160 52636 53034 53253 53528 53683 53811 53871 53861 53763 53680 53573 53367 53085 52800 52405 51943 51488 50854 50212 49811 49265 48791 48272 47755 47253 46842 46337 45845 45402 44881 44367 43933 43470 42914 42390 41771 40851 40013 38967 37972 36834 35630 34320 32567 31443 30328 29573 28811 28285 27695 26761 
12183 12657 12947 13234 13507 13809 14105 14372 14729 15074 15561 15957 16428 16932 17594 18229 18896 19804 20748 21915 23514 24876 26171 27474 28689 29937 31170 32317 33375 34359 35327 36264 37293 38290 39287 40313 41263 42252 43282 44309 45410 46510 47432 48543 49648 50551 51349 51996 52566 52983 53331 53633 53816 54005 54138 54215 54205 54188 54112 54001 53855 53658 53341 52980 52670 52123 51578 50925 50288 49859 49245 48677 48080 47595 46996 46480 45982 45514 45018 44542 44038 43519 43048 42480 41865 41167 40378 39325 38324 37206 36036 34733 33052 31636 30510 29740 28904 28350 27757 26788 
13593 14061 14375 14639 14883 15134 15480 15797 16144 16560 17049 17518 17951 18458 19135 19881 20585 21559 22827 24025 25157 26232 27336 28442 29557 30655 31713 32855 33781 34644 35618 36589 37535 38461 39394 40372 41383 42459 43461 44531 45553 46693 47791 48968 49910 50861 51607 52230 52716 53148 53501 53764 54023 54190 54325 54430 54462 54441 54386 54305 54174 53990 53689 53419 53073 52652 52117 51548 50829 50169 49674 49031 48461 47820 47251 46688 46167 45652 45070 44564 44075 43573 43055 42509 42036 41295 40512 39639 38630 37483 36372 35064 33520 31938 30786 29901 29017 28400 27803 26809 
15556 16226 16459 16742 17017 17242 17510 17802 18185 18582 19045 19442 19911 20559 21262 22074 23108 23890 24717 25618 26537 27424 28434 29377 30371 31336 32280 33138 34117 35015 35829 36799 37746 38708 39657 40617 41577 42572 43539 44652 45781 46765 47936 49136 50075 50975 51694 52307 52776 53243 53577 53883 54087 54285 54427 54561 54571 54559 54539 54406 54364 54146 53931 53705 53414 52960 52507 51940 51313 50594 49884 49342 48630 47965 47376 46705 46121 45615 45080 44552 44048 43489 42972 42465 41931 41383 40663 39749 38787 37727 36593 35351 33981 32235 31026 29992 29197 28497 27900 26878 
18127 18652 18895 19228 19550 19867 20223 20592 21014 21497 22031 22571 22992 23409 23964 24452 25040 25696 26327 27038 27772 28571 29455 30320 31077 31940 32763 33630 34428 35276 36180 37057 37912 38827 39768 40672 41637 42669 43663 44744 45850 46924 48187 49207 50214 51022 51687 52301 52761 53203 53562 53838 54076 54258 54473 54576 54587 54603 54577 54514 54424 54272 54042 53810 53502 53126 52722 52222 51593 50880 50152 49456 48679 48077 47406 46785 46200 45620 45067 44500 43948 43384 42899 42385 41774 41205 40638 39885 38887 37925 36781 35586 34277 32526 31213 30134 29368 28588 28003 26882 
21632 22116 22316 22592 22835 23148 23373 23688 23964 24289 24619 24990 25387 25710 26137 26543 27008 27503 28111 28561 29167 29853 30497 31217 31897 32558 33349 34018 34859 35621 36402 37272 38156 38979 39907 40912 41767 42725 43752 44807 45865 47012 48163 49212 50171 50933 51598 52169 52671 53064 53425 53704 53982 54202 54349 54468 54514 54539 54524 54511 54401 54247 54104 53822 53568 53240 52812 52285 51686 50985 50180 49416 48755 48073 47329 46718 46091 45474 44898 44311 43731 43242 42703 42153 41604 41142 40455 39799 38939 37990 36918 35749 34493 32856 31351 30260 29466 28660 28078 26930 
24512 24878 25067 25179 25402 25583 25764 25993 26218 26489 26721 26981 27312 27658 27995 28307 28724 29135 29615 30092 30605 31155 31699 32342 32894 33483 34010 34703 35388 36066 36841 37588 38398 39216 40062 40974 41866 42783 43829 44898 45883 47001 48148 49137 50033 50817 51466 52054 52453 52914 53248 53550 53820 54026 54210 54321 54389 54464 54463 54369 54317 54212 54031 53805 53495 53172 52777 52301 51672 50994 50184 49333 48706 47934 47252 46637 45896 45267 44667 44124 43571 43024 42462 41921 41317 40882 40382 39550 38857 37932 36940 35910 34672 33219 31575 30461 29587 28693 28131 26954 
26807 27174 27311 27457 27646 27768 27936 28100 28316 28443 28659 28862 29060 29339 29569 30005 30237 30580 30909 31336 31698 32266 32600 33199 33729 34239 34839 35408 36056 36774 37420 38181 38861 39645 40421 41224 42145 43018 43939 44975 45907 47009 48148 49081 49962 50706 51297 51844 52274 52716 53056 53377 53636 53866 54020 54140 54248 54294 54299 54263 54190 54056 53869 53707 53415 53085 52722 52224 51584 50893 50084 49205 48531 47766 47064 46393 45737 45109 44459 43892 43313 42767 42181 41610 41089 40583 40049 39394 38604 37825 36903 35864 34755 33529 31807 30664 29600 28915 28146 26968 
28861 29098 29220 29341 29476 29601 29737 29893 30020 30212 30338 30493 30684 30888 31068 31244 31504 31939 32128 32364 32844 33150 33545 33944 34496 34947 35533 36018 36664 37298 37939 38582 39306 40069 40833 41642 42460 43368 44225 45217 46080 47197 48172 49097 49908 50602 51160 51690 52112 52532 52864 53175 53460 53646 53821 53966 54058 54101 54100 54084 54015 53855 53719 53546 53246 52947 52539 52028 51458 50716 49954 49041 48320 47494 46820 46155 45469 44860 44213 43563 43059 42421 41875 41306 40800 40230 39668 39089 38481 37588 36752 35833 34782 33576 32023 30716 29676 28975 28215 26916 
30553 30720 30801 30908 31011 31109 31208 31319 31445 31576 31682 31854 32020 32195 32329 32534 32708 32940 33166 33493 33732 34040 34437 34786 35183 35684 36132 36672 37206 37770 38342 39044 39713 40335 41082 41889 42609 43490 44410 45319 46240 47259 48204 49046 49807 50436 51058 51514 51999 52389 52736 53016 53228 53488 53632 53770 53841 53881 53934 53862 53773 53697 53508 53310 53018 52697 52233 51750 51142 50451 49651 48717 48020 47199 46505 45840 45137 44554 43880 43265 42720 42105 41556 40926 40481 39886 39310 38772 38128 37318 36533 35605 34682 33571 32127 30782 29834 29040 28197 26952 
32137 32256 32310 32362 32429 32494 32562 32641 32710 32762 32840 32942 33043 33164 33328 33522 33695 33927 34143 34348 34625 34892 35227 35633 35968 36347 36812 37290 37758 38256 38855 39385 39987 40705 41363 42105 42825 43678 44501 45322 46244 47208 48055 48812 49575 50226 50763 51303 51712 52120 52446 52729 52996 53215 53367 53493 53579 53663 53669 53624 53537 53418 53214 53026 52762 52386 51966 51465 50824 50096 49263 48379 47670 46872 46126 45451 44758 44197 43508 42893 42358 41768 41197 40596 40106 39556 38930 38376 37730 36997 36243 35371 34499 33558 32322 30913 29897 29014 28382 26967 
33655 33681 33736 33775 33779 33792 33827 33896 33962 34038 34118 34170 34209 34269 34349 34486 34685 34843 34990 35217 35457 35646 35980 36278 36658 37038 37373 37896 38290 38797 39277 39869 40508 40970 41609 42290 42999 43736 44587 45280 46158 47080 47865 48610 49358 49937 50492 50988 51410 51750 52103 52376 52656 52850 53002 53174 53279 53293 53319 53301 53210 53100 52929 52665 52424 52070 51656 51113 50425 49710 48849 47976 47280 46454 45729 45030 44377 43755 43088 42489 41944 41348 40810 40247 39736 39187 38543 37965 37398 36664 35927 35099 34259 33297 32356 30863 29868 29009 28400 27057 
35092 35087 35085 35069 35048 35056 35103 35116 35149 35159 35223 35265 35314 35365 35408 35474 35570 35717 35882 36059 36269 36470 36683 36973 37281 37623 37961 38345 38842 39215 39724 40252 40766 41354 41954 42530 43210 43829 44592 45248 46068 46925 47623 48358 49022 49614 50115 50556 50997 51418 51695 51995 52224 52459 52636 52752 52831 52932 52940 52901 52844 52720 52555 52309 51965 51655 51190 50688 49989 49296 48436 47577 46823 46073 45275 44591 43863 43266 42662 42076 41539 40900 40380 39837 39357 38805 38225 37613 37018 36302 35551 34801 33970 33056 32111 30818 29723 29011 28338 27019 
36574 36485 36421 36349 36363 36323 36293 36331 36326 36321 36323 36336 36345 36360 36411 36447 36483 36562 36703 36878 37044 37191 37433 37651 37898 38206 38530 38862 39260 39679 40146 40581 41093 41591 42155 42745 43396 43975 44676 45236 45960 46710 47395 48059 48711 49195 49737 50209 50553 50959 51268 51524 51802 51963 52176 52304 52428 52478 52469 52490 52365 52285 52100 51823 51579 51179 50723 50159 49469 48726 47928 47163 46418 45577 44851 44198 43465 42789 42204 41623 41098 40480 39948 39394 38936 38403 37865 37220 36618 35981 35179 34459 33692 32867 31939 30838 29701 28961 28164 26942 
38041 37912 37863 37790 37761 37657 37579 37480 37484 37449 37423 37414 37336 37350 37383 37387 37417 37434 37523 37637 37787 37952 38104 38360 38597 38809 39076 39421 39690 40199 40492 40934 41374 41897 42369 42948 43475 44086 44716 45211 45894 46591 47176 47762 48293 48847 49290 49734 50148 50450 50819 51054 51328 51515 51665 51813 51917 51978 52012 52010 51924 51805 51590 51425 51070 50681 50179 49592 48963 48166 47339 46689 45869 45198 44432 43756 43047 42390 41785 41152 40573 40047 39497 38907 38495 37971 37475 36870 36214 35574 34893 34145 33387 32593 31756 30783 29542 28723 28005 26778 
39680 39444 39321 39191 39078 38992 38891 38821 38784 38590 38490 38426 38401 38361 38350 38328 38324 38321 38371 38443 38540 38643 38798 39019 39174 39386 39604 39979 40242 40539 40951 41306 41742 42128 42603 43132 43612 44201 44689 45139 45785 46383 46991 47535 47999 48503 48898 49295 49615 49999 50237 50568 50826 51020 51180 51311 51424 51483 51528 51485 51406 51294 51071 50875 50511 50162 49605 49030 48373 47657 46875 46219 45436 44679 44046 43344 42686 42009 41389 40746 40153 39586 39002 38472 38016 37533 37062 36484 35833 35229 34551 33857 33114 32348 31504 30691 29465 28576 27883 26627 
41404 40980 40846 40666 40546 40428 40287 40104 39968 39819 39684 39567 39434 39386 39312 39293 39339 39260 39191 39203 39265 39331 39478 39666 39875 39973 40189 40395 40734 41010 41302 41710 42022 42447 42844 43310 43797 44250 44695 45114 45705 46213 46743 47252 47670 48076 48489 48846 49158 49471 49743 50040 50256 50419 50610 50765 50889 50915 50923 50950 50925 50706 50590 50288 50028 49517 49022 48516 47769 47014 46451 45666 44963 44248 43547 42897 42313 41649 41003 40318 39675 39159 38569 38032 37560 37095 36623 36085 35487 34893 34193 33551 32789 32072 31280 30474 29482 28488 27711 26424 
43248 42751 42555 42289 42110 41920 41708 41533 41308 41103 40868 40743 40614 40477 40356 40230 40185 40108 40089 40050 40058 40089 40162 40286 40433 40588 40746 40930 41170 41443 41712 42044 42392 42741 43119 43486 43939 44363 44686 45068 45612 46035 46587 46970 47381 47725 48089 48443 48711 48999 49243 49505 49690 49879 50103 50239 50353 50386 50419 50358 50343 50198 49973 49767 49355 48979 48460 47807 47218 46527 45958 45190 44535 43812 43158 42422 41777 41187 40580 39976 39336 38804 38205 37620 37131 36615 36173 35684 35082 34532 33854 33237 32528 31826 31058 30294 29442 28344 27508 26226 
45244 44544 44282 43953 43733 43528 43246 43034 42756 42433 42226 42019 41799 41579 41370 41242 41095 41012 40991 40907 40917 40884 40899 40961 41113 41194 41363 41458 41636 41896 42130 42443 42726 43016 43327 43721 44064 44427 44727 45071 45522 45867 46358 46701 47015 47366 47673 47949 48304 48506 48746 48922 49173 49325 49515 49653 49751 49806 49820 49796 49735 49597 49347 49104 48774 48342 47814 47232 46588 46049 45415 44752 44055 43429 42783 42082 41418 40783 40198 39605 38986 38405 37855 37236 36752 36179 35739 35242 34668 34161 33507 32890 32231 31544 30823 30137 29391 28269 27460 25957 
47221 46482 46174 45881 45635 45177 44861 44544 44130 43845 43584 43307 43022 42753 42505 42307 42122 42015 41899 41771 41672 41650 41664 41656 41735 41775 41886 42022 42217 42390 42557 42787 43032 43280 43609 43919 44254 44475 44731 45099 45473 45725 46132 46452 46732 47013 47269 47558 47814 47999 48258 48428 48598 48758 48927 49058 49168 49201 49215 49230 49134 48964 48738 48480 48142 47741 47218 46609 46150 45603 44926 44286 43589 42941 42361 41797 41086 40431 39833 39276 38640 38011 37506 36917 36377 35837 35301 34851 34268 33792 33136 32528 31880 31268 30590 29907 29194 28343 27319 25800 
48819 48197 47870 47589 47292 46911 46536 46163 45774 45354 44967 44630 44183 43921 43695 43419 43182 42991 42774 42650 42557 42490 42403 42376 42374 42431 42493 42613 42706 42856 42975 43164 43412 43674 43864 44112 44319 44542 44799 45157 45384 45623 45902 46263 46459 46688 46931 47174 47372 47542 47738 47885 48009 48175 48358 48476 48545 48544 48603 48559 48512 48361 48127 47873 47532 47115 46578 46154 45658 45051 44517 43807 43184 42557 41911 41370 40795 40154 39450 38932 38285 37705 37150 36585 36018 35520 34930 34496 33933 33433 32746 32116 31521 30960 30394 29681 29042 28248 27288 25726 
50231 49587 49354 49010 48770 48407 48073 47712 47344 46888 46514 46090 45769 45245 44923 44538 44215 43994 43826 43628 43514 43346 43285 43245 43172 43138 43158 43240 43322 43399 43512 43655 43792 43979 44137 44274 44450 44647 44906 45142 45347 45513 45715 45997 46203 46388 46538 46726 46901 47088 47266 47388 47492 47593 47749 47843 47875 47979 47978 47933 47845 47739 47560 47207 46888 46513 46072 45686 45186 44616 44080 43401 42829 42215 41602 40946 40373 39784 39166 38527 38004 37405 36835 36284 35655 35173 34619 34166 33605 33090 32430 31793 31206 30633 30007 29380 28779 28144 27142 25598 
51590 51580 51574 51566 51428 51131 50802 50462 50165 49811 49451 49040 48669 48266 47895 47520 47096 46780 46394 46100 45856 45513 45329 45168 45000 44928 44800 44711 44657 44648 44657 44762 44786 44902 44947 44993 45051 45133 45176 45261 45338 45385 45441 45513 45587 45677 45799 45891 45992 46097 46168 46259 46366 46428 46433 46496 46496 46483 46435 46410 46346 46239 46028 45771 45577 45288 44888 44502 44053 43578 43000 42491 41931 41337 40701 40175 39637 38982 38408 37844 37268 36717 36087 35656 35040 34529 33964 33436 32896 32434 31776 31129 30624 29968 29390 28804 28196 27615 26940 25005 
